%TF.GenerationSoftware,KiCad,Pcbnew,10.0.1*%
%TF.CreationDate,2026-06-10T01:41:52+06:00*%
%TF.ProjectId,Tokipanda updated_pcb,546f6b69-7061-46e6-9461-207570646174,rev?*%
%TF.SameCoordinates,Original*%
%TF.FileFunction,Copper,L2,Bot*%
%TF.FilePolarity,Positive*%
%FSLAX46Y46*%
G04 Gerber Fmt 4.6, Leading zero omitted, Abs format (unit mm)*
G04 Created by KiCad (PCBNEW 10.0.1) date 2026-06-10 01:41:52*
%MOMM*%
%LPD*%
G01*
G04 APERTURE LIST*
G04 Aperture macros list*
%AMRoundRect*
0 Rectangle with rounded corners*
0 $1 Rounding radius*
0 $2 $3 $4 $5 $6 $7 $8 $9 X,Y pos of 4 corners*
0 Add a 4 corners polygon primitive as box body*
4,1,4,$2,$3,$4,$5,$6,$7,$8,$9,$2,$3,0*
0 Add four circle primitives for the rounded corners*
1,1,$1+$1,$2,$3*
1,1,$1+$1,$4,$5*
1,1,$1+$1,$6,$7*
1,1,$1+$1,$8,$9*
0 Add four rect primitives between the rounded corners*
20,1,$1+$1,$2,$3,$4,$5,0*
20,1,$1+$1,$4,$5,$6,$7,0*
20,1,$1+$1,$6,$7,$8,$9,0*
20,1,$1+$1,$8,$9,$2,$3,0*%
G04 Aperture macros list end*
%ADD10C,0.150000*%
%ADD11C,0.300000*%
%ADD12C,0.400000*%
%TA.AperFunction,ComponentPad*%
%ADD13RoundRect,0.250000X0.750000X0.750000X-0.750000X0.750000X-0.750000X-0.750000X0.750000X-0.750000X0*%
%TD*%
%TA.AperFunction,ComponentPad*%
%ADD14C,2.000000*%
%TD*%
%TA.AperFunction,ComponentPad*%
%ADD15R,1.700000X1.700000*%
%TD*%
%TA.AperFunction,ComponentPad*%
%ADD16C,1.700000*%
%TD*%
%TA.AperFunction,ComponentPad*%
%ADD17RoundRect,0.250000X-0.750000X-0.750000X0.750000X-0.750000X0.750000X0.750000X-0.750000X0.750000X0*%
%TD*%
%TA.AperFunction,ComponentPad*%
%ADD18C,1.600000*%
%TD*%
%TA.AperFunction,ComponentPad*%
%ADD19RoundRect,0.250000X0.750000X-0.750000X0.750000X0.750000X-0.750000X0.750000X-0.750000X-0.750000X0*%
%TD*%
%TA.AperFunction,Conductor*%
%ADD20C,1.000000*%
%TD*%
%TA.AperFunction,Conductor*%
%ADD21C,0.500000*%
%TD*%
G04 APERTURE END LIST*
D10*
X177002200Y-166007200D02*
X285002200Y-166007200D01*
X285002200Y-198007200D01*
X177002200Y-198007200D01*
X177002200Y-166007200D01*
X10000000Y-10000000D02*
X287002200Y-10000000D01*
X287002200Y-200007200D01*
X10000000Y-200007200D01*
X10000000Y-10000000D01*
X12000000Y-12000000D02*
X285002200Y-12000000D01*
X285002200Y-198007200D01*
X12000000Y-198007200D01*
X12000000Y-12000000D01*
X60000000Y-12000000D02*
X60000000Y-10000000D01*
X110000000Y-12000000D02*
X110000000Y-10000000D01*
X160000000Y-12000000D02*
X160000000Y-10000000D01*
X210000000Y-12000000D02*
X210000000Y-10000000D01*
X260000000Y-12000000D02*
X260000000Y-10000000D01*
X36089160Y-11593604D02*
X35346303Y-11593604D01*
X35717731Y-11593604D02*
X35717731Y-10293604D01*
X35717731Y-10293604D02*
X35593922Y-10479319D01*
X35593922Y-10479319D02*
X35470112Y-10603128D01*
X35470112Y-10603128D02*
X35346303Y-10665033D01*
X85346303Y-10417414D02*
X85408207Y-10355509D01*
X85408207Y-10355509D02*
X85532017Y-10293604D01*
X85532017Y-10293604D02*
X85841541Y-10293604D01*
X85841541Y-10293604D02*
X85965350Y-10355509D01*
X85965350Y-10355509D02*
X86027255Y-10417414D01*
X86027255Y-10417414D02*
X86089160Y-10541223D01*
X86089160Y-10541223D02*
X86089160Y-10665033D01*
X86089160Y-10665033D02*
X86027255Y-10850747D01*
X86027255Y-10850747D02*
X85284398Y-11593604D01*
X85284398Y-11593604D02*
X86089160Y-11593604D01*
X135284398Y-10293604D02*
X136089160Y-10293604D01*
X136089160Y-10293604D02*
X135655826Y-10788842D01*
X135655826Y-10788842D02*
X135841541Y-10788842D01*
X135841541Y-10788842D02*
X135965350Y-10850747D01*
X135965350Y-10850747D02*
X136027255Y-10912652D01*
X136027255Y-10912652D02*
X136089160Y-11036461D01*
X136089160Y-11036461D02*
X136089160Y-11345985D01*
X136089160Y-11345985D02*
X136027255Y-11469795D01*
X136027255Y-11469795D02*
X135965350Y-11531700D01*
X135965350Y-11531700D02*
X135841541Y-11593604D01*
X135841541Y-11593604D02*
X135470112Y-11593604D01*
X135470112Y-11593604D02*
X135346303Y-11531700D01*
X135346303Y-11531700D02*
X135284398Y-11469795D01*
X185965350Y-10726938D02*
X185965350Y-11593604D01*
X185655826Y-10231700D02*
X185346303Y-11160271D01*
X185346303Y-11160271D02*
X186151064Y-11160271D01*
X236027255Y-10293604D02*
X235408207Y-10293604D01*
X235408207Y-10293604D02*
X235346303Y-10912652D01*
X235346303Y-10912652D02*
X235408207Y-10850747D01*
X235408207Y-10850747D02*
X235532017Y-10788842D01*
X235532017Y-10788842D02*
X235841541Y-10788842D01*
X235841541Y-10788842D02*
X235965350Y-10850747D01*
X235965350Y-10850747D02*
X236027255Y-10912652D01*
X236027255Y-10912652D02*
X236089160Y-11036461D01*
X236089160Y-11036461D02*
X236089160Y-11345985D01*
X236089160Y-11345985D02*
X236027255Y-11469795D01*
X236027255Y-11469795D02*
X235965350Y-11531700D01*
X235965350Y-11531700D02*
X235841541Y-11593604D01*
X235841541Y-11593604D02*
X235532017Y-11593604D01*
X235532017Y-11593604D02*
X235408207Y-11531700D01*
X235408207Y-11531700D02*
X235346303Y-11469795D01*
X285965350Y-10293604D02*
X285717731Y-10293604D01*
X285717731Y-10293604D02*
X285593922Y-10355509D01*
X285593922Y-10355509D02*
X285532017Y-10417414D01*
X285532017Y-10417414D02*
X285408207Y-10603128D01*
X285408207Y-10603128D02*
X285346303Y-10850747D01*
X285346303Y-10850747D02*
X285346303Y-11345985D01*
X285346303Y-11345985D02*
X285408207Y-11469795D01*
X285408207Y-11469795D02*
X285470112Y-11531700D01*
X285470112Y-11531700D02*
X285593922Y-11593604D01*
X285593922Y-11593604D02*
X285841541Y-11593604D01*
X285841541Y-11593604D02*
X285965350Y-11531700D01*
X285965350Y-11531700D02*
X286027255Y-11469795D01*
X286027255Y-11469795D02*
X286089160Y-11345985D01*
X286089160Y-11345985D02*
X286089160Y-11036461D01*
X286089160Y-11036461D02*
X286027255Y-10912652D01*
X286027255Y-10912652D02*
X285965350Y-10850747D01*
X285965350Y-10850747D02*
X285841541Y-10788842D01*
X285841541Y-10788842D02*
X285593922Y-10788842D01*
X285593922Y-10788842D02*
X285470112Y-10850747D01*
X285470112Y-10850747D02*
X285408207Y-10912652D01*
X285408207Y-10912652D02*
X285346303Y-11036461D01*
X60000000Y-198007200D02*
X60000000Y-200007200D01*
X110000000Y-198007200D02*
X110000000Y-200007200D01*
X160000000Y-198007200D02*
X160000000Y-200007200D01*
X210000000Y-198007200D02*
X210000000Y-200007200D01*
X260000000Y-198007200D02*
X260000000Y-200007200D01*
X36089160Y-199600804D02*
X35346303Y-199600804D01*
X35717731Y-199600804D02*
X35717731Y-198300804D01*
X35717731Y-198300804D02*
X35593922Y-198486519D01*
X35593922Y-198486519D02*
X35470112Y-198610328D01*
X35470112Y-198610328D02*
X35346303Y-198672233D01*
X85346303Y-198424614D02*
X85408207Y-198362709D01*
X85408207Y-198362709D02*
X85532017Y-198300804D01*
X85532017Y-198300804D02*
X85841541Y-198300804D01*
X85841541Y-198300804D02*
X85965350Y-198362709D01*
X85965350Y-198362709D02*
X86027255Y-198424614D01*
X86027255Y-198424614D02*
X86089160Y-198548423D01*
X86089160Y-198548423D02*
X86089160Y-198672233D01*
X86089160Y-198672233D02*
X86027255Y-198857947D01*
X86027255Y-198857947D02*
X85284398Y-199600804D01*
X85284398Y-199600804D02*
X86089160Y-199600804D01*
X135284398Y-198300804D02*
X136089160Y-198300804D01*
X136089160Y-198300804D02*
X135655826Y-198796042D01*
X135655826Y-198796042D02*
X135841541Y-198796042D01*
X135841541Y-198796042D02*
X135965350Y-198857947D01*
X135965350Y-198857947D02*
X136027255Y-198919852D01*
X136027255Y-198919852D02*
X136089160Y-199043661D01*
X136089160Y-199043661D02*
X136089160Y-199353185D01*
X136089160Y-199353185D02*
X136027255Y-199476995D01*
X136027255Y-199476995D02*
X135965350Y-199538900D01*
X135965350Y-199538900D02*
X135841541Y-199600804D01*
X135841541Y-199600804D02*
X135470112Y-199600804D01*
X135470112Y-199600804D02*
X135346303Y-199538900D01*
X135346303Y-199538900D02*
X135284398Y-199476995D01*
X185965350Y-198734138D02*
X185965350Y-199600804D01*
X185655826Y-198238900D02*
X185346303Y-199167471D01*
X185346303Y-199167471D02*
X186151064Y-199167471D01*
X236027255Y-198300804D02*
X235408207Y-198300804D01*
X235408207Y-198300804D02*
X235346303Y-198919852D01*
X235346303Y-198919852D02*
X235408207Y-198857947D01*
X235408207Y-198857947D02*
X235532017Y-198796042D01*
X235532017Y-198796042D02*
X235841541Y-198796042D01*
X235841541Y-198796042D02*
X235965350Y-198857947D01*
X235965350Y-198857947D02*
X236027255Y-198919852D01*
X236027255Y-198919852D02*
X236089160Y-199043661D01*
X236089160Y-199043661D02*
X236089160Y-199353185D01*
X236089160Y-199353185D02*
X236027255Y-199476995D01*
X236027255Y-199476995D02*
X235965350Y-199538900D01*
X235965350Y-199538900D02*
X235841541Y-199600804D01*
X235841541Y-199600804D02*
X235532017Y-199600804D01*
X235532017Y-199600804D02*
X235408207Y-199538900D01*
X235408207Y-199538900D02*
X235346303Y-199476995D01*
X285965350Y-198300804D02*
X285717731Y-198300804D01*
X285717731Y-198300804D02*
X285593922Y-198362709D01*
X285593922Y-198362709D02*
X285532017Y-198424614D01*
X285532017Y-198424614D02*
X285408207Y-198610328D01*
X285408207Y-198610328D02*
X285346303Y-198857947D01*
X285346303Y-198857947D02*
X285346303Y-199353185D01*
X285346303Y-199353185D02*
X285408207Y-199476995D01*
X285408207Y-199476995D02*
X285470112Y-199538900D01*
X285470112Y-199538900D02*
X285593922Y-199600804D01*
X285593922Y-199600804D02*
X285841541Y-199600804D01*
X285841541Y-199600804D02*
X285965350Y-199538900D01*
X285965350Y-199538900D02*
X286027255Y-199476995D01*
X286027255Y-199476995D02*
X286089160Y-199353185D01*
X286089160Y-199353185D02*
X286089160Y-199043661D01*
X286089160Y-199043661D02*
X286027255Y-198919852D01*
X286027255Y-198919852D02*
X285965350Y-198857947D01*
X285965350Y-198857947D02*
X285841541Y-198796042D01*
X285841541Y-198796042D02*
X285593922Y-198796042D01*
X285593922Y-198796042D02*
X285470112Y-198857947D01*
X285470112Y-198857947D02*
X285408207Y-198919852D01*
X285408207Y-198919852D02*
X285346303Y-199043661D01*
X10000000Y-60000000D02*
X12000000Y-60000000D01*
X10000000Y-110000000D02*
X12000000Y-110000000D01*
X10000000Y-160000000D02*
X12000000Y-160000000D01*
X10690476Y-35222176D02*
X11309523Y-35222176D01*
X10566666Y-35593604D02*
X10999999Y-34293604D01*
X10999999Y-34293604D02*
X11433333Y-35593604D01*
X11092857Y-84912652D02*
X11278571Y-84974557D01*
X11278571Y-84974557D02*
X11340476Y-85036461D01*
X11340476Y-85036461D02*
X11402380Y-85160271D01*
X11402380Y-85160271D02*
X11402380Y-85345985D01*
X11402380Y-85345985D02*
X11340476Y-85469795D01*
X11340476Y-85469795D02*
X11278571Y-85531700D01*
X11278571Y-85531700D02*
X11154761Y-85593604D01*
X11154761Y-85593604D02*
X10659523Y-85593604D01*
X10659523Y-85593604D02*
X10659523Y-84293604D01*
X10659523Y-84293604D02*
X11092857Y-84293604D01*
X11092857Y-84293604D02*
X11216666Y-84355509D01*
X11216666Y-84355509D02*
X11278571Y-84417414D01*
X11278571Y-84417414D02*
X11340476Y-84541223D01*
X11340476Y-84541223D02*
X11340476Y-84665033D01*
X11340476Y-84665033D02*
X11278571Y-84788842D01*
X11278571Y-84788842D02*
X11216666Y-84850747D01*
X11216666Y-84850747D02*
X11092857Y-84912652D01*
X11092857Y-84912652D02*
X10659523Y-84912652D01*
X11402380Y-135469795D02*
X11340476Y-135531700D01*
X11340476Y-135531700D02*
X11154761Y-135593604D01*
X11154761Y-135593604D02*
X11030952Y-135593604D01*
X11030952Y-135593604D02*
X10845238Y-135531700D01*
X10845238Y-135531700D02*
X10721428Y-135407890D01*
X10721428Y-135407890D02*
X10659523Y-135284080D01*
X10659523Y-135284080D02*
X10597619Y-135036461D01*
X10597619Y-135036461D02*
X10597619Y-134850747D01*
X10597619Y-134850747D02*
X10659523Y-134603128D01*
X10659523Y-134603128D02*
X10721428Y-134479319D01*
X10721428Y-134479319D02*
X10845238Y-134355509D01*
X10845238Y-134355509D02*
X11030952Y-134293604D01*
X11030952Y-134293604D02*
X11154761Y-134293604D01*
X11154761Y-134293604D02*
X11340476Y-134355509D01*
X11340476Y-134355509D02*
X11402380Y-134417414D01*
X10659523Y-185593604D02*
X10659523Y-184293604D01*
X10659523Y-184293604D02*
X10969047Y-184293604D01*
X10969047Y-184293604D02*
X11154761Y-184355509D01*
X11154761Y-184355509D02*
X11278571Y-184479319D01*
X11278571Y-184479319D02*
X11340476Y-184603128D01*
X11340476Y-184603128D02*
X11402380Y-184850747D01*
X11402380Y-184850747D02*
X11402380Y-185036461D01*
X11402380Y-185036461D02*
X11340476Y-185284080D01*
X11340476Y-185284080D02*
X11278571Y-185407890D01*
X11278571Y-185407890D02*
X11154761Y-185531700D01*
X11154761Y-185531700D02*
X10969047Y-185593604D01*
X10969047Y-185593604D02*
X10659523Y-185593604D01*
X287002200Y-60000000D02*
X285002200Y-60000000D01*
X287002200Y-110000000D02*
X285002200Y-110000000D01*
X287002200Y-160000000D02*
X285002200Y-160000000D01*
X285692676Y-35222176D02*
X286311723Y-35222176D01*
X285568866Y-35593604D02*
X286002199Y-34293604D01*
X286002199Y-34293604D02*
X286435533Y-35593604D01*
X286095057Y-84912652D02*
X286280771Y-84974557D01*
X286280771Y-84974557D02*
X286342676Y-85036461D01*
X286342676Y-85036461D02*
X286404580Y-85160271D01*
X286404580Y-85160271D02*
X286404580Y-85345985D01*
X286404580Y-85345985D02*
X286342676Y-85469795D01*
X286342676Y-85469795D02*
X286280771Y-85531700D01*
X286280771Y-85531700D02*
X286156961Y-85593604D01*
X286156961Y-85593604D02*
X285661723Y-85593604D01*
X285661723Y-85593604D02*
X285661723Y-84293604D01*
X285661723Y-84293604D02*
X286095057Y-84293604D01*
X286095057Y-84293604D02*
X286218866Y-84355509D01*
X286218866Y-84355509D02*
X286280771Y-84417414D01*
X286280771Y-84417414D02*
X286342676Y-84541223D01*
X286342676Y-84541223D02*
X286342676Y-84665033D01*
X286342676Y-84665033D02*
X286280771Y-84788842D01*
X286280771Y-84788842D02*
X286218866Y-84850747D01*
X286218866Y-84850747D02*
X286095057Y-84912652D01*
X286095057Y-84912652D02*
X285661723Y-84912652D01*
X286404580Y-135469795D02*
X286342676Y-135531700D01*
X286342676Y-135531700D02*
X286156961Y-135593604D01*
X286156961Y-135593604D02*
X286033152Y-135593604D01*
X286033152Y-135593604D02*
X285847438Y-135531700D01*
X285847438Y-135531700D02*
X285723628Y-135407890D01*
X285723628Y-135407890D02*
X285661723Y-135284080D01*
X285661723Y-135284080D02*
X285599819Y-135036461D01*
X285599819Y-135036461D02*
X285599819Y-134850747D01*
X285599819Y-134850747D02*
X285661723Y-134603128D01*
X285661723Y-134603128D02*
X285723628Y-134479319D01*
X285723628Y-134479319D02*
X285847438Y-134355509D01*
X285847438Y-134355509D02*
X286033152Y-134293604D01*
X286033152Y-134293604D02*
X286156961Y-134293604D01*
X286156961Y-134293604D02*
X286342676Y-134355509D01*
X286342676Y-134355509D02*
X286404580Y-134417414D01*
X285661723Y-185593604D02*
X285661723Y-184293604D01*
X285661723Y-184293604D02*
X285971247Y-184293604D01*
X285971247Y-184293604D02*
X286156961Y-184355509D01*
X286156961Y-184355509D02*
X286280771Y-184479319D01*
X286280771Y-184479319D02*
X286342676Y-184603128D01*
X286342676Y-184603128D02*
X286404580Y-184850747D01*
X286404580Y-184850747D02*
X286404580Y-185036461D01*
X286404580Y-185036461D02*
X286342676Y-185284080D01*
X286342676Y-185284080D02*
X286280771Y-185407890D01*
X286280771Y-185407890D02*
X286156961Y-185531700D01*
X286156961Y-185531700D02*
X285971247Y-185593604D01*
X285971247Y-185593604D02*
X285661723Y-185593604D01*
X200458026Y-193793328D02*
X200458026Y-192293328D01*
X200458026Y-192293328D02*
X200815169Y-192293328D01*
X200815169Y-192293328D02*
X201029455Y-192364757D01*
X201029455Y-192364757D02*
X201172312Y-192507614D01*
X201172312Y-192507614D02*
X201243741Y-192650471D01*
X201243741Y-192650471D02*
X201315169Y-192936185D01*
X201315169Y-192936185D02*
X201315169Y-193150471D01*
X201315169Y-193150471D02*
X201243741Y-193436185D01*
X201243741Y-193436185D02*
X201172312Y-193579042D01*
X201172312Y-193579042D02*
X201029455Y-193721900D01*
X201029455Y-193721900D02*
X200815169Y-193793328D01*
X200815169Y-193793328D02*
X200458026Y-193793328D01*
X202600884Y-193793328D02*
X202600884Y-193007614D01*
X202600884Y-193007614D02*
X202529455Y-192864757D01*
X202529455Y-192864757D02*
X202386598Y-192793328D01*
X202386598Y-192793328D02*
X202100884Y-192793328D01*
X202100884Y-192793328D02*
X201958026Y-192864757D01*
X202600884Y-193721900D02*
X202458026Y-193793328D01*
X202458026Y-193793328D02*
X202100884Y-193793328D01*
X202100884Y-193793328D02*
X201958026Y-193721900D01*
X201958026Y-193721900D02*
X201886598Y-193579042D01*
X201886598Y-193579042D02*
X201886598Y-193436185D01*
X201886598Y-193436185D02*
X201958026Y-193293328D01*
X201958026Y-193293328D02*
X202100884Y-193221900D01*
X202100884Y-193221900D02*
X202458026Y-193221900D01*
X202458026Y-193221900D02*
X202600884Y-193150471D01*
X203100884Y-192793328D02*
X203672312Y-192793328D01*
X203315169Y-192293328D02*
X203315169Y-193579042D01*
X203315169Y-193579042D02*
X203386598Y-193721900D01*
X203386598Y-193721900D02*
X203529455Y-193793328D01*
X203529455Y-193793328D02*
X203672312Y-193793328D01*
X204743741Y-193721900D02*
X204600884Y-193793328D01*
X204600884Y-193793328D02*
X204315170Y-193793328D01*
X204315170Y-193793328D02*
X204172312Y-193721900D01*
X204172312Y-193721900D02*
X204100884Y-193579042D01*
X204100884Y-193579042D02*
X204100884Y-193007614D01*
X204100884Y-193007614D02*
X204172312Y-192864757D01*
X204172312Y-192864757D02*
X204315170Y-192793328D01*
X204315170Y-192793328D02*
X204600884Y-192793328D01*
X204600884Y-192793328D02*
X204743741Y-192864757D01*
X204743741Y-192864757D02*
X204815170Y-193007614D01*
X204815170Y-193007614D02*
X204815170Y-193150471D01*
X204815170Y-193150471D02*
X204100884Y-193293328D01*
X205458026Y-193650471D02*
X205529455Y-193721900D01*
X205529455Y-193721900D02*
X205458026Y-193793328D01*
X205458026Y-193793328D02*
X205386598Y-193721900D01*
X205386598Y-193721900D02*
X205458026Y-193650471D01*
X205458026Y-193650471D02*
X205458026Y-193793328D01*
X205458026Y-192864757D02*
X205529455Y-192936185D01*
X205529455Y-192936185D02*
X205458026Y-193007614D01*
X205458026Y-193007614D02*
X205386598Y-192936185D01*
X205386598Y-192936185D02*
X205458026Y-192864757D01*
X205458026Y-192864757D02*
X205458026Y-193007614D01*
X177002200Y-194507200D02*
X285002200Y-194507200D01*
X178458026Y-196593328D02*
X178458026Y-195093328D01*
X179315169Y-196593328D02*
X178672312Y-195736185D01*
X179315169Y-195093328D02*
X178458026Y-195950471D01*
X179958026Y-196593328D02*
X179958026Y-195593328D01*
X179958026Y-195093328D02*
X179886598Y-195164757D01*
X179886598Y-195164757D02*
X179958026Y-195236185D01*
X179958026Y-195236185D02*
X180029455Y-195164757D01*
X180029455Y-195164757D02*
X179958026Y-195093328D01*
X179958026Y-195093328D02*
X179958026Y-195236185D01*
X181529455Y-196450471D02*
X181458027Y-196521900D01*
X181458027Y-196521900D02*
X181243741Y-196593328D01*
X181243741Y-196593328D02*
X181100884Y-196593328D01*
X181100884Y-196593328D02*
X180886598Y-196521900D01*
X180886598Y-196521900D02*
X180743741Y-196379042D01*
X180743741Y-196379042D02*
X180672312Y-196236185D01*
X180672312Y-196236185D02*
X180600884Y-195950471D01*
X180600884Y-195950471D02*
X180600884Y-195736185D01*
X180600884Y-195736185D02*
X180672312Y-195450471D01*
X180672312Y-195450471D02*
X180743741Y-195307614D01*
X180743741Y-195307614D02*
X180886598Y-195164757D01*
X180886598Y-195164757D02*
X181100884Y-195093328D01*
X181100884Y-195093328D02*
X181243741Y-195093328D01*
X181243741Y-195093328D02*
X181458027Y-195164757D01*
X181458027Y-195164757D02*
X181529455Y-195236185D01*
X182815170Y-196593328D02*
X182815170Y-195807614D01*
X182815170Y-195807614D02*
X182743741Y-195664757D01*
X182743741Y-195664757D02*
X182600884Y-195593328D01*
X182600884Y-195593328D02*
X182315170Y-195593328D01*
X182315170Y-195593328D02*
X182172312Y-195664757D01*
X182815170Y-196521900D02*
X182672312Y-196593328D01*
X182672312Y-196593328D02*
X182315170Y-196593328D01*
X182315170Y-196593328D02*
X182172312Y-196521900D01*
X182172312Y-196521900D02*
X182100884Y-196379042D01*
X182100884Y-196379042D02*
X182100884Y-196236185D01*
X182100884Y-196236185D02*
X182172312Y-196093328D01*
X182172312Y-196093328D02*
X182315170Y-196021900D01*
X182315170Y-196021900D02*
X182672312Y-196021900D01*
X182672312Y-196021900D02*
X182815170Y-195950471D01*
X184172313Y-196593328D02*
X184172313Y-195093328D01*
X184172313Y-196521900D02*
X184029455Y-196593328D01*
X184029455Y-196593328D02*
X183743741Y-196593328D01*
X183743741Y-196593328D02*
X183600884Y-196521900D01*
X183600884Y-196521900D02*
X183529455Y-196450471D01*
X183529455Y-196450471D02*
X183458027Y-196307614D01*
X183458027Y-196307614D02*
X183458027Y-195879042D01*
X183458027Y-195879042D02*
X183529455Y-195736185D01*
X183529455Y-195736185D02*
X183600884Y-195664757D01*
X183600884Y-195664757D02*
X183743741Y-195593328D01*
X183743741Y-195593328D02*
X184029455Y-195593328D01*
X184029455Y-195593328D02*
X184172313Y-195664757D01*
X186029455Y-195807614D02*
X186529455Y-195807614D01*
X186743741Y-196593328D02*
X186029455Y-196593328D01*
X186029455Y-196593328D02*
X186029455Y-195093328D01*
X186029455Y-195093328D02*
X186743741Y-195093328D01*
X187386598Y-196450471D02*
X187458027Y-196521900D01*
X187458027Y-196521900D02*
X187386598Y-196593328D01*
X187386598Y-196593328D02*
X187315170Y-196521900D01*
X187315170Y-196521900D02*
X187386598Y-196450471D01*
X187386598Y-196450471D02*
X187386598Y-196593328D01*
X188100884Y-196593328D02*
X188100884Y-195093328D01*
X188100884Y-195093328D02*
X188458027Y-195093328D01*
X188458027Y-195093328D02*
X188672313Y-195164757D01*
X188672313Y-195164757D02*
X188815170Y-195307614D01*
X188815170Y-195307614D02*
X188886599Y-195450471D01*
X188886599Y-195450471D02*
X188958027Y-195736185D01*
X188958027Y-195736185D02*
X188958027Y-195950471D01*
X188958027Y-195950471D02*
X188886599Y-196236185D01*
X188886599Y-196236185D02*
X188815170Y-196379042D01*
X188815170Y-196379042D02*
X188672313Y-196521900D01*
X188672313Y-196521900D02*
X188458027Y-196593328D01*
X188458027Y-196593328D02*
X188100884Y-196593328D01*
X189600884Y-196450471D02*
X189672313Y-196521900D01*
X189672313Y-196521900D02*
X189600884Y-196593328D01*
X189600884Y-196593328D02*
X189529456Y-196521900D01*
X189529456Y-196521900D02*
X189600884Y-196450471D01*
X189600884Y-196450471D02*
X189600884Y-196593328D01*
X190243742Y-196164757D02*
X190958028Y-196164757D01*
X190100885Y-196593328D02*
X190600885Y-195093328D01*
X190600885Y-195093328D02*
X191100885Y-196593328D01*
X191600884Y-196450471D02*
X191672313Y-196521900D01*
X191672313Y-196521900D02*
X191600884Y-196593328D01*
X191600884Y-196593328D02*
X191529456Y-196521900D01*
X191529456Y-196521900D02*
X191600884Y-196450471D01*
X191600884Y-196450471D02*
X191600884Y-196593328D01*
X194243742Y-196593328D02*
X193386599Y-196593328D01*
X193815170Y-196593328D02*
X193815170Y-195093328D01*
X193815170Y-195093328D02*
X193672313Y-195307614D01*
X193672313Y-195307614D02*
X193529456Y-195450471D01*
X193529456Y-195450471D02*
X193386599Y-195521900D01*
X195172313Y-195093328D02*
X195315170Y-195093328D01*
X195315170Y-195093328D02*
X195458027Y-195164757D01*
X195458027Y-195164757D02*
X195529456Y-195236185D01*
X195529456Y-195236185D02*
X195600884Y-195379042D01*
X195600884Y-195379042D02*
X195672313Y-195664757D01*
X195672313Y-195664757D02*
X195672313Y-196021900D01*
X195672313Y-196021900D02*
X195600884Y-196307614D01*
X195600884Y-196307614D02*
X195529456Y-196450471D01*
X195529456Y-196450471D02*
X195458027Y-196521900D01*
X195458027Y-196521900D02*
X195315170Y-196593328D01*
X195315170Y-196593328D02*
X195172313Y-196593328D01*
X195172313Y-196593328D02*
X195029456Y-196521900D01*
X195029456Y-196521900D02*
X194958027Y-196450471D01*
X194958027Y-196450471D02*
X194886598Y-196307614D01*
X194886598Y-196307614D02*
X194815170Y-196021900D01*
X194815170Y-196021900D02*
X194815170Y-195664757D01*
X194815170Y-195664757D02*
X194886598Y-195379042D01*
X194886598Y-195379042D02*
X194958027Y-195236185D01*
X194958027Y-195236185D02*
X195029456Y-195164757D01*
X195029456Y-195164757D02*
X195172313Y-195093328D01*
X196315169Y-196450471D02*
X196386598Y-196521900D01*
X196386598Y-196521900D02*
X196315169Y-196593328D01*
X196315169Y-196593328D02*
X196243741Y-196521900D01*
X196243741Y-196521900D02*
X196315169Y-196450471D01*
X196315169Y-196450471D02*
X196315169Y-196593328D01*
X197315170Y-195093328D02*
X197458027Y-195093328D01*
X197458027Y-195093328D02*
X197600884Y-195164757D01*
X197600884Y-195164757D02*
X197672313Y-195236185D01*
X197672313Y-195236185D02*
X197743741Y-195379042D01*
X197743741Y-195379042D02*
X197815170Y-195664757D01*
X197815170Y-195664757D02*
X197815170Y-196021900D01*
X197815170Y-196021900D02*
X197743741Y-196307614D01*
X197743741Y-196307614D02*
X197672313Y-196450471D01*
X197672313Y-196450471D02*
X197600884Y-196521900D01*
X197600884Y-196521900D02*
X197458027Y-196593328D01*
X197458027Y-196593328D02*
X197315170Y-196593328D01*
X197315170Y-196593328D02*
X197172313Y-196521900D01*
X197172313Y-196521900D02*
X197100884Y-196450471D01*
X197100884Y-196450471D02*
X197029455Y-196307614D01*
X197029455Y-196307614D02*
X196958027Y-196021900D01*
X196958027Y-196021900D02*
X196958027Y-195664757D01*
X196958027Y-195664757D02*
X197029455Y-195379042D01*
X197029455Y-195379042D02*
X197100884Y-195236185D01*
X197100884Y-195236185D02*
X197172313Y-195164757D01*
X197172313Y-195164757D02*
X197315170Y-195093328D01*
X198458026Y-196450471D02*
X198529455Y-196521900D01*
X198529455Y-196521900D02*
X198458026Y-196593328D01*
X198458026Y-196593328D02*
X198386598Y-196521900D01*
X198386598Y-196521900D02*
X198458026Y-196450471D01*
X198458026Y-196450471D02*
X198458026Y-196593328D01*
X199958027Y-196593328D02*
X199100884Y-196593328D01*
X199529455Y-196593328D02*
X199529455Y-195093328D01*
X199529455Y-195093328D02*
X199386598Y-195307614D01*
X199386598Y-195307614D02*
X199243741Y-195450471D01*
X199243741Y-195450471D02*
X199100884Y-195521900D01*
X177002200Y-191507200D02*
X285002200Y-191507200D01*
D11*
X264413853Y-193785528D02*
X263913853Y-193071242D01*
X263556710Y-193785528D02*
X263556710Y-192285528D01*
X263556710Y-192285528D02*
X264128139Y-192285528D01*
X264128139Y-192285528D02*
X264270996Y-192356957D01*
X264270996Y-192356957D02*
X264342425Y-192428385D01*
X264342425Y-192428385D02*
X264413853Y-192571242D01*
X264413853Y-192571242D02*
X264413853Y-192785528D01*
X264413853Y-192785528D02*
X264342425Y-192928385D01*
X264342425Y-192928385D02*
X264270996Y-192999814D01*
X264270996Y-192999814D02*
X264128139Y-193071242D01*
X264128139Y-193071242D02*
X263556710Y-193071242D01*
X265628139Y-193714100D02*
X265485282Y-193785528D01*
X265485282Y-193785528D02*
X265199568Y-193785528D01*
X265199568Y-193785528D02*
X265056710Y-193714100D01*
X265056710Y-193714100D02*
X264985282Y-193571242D01*
X264985282Y-193571242D02*
X264985282Y-192999814D01*
X264985282Y-192999814D02*
X265056710Y-192856957D01*
X265056710Y-192856957D02*
X265199568Y-192785528D01*
X265199568Y-192785528D02*
X265485282Y-192785528D01*
X265485282Y-192785528D02*
X265628139Y-192856957D01*
X265628139Y-192856957D02*
X265699568Y-192999814D01*
X265699568Y-192999814D02*
X265699568Y-193142671D01*
X265699568Y-193142671D02*
X264985282Y-193285528D01*
X266199567Y-192785528D02*
X266556710Y-193785528D01*
X266556710Y-193785528D02*
X266913853Y-192785528D01*
X267485281Y-193642671D02*
X267556710Y-193714100D01*
X267556710Y-193714100D02*
X267485281Y-193785528D01*
X267485281Y-193785528D02*
X267413853Y-193714100D01*
X267413853Y-193714100D02*
X267485281Y-193642671D01*
X267485281Y-193642671D02*
X267485281Y-193785528D01*
X267485281Y-192856957D02*
X267556710Y-192928385D01*
X267556710Y-192928385D02*
X267485281Y-192999814D01*
X267485281Y-192999814D02*
X267413853Y-192928385D01*
X267413853Y-192928385D02*
X267485281Y-192856957D01*
X267485281Y-192856957D02*
X267485281Y-192999814D01*
D10*
X178386598Y-193721900D02*
X178600884Y-193793328D01*
X178600884Y-193793328D02*
X178958026Y-193793328D01*
X178958026Y-193793328D02*
X179100884Y-193721900D01*
X179100884Y-193721900D02*
X179172312Y-193650471D01*
X179172312Y-193650471D02*
X179243741Y-193507614D01*
X179243741Y-193507614D02*
X179243741Y-193364757D01*
X179243741Y-193364757D02*
X179172312Y-193221900D01*
X179172312Y-193221900D02*
X179100884Y-193150471D01*
X179100884Y-193150471D02*
X178958026Y-193079042D01*
X178958026Y-193079042D02*
X178672312Y-193007614D01*
X178672312Y-193007614D02*
X178529455Y-192936185D01*
X178529455Y-192936185D02*
X178458026Y-192864757D01*
X178458026Y-192864757D02*
X178386598Y-192721900D01*
X178386598Y-192721900D02*
X178386598Y-192579042D01*
X178386598Y-192579042D02*
X178458026Y-192436185D01*
X178458026Y-192436185D02*
X178529455Y-192364757D01*
X178529455Y-192364757D02*
X178672312Y-192293328D01*
X178672312Y-192293328D02*
X179029455Y-192293328D01*
X179029455Y-192293328D02*
X179243741Y-192364757D01*
X179886597Y-193793328D02*
X179886597Y-192793328D01*
X179886597Y-192293328D02*
X179815169Y-192364757D01*
X179815169Y-192364757D02*
X179886597Y-192436185D01*
X179886597Y-192436185D02*
X179958026Y-192364757D01*
X179958026Y-192364757D02*
X179886597Y-192293328D01*
X179886597Y-192293328D02*
X179886597Y-192436185D01*
X180458026Y-192793328D02*
X181243741Y-192793328D01*
X181243741Y-192793328D02*
X180458026Y-193793328D01*
X180458026Y-193793328D02*
X181243741Y-193793328D01*
X182386598Y-193721900D02*
X182243741Y-193793328D01*
X182243741Y-193793328D02*
X181958027Y-193793328D01*
X181958027Y-193793328D02*
X181815169Y-193721900D01*
X181815169Y-193721900D02*
X181743741Y-193579042D01*
X181743741Y-193579042D02*
X181743741Y-193007614D01*
X181743741Y-193007614D02*
X181815169Y-192864757D01*
X181815169Y-192864757D02*
X181958027Y-192793328D01*
X181958027Y-192793328D02*
X182243741Y-192793328D01*
X182243741Y-192793328D02*
X182386598Y-192864757D01*
X182386598Y-192864757D02*
X182458027Y-193007614D01*
X182458027Y-193007614D02*
X182458027Y-193150471D01*
X182458027Y-193150471D02*
X181743741Y-193293328D01*
X183100883Y-193650471D02*
X183172312Y-193721900D01*
X183172312Y-193721900D02*
X183100883Y-193793328D01*
X183100883Y-193793328D02*
X183029455Y-193721900D01*
X183029455Y-193721900D02*
X183100883Y-193650471D01*
X183100883Y-193650471D02*
X183100883Y-193793328D01*
X183100883Y-192864757D02*
X183172312Y-192936185D01*
X183172312Y-192936185D02*
X183100883Y-193007614D01*
X183100883Y-193007614D02*
X183029455Y-192936185D01*
X183029455Y-192936185D02*
X183100883Y-192864757D01*
X183100883Y-192864757D02*
X183100883Y-193007614D01*
X184886598Y-193364757D02*
X185600884Y-193364757D01*
X184743741Y-193793328D02*
X185243741Y-192293328D01*
X185243741Y-192293328D02*
X185743741Y-193793328D01*
X186886598Y-192793328D02*
X186886598Y-193793328D01*
X186529455Y-192221900D02*
X186172312Y-193293328D01*
X186172312Y-193293328D02*
X187100883Y-193293328D01*
X263458026Y-196593328D02*
X263458026Y-195093328D01*
X264815170Y-196593328D02*
X264815170Y-195093328D01*
X264815170Y-196521900D02*
X264672312Y-196593328D01*
X264672312Y-196593328D02*
X264386598Y-196593328D01*
X264386598Y-196593328D02*
X264243741Y-196521900D01*
X264243741Y-196521900D02*
X264172312Y-196450471D01*
X264172312Y-196450471D02*
X264100884Y-196307614D01*
X264100884Y-196307614D02*
X264100884Y-195879042D01*
X264100884Y-195879042D02*
X264172312Y-195736185D01*
X264172312Y-195736185D02*
X264243741Y-195664757D01*
X264243741Y-195664757D02*
X264386598Y-195593328D01*
X264386598Y-195593328D02*
X264672312Y-195593328D01*
X264672312Y-195593328D02*
X264815170Y-195664757D01*
X265529455Y-196450471D02*
X265600884Y-196521900D01*
X265600884Y-196521900D02*
X265529455Y-196593328D01*
X265529455Y-196593328D02*
X265458027Y-196521900D01*
X265458027Y-196521900D02*
X265529455Y-196450471D01*
X265529455Y-196450471D02*
X265529455Y-196593328D01*
X265529455Y-195664757D02*
X265600884Y-195736185D01*
X265600884Y-195736185D02*
X265529455Y-195807614D01*
X265529455Y-195807614D02*
X265458027Y-195736185D01*
X265458027Y-195736185D02*
X265529455Y-195664757D01*
X265529455Y-195664757D02*
X265529455Y-195807614D01*
X267315170Y-195236185D02*
X267386598Y-195164757D01*
X267386598Y-195164757D02*
X267529456Y-195093328D01*
X267529456Y-195093328D02*
X267886598Y-195093328D01*
X267886598Y-195093328D02*
X268029456Y-195164757D01*
X268029456Y-195164757D02*
X268100884Y-195236185D01*
X268100884Y-195236185D02*
X268172313Y-195379042D01*
X268172313Y-195379042D02*
X268172313Y-195521900D01*
X268172313Y-195521900D02*
X268100884Y-195736185D01*
X268100884Y-195736185D02*
X267243741Y-196593328D01*
X267243741Y-196593328D02*
X268172313Y-196593328D01*
X269886598Y-195021900D02*
X268600884Y-196950471D01*
X270243741Y-195093328D02*
X271243741Y-195093328D01*
X271243741Y-195093328D02*
X270600884Y-196593328D01*
X177002200Y-187507200D02*
X285002200Y-187507200D01*
D12*
X178693928Y-188211638D02*
X179836785Y-188211638D01*
X179015357Y-190211638D02*
X179265357Y-188211638D01*
X180253452Y-190211638D02*
X180420119Y-188878304D01*
X180503452Y-188211638D02*
X180396309Y-188306876D01*
X180396309Y-188306876D02*
X180479643Y-188402114D01*
X180479643Y-188402114D02*
X180586786Y-188306876D01*
X180586786Y-188306876D02*
X180503452Y-188211638D01*
X180503452Y-188211638D02*
X180479643Y-188402114D01*
X181086786Y-188878304D02*
X181848690Y-188878304D01*
X181455833Y-188211638D02*
X181241548Y-189925923D01*
X181241548Y-189925923D02*
X181312976Y-190116400D01*
X181312976Y-190116400D02*
X181491548Y-190211638D01*
X181491548Y-190211638D02*
X181682024Y-190211638D01*
X182634405Y-190211638D02*
X182455833Y-190116400D01*
X182455833Y-190116400D02*
X182384405Y-189925923D01*
X182384405Y-189925923D02*
X182598690Y-188211638D01*
X184170119Y-190116400D02*
X183967738Y-190211638D01*
X183967738Y-190211638D02*
X183586785Y-190211638D01*
X183586785Y-190211638D02*
X183408214Y-190116400D01*
X183408214Y-190116400D02*
X183336785Y-189925923D01*
X183336785Y-189925923D02*
X183432024Y-189164019D01*
X183432024Y-189164019D02*
X183551071Y-188973542D01*
X183551071Y-188973542D02*
X183753452Y-188878304D01*
X183753452Y-188878304D02*
X184134404Y-188878304D01*
X184134404Y-188878304D02*
X184312976Y-188973542D01*
X184312976Y-188973542D02*
X184384404Y-189164019D01*
X184384404Y-189164019D02*
X184360595Y-189354495D01*
X184360595Y-189354495D02*
X183384404Y-189544971D01*
X185134405Y-190021161D02*
X185217738Y-190116400D01*
X185217738Y-190116400D02*
X185110595Y-190211638D01*
X185110595Y-190211638D02*
X185027262Y-190116400D01*
X185027262Y-190116400D02*
X185134405Y-190021161D01*
X185134405Y-190021161D02*
X185110595Y-190211638D01*
X185265357Y-188973542D02*
X185348690Y-189068780D01*
X185348690Y-189068780D02*
X185241548Y-189164019D01*
X185241548Y-189164019D02*
X185158214Y-189068780D01*
X185158214Y-189068780D02*
X185265357Y-188973542D01*
X185265357Y-188973542D02*
X185241548Y-189164019D01*
D10*
X178958026Y-185607614D02*
X178458026Y-185607614D01*
X178458026Y-186393328D02*
X178458026Y-184893328D01*
X178458026Y-184893328D02*
X179172312Y-184893328D01*
X179743740Y-186393328D02*
X179743740Y-185393328D01*
X179743740Y-184893328D02*
X179672312Y-184964757D01*
X179672312Y-184964757D02*
X179743740Y-185036185D01*
X179743740Y-185036185D02*
X179815169Y-184964757D01*
X179815169Y-184964757D02*
X179743740Y-184893328D01*
X179743740Y-184893328D02*
X179743740Y-185036185D01*
X180672312Y-186393328D02*
X180529455Y-186321900D01*
X180529455Y-186321900D02*
X180458026Y-186179042D01*
X180458026Y-186179042D02*
X180458026Y-184893328D01*
X181815169Y-186321900D02*
X181672312Y-186393328D01*
X181672312Y-186393328D02*
X181386598Y-186393328D01*
X181386598Y-186393328D02*
X181243740Y-186321900D01*
X181243740Y-186321900D02*
X181172312Y-186179042D01*
X181172312Y-186179042D02*
X181172312Y-185607614D01*
X181172312Y-185607614D02*
X181243740Y-185464757D01*
X181243740Y-185464757D02*
X181386598Y-185393328D01*
X181386598Y-185393328D02*
X181672312Y-185393328D01*
X181672312Y-185393328D02*
X181815169Y-185464757D01*
X181815169Y-185464757D02*
X181886598Y-185607614D01*
X181886598Y-185607614D02*
X181886598Y-185750471D01*
X181886598Y-185750471D02*
X181172312Y-185893328D01*
X182529454Y-186250471D02*
X182600883Y-186321900D01*
X182600883Y-186321900D02*
X182529454Y-186393328D01*
X182529454Y-186393328D02*
X182458026Y-186321900D01*
X182458026Y-186321900D02*
X182529454Y-186250471D01*
X182529454Y-186250471D02*
X182529454Y-186393328D01*
X182529454Y-185464757D02*
X182600883Y-185536185D01*
X182600883Y-185536185D02*
X182529454Y-185607614D01*
X182529454Y-185607614D02*
X182458026Y-185536185D01*
X182458026Y-185536185D02*
X182529454Y-185464757D01*
X182529454Y-185464757D02*
X182529454Y-185607614D01*
X184172312Y-184893328D02*
X185029455Y-184893328D01*
X184600883Y-186393328D02*
X184600883Y-184893328D01*
X185743740Y-186393328D02*
X185600883Y-186321900D01*
X185600883Y-186321900D02*
X185529454Y-186250471D01*
X185529454Y-186250471D02*
X185458026Y-186107614D01*
X185458026Y-186107614D02*
X185458026Y-185679042D01*
X185458026Y-185679042D02*
X185529454Y-185536185D01*
X185529454Y-185536185D02*
X185600883Y-185464757D01*
X185600883Y-185464757D02*
X185743740Y-185393328D01*
X185743740Y-185393328D02*
X185958026Y-185393328D01*
X185958026Y-185393328D02*
X186100883Y-185464757D01*
X186100883Y-185464757D02*
X186172312Y-185536185D01*
X186172312Y-185536185D02*
X186243740Y-185679042D01*
X186243740Y-185679042D02*
X186243740Y-186107614D01*
X186243740Y-186107614D02*
X186172312Y-186250471D01*
X186172312Y-186250471D02*
X186100883Y-186321900D01*
X186100883Y-186321900D02*
X185958026Y-186393328D01*
X185958026Y-186393328D02*
X185743740Y-186393328D01*
X186886597Y-186393328D02*
X186886597Y-184893328D01*
X187029455Y-185821900D02*
X187458026Y-186393328D01*
X187458026Y-185393328D02*
X186886597Y-185964757D01*
X188100883Y-186393328D02*
X188100883Y-185393328D01*
X188100883Y-184893328D02*
X188029455Y-184964757D01*
X188029455Y-184964757D02*
X188100883Y-185036185D01*
X188100883Y-185036185D02*
X188172312Y-184964757D01*
X188172312Y-184964757D02*
X188100883Y-184893328D01*
X188100883Y-184893328D02*
X188100883Y-185036185D01*
X188815169Y-185393328D02*
X188815169Y-186893328D01*
X188815169Y-185464757D02*
X188958027Y-185393328D01*
X188958027Y-185393328D02*
X189243741Y-185393328D01*
X189243741Y-185393328D02*
X189386598Y-185464757D01*
X189386598Y-185464757D02*
X189458027Y-185536185D01*
X189458027Y-185536185D02*
X189529455Y-185679042D01*
X189529455Y-185679042D02*
X189529455Y-186107614D01*
X189529455Y-186107614D02*
X189458027Y-186250471D01*
X189458027Y-186250471D02*
X189386598Y-186321900D01*
X189386598Y-186321900D02*
X189243741Y-186393328D01*
X189243741Y-186393328D02*
X188958027Y-186393328D01*
X188958027Y-186393328D02*
X188815169Y-186321900D01*
X190815170Y-186393328D02*
X190815170Y-185607614D01*
X190815170Y-185607614D02*
X190743741Y-185464757D01*
X190743741Y-185464757D02*
X190600884Y-185393328D01*
X190600884Y-185393328D02*
X190315170Y-185393328D01*
X190315170Y-185393328D02*
X190172312Y-185464757D01*
X190815170Y-186321900D02*
X190672312Y-186393328D01*
X190672312Y-186393328D02*
X190315170Y-186393328D01*
X190315170Y-186393328D02*
X190172312Y-186321900D01*
X190172312Y-186321900D02*
X190100884Y-186179042D01*
X190100884Y-186179042D02*
X190100884Y-186036185D01*
X190100884Y-186036185D02*
X190172312Y-185893328D01*
X190172312Y-185893328D02*
X190315170Y-185821900D01*
X190315170Y-185821900D02*
X190672312Y-185821900D01*
X190672312Y-185821900D02*
X190815170Y-185750471D01*
X191529455Y-185393328D02*
X191529455Y-186393328D01*
X191529455Y-185536185D02*
X191600884Y-185464757D01*
X191600884Y-185464757D02*
X191743741Y-185393328D01*
X191743741Y-185393328D02*
X191958027Y-185393328D01*
X191958027Y-185393328D02*
X192100884Y-185464757D01*
X192100884Y-185464757D02*
X192172313Y-185607614D01*
X192172313Y-185607614D02*
X192172313Y-186393328D01*
X193529456Y-186393328D02*
X193529456Y-184893328D01*
X193529456Y-186321900D02*
X193386598Y-186393328D01*
X193386598Y-186393328D02*
X193100884Y-186393328D01*
X193100884Y-186393328D02*
X192958027Y-186321900D01*
X192958027Y-186321900D02*
X192886598Y-186250471D01*
X192886598Y-186250471D02*
X192815170Y-186107614D01*
X192815170Y-186107614D02*
X192815170Y-185679042D01*
X192815170Y-185679042D02*
X192886598Y-185536185D01*
X192886598Y-185536185D02*
X192958027Y-185464757D01*
X192958027Y-185464757D02*
X193100884Y-185393328D01*
X193100884Y-185393328D02*
X193386598Y-185393328D01*
X193386598Y-185393328D02*
X193529456Y-185464757D01*
X194886599Y-186393328D02*
X194886599Y-185607614D01*
X194886599Y-185607614D02*
X194815170Y-185464757D01*
X194815170Y-185464757D02*
X194672313Y-185393328D01*
X194672313Y-185393328D02*
X194386599Y-185393328D01*
X194386599Y-185393328D02*
X194243741Y-185464757D01*
X194886599Y-186321900D02*
X194743741Y-186393328D01*
X194743741Y-186393328D02*
X194386599Y-186393328D01*
X194386599Y-186393328D02*
X194243741Y-186321900D01*
X194243741Y-186321900D02*
X194172313Y-186179042D01*
X194172313Y-186179042D02*
X194172313Y-186036185D01*
X194172313Y-186036185D02*
X194243741Y-185893328D01*
X194243741Y-185893328D02*
X194386599Y-185821900D01*
X194386599Y-185821900D02*
X194743741Y-185821900D01*
X194743741Y-185821900D02*
X194886599Y-185750471D01*
X197386599Y-185393328D02*
X197386599Y-186393328D01*
X196743741Y-185393328D02*
X196743741Y-186179042D01*
X196743741Y-186179042D02*
X196815170Y-186321900D01*
X196815170Y-186321900D02*
X196958027Y-186393328D01*
X196958027Y-186393328D02*
X197172313Y-186393328D01*
X197172313Y-186393328D02*
X197315170Y-186321900D01*
X197315170Y-186321900D02*
X197386599Y-186250471D01*
X198100884Y-185393328D02*
X198100884Y-186893328D01*
X198100884Y-185464757D02*
X198243742Y-185393328D01*
X198243742Y-185393328D02*
X198529456Y-185393328D01*
X198529456Y-185393328D02*
X198672313Y-185464757D01*
X198672313Y-185464757D02*
X198743742Y-185536185D01*
X198743742Y-185536185D02*
X198815170Y-185679042D01*
X198815170Y-185679042D02*
X198815170Y-186107614D01*
X198815170Y-186107614D02*
X198743742Y-186250471D01*
X198743742Y-186250471D02*
X198672313Y-186321900D01*
X198672313Y-186321900D02*
X198529456Y-186393328D01*
X198529456Y-186393328D02*
X198243742Y-186393328D01*
X198243742Y-186393328D02*
X198100884Y-186321900D01*
X200100885Y-186393328D02*
X200100885Y-184893328D01*
X200100885Y-186321900D02*
X199958027Y-186393328D01*
X199958027Y-186393328D02*
X199672313Y-186393328D01*
X199672313Y-186393328D02*
X199529456Y-186321900D01*
X199529456Y-186321900D02*
X199458027Y-186250471D01*
X199458027Y-186250471D02*
X199386599Y-186107614D01*
X199386599Y-186107614D02*
X199386599Y-185679042D01*
X199386599Y-185679042D02*
X199458027Y-185536185D01*
X199458027Y-185536185D02*
X199529456Y-185464757D01*
X199529456Y-185464757D02*
X199672313Y-185393328D01*
X199672313Y-185393328D02*
X199958027Y-185393328D01*
X199958027Y-185393328D02*
X200100885Y-185464757D01*
X201458028Y-186393328D02*
X201458028Y-185607614D01*
X201458028Y-185607614D02*
X201386599Y-185464757D01*
X201386599Y-185464757D02*
X201243742Y-185393328D01*
X201243742Y-185393328D02*
X200958028Y-185393328D01*
X200958028Y-185393328D02*
X200815170Y-185464757D01*
X201458028Y-186321900D02*
X201315170Y-186393328D01*
X201315170Y-186393328D02*
X200958028Y-186393328D01*
X200958028Y-186393328D02*
X200815170Y-186321900D01*
X200815170Y-186321900D02*
X200743742Y-186179042D01*
X200743742Y-186179042D02*
X200743742Y-186036185D01*
X200743742Y-186036185D02*
X200815170Y-185893328D01*
X200815170Y-185893328D02*
X200958028Y-185821900D01*
X200958028Y-185821900D02*
X201315170Y-185821900D01*
X201315170Y-185821900D02*
X201458028Y-185750471D01*
X201958028Y-185393328D02*
X202529456Y-185393328D01*
X202172313Y-184893328D02*
X202172313Y-186179042D01*
X202172313Y-186179042D02*
X202243742Y-186321900D01*
X202243742Y-186321900D02*
X202386599Y-186393328D01*
X202386599Y-186393328D02*
X202529456Y-186393328D01*
X203600885Y-186321900D02*
X203458028Y-186393328D01*
X203458028Y-186393328D02*
X203172314Y-186393328D01*
X203172314Y-186393328D02*
X203029456Y-186321900D01*
X203029456Y-186321900D02*
X202958028Y-186179042D01*
X202958028Y-186179042D02*
X202958028Y-185607614D01*
X202958028Y-185607614D02*
X203029456Y-185464757D01*
X203029456Y-185464757D02*
X203172314Y-185393328D01*
X203172314Y-185393328D02*
X203458028Y-185393328D01*
X203458028Y-185393328D02*
X203600885Y-185464757D01*
X203600885Y-185464757D02*
X203672314Y-185607614D01*
X203672314Y-185607614D02*
X203672314Y-185750471D01*
X203672314Y-185750471D02*
X202958028Y-185893328D01*
X204958028Y-186393328D02*
X204958028Y-184893328D01*
X204958028Y-186321900D02*
X204815170Y-186393328D01*
X204815170Y-186393328D02*
X204529456Y-186393328D01*
X204529456Y-186393328D02*
X204386599Y-186321900D01*
X204386599Y-186321900D02*
X204315170Y-186250471D01*
X204315170Y-186250471D02*
X204243742Y-186107614D01*
X204243742Y-186107614D02*
X204243742Y-185679042D01*
X204243742Y-185679042D02*
X204315170Y-185536185D01*
X204315170Y-185536185D02*
X204386599Y-185464757D01*
X204386599Y-185464757D02*
X204529456Y-185393328D01*
X204529456Y-185393328D02*
X204815170Y-185393328D01*
X204815170Y-185393328D02*
X204958028Y-185464757D01*
X205315171Y-186536185D02*
X206458028Y-186536185D01*
X206815170Y-185393328D02*
X206815170Y-186893328D01*
X206815170Y-185464757D02*
X206958028Y-185393328D01*
X206958028Y-185393328D02*
X207243742Y-185393328D01*
X207243742Y-185393328D02*
X207386599Y-185464757D01*
X207386599Y-185464757D02*
X207458028Y-185536185D01*
X207458028Y-185536185D02*
X207529456Y-185679042D01*
X207529456Y-185679042D02*
X207529456Y-186107614D01*
X207529456Y-186107614D02*
X207458028Y-186250471D01*
X207458028Y-186250471D02*
X207386599Y-186321900D01*
X207386599Y-186321900D02*
X207243742Y-186393328D01*
X207243742Y-186393328D02*
X206958028Y-186393328D01*
X206958028Y-186393328D02*
X206815170Y-186321900D01*
X208815171Y-186321900D02*
X208672313Y-186393328D01*
X208672313Y-186393328D02*
X208386599Y-186393328D01*
X208386599Y-186393328D02*
X208243742Y-186321900D01*
X208243742Y-186321900D02*
X208172313Y-186250471D01*
X208172313Y-186250471D02*
X208100885Y-186107614D01*
X208100885Y-186107614D02*
X208100885Y-185679042D01*
X208100885Y-185679042D02*
X208172313Y-185536185D01*
X208172313Y-185536185D02*
X208243742Y-185464757D01*
X208243742Y-185464757D02*
X208386599Y-185393328D01*
X208386599Y-185393328D02*
X208672313Y-185393328D01*
X208672313Y-185393328D02*
X208815171Y-185464757D01*
X209458027Y-186393328D02*
X209458027Y-184893328D01*
X209458027Y-185464757D02*
X209600885Y-185393328D01*
X209600885Y-185393328D02*
X209886599Y-185393328D01*
X209886599Y-185393328D02*
X210029456Y-185464757D01*
X210029456Y-185464757D02*
X210100885Y-185536185D01*
X210100885Y-185536185D02*
X210172313Y-185679042D01*
X210172313Y-185679042D02*
X210172313Y-186107614D01*
X210172313Y-186107614D02*
X210100885Y-186250471D01*
X210100885Y-186250471D02*
X210029456Y-186321900D01*
X210029456Y-186321900D02*
X209886599Y-186393328D01*
X209886599Y-186393328D02*
X209600885Y-186393328D01*
X209600885Y-186393328D02*
X209458027Y-186321900D01*
X210815170Y-186250471D02*
X210886599Y-186321900D01*
X210886599Y-186321900D02*
X210815170Y-186393328D01*
X210815170Y-186393328D02*
X210743742Y-186321900D01*
X210743742Y-186321900D02*
X210815170Y-186250471D01*
X210815170Y-186250471D02*
X210815170Y-186393328D01*
X211529456Y-186393328D02*
X211529456Y-184893328D01*
X211672314Y-185821900D02*
X212100885Y-186393328D01*
X212100885Y-185393328D02*
X211529456Y-185964757D01*
X212743742Y-186393328D02*
X212743742Y-185393328D01*
X212743742Y-184893328D02*
X212672314Y-184964757D01*
X212672314Y-184964757D02*
X212743742Y-185036185D01*
X212743742Y-185036185D02*
X212815171Y-184964757D01*
X212815171Y-184964757D02*
X212743742Y-184893328D01*
X212743742Y-184893328D02*
X212743742Y-185036185D01*
X214100886Y-186321900D02*
X213958028Y-186393328D01*
X213958028Y-186393328D02*
X213672314Y-186393328D01*
X213672314Y-186393328D02*
X213529457Y-186321900D01*
X213529457Y-186321900D02*
X213458028Y-186250471D01*
X213458028Y-186250471D02*
X213386600Y-186107614D01*
X213386600Y-186107614D02*
X213386600Y-185679042D01*
X213386600Y-185679042D02*
X213458028Y-185536185D01*
X213458028Y-185536185D02*
X213529457Y-185464757D01*
X213529457Y-185464757D02*
X213672314Y-185393328D01*
X213672314Y-185393328D02*
X213958028Y-185393328D01*
X213958028Y-185393328D02*
X214100886Y-185464757D01*
X215386600Y-186393328D02*
X215386600Y-185607614D01*
X215386600Y-185607614D02*
X215315171Y-185464757D01*
X215315171Y-185464757D02*
X215172314Y-185393328D01*
X215172314Y-185393328D02*
X214886600Y-185393328D01*
X214886600Y-185393328D02*
X214743742Y-185464757D01*
X215386600Y-186321900D02*
X215243742Y-186393328D01*
X215243742Y-186393328D02*
X214886600Y-186393328D01*
X214886600Y-186393328D02*
X214743742Y-186321900D01*
X214743742Y-186321900D02*
X214672314Y-186179042D01*
X214672314Y-186179042D02*
X214672314Y-186036185D01*
X214672314Y-186036185D02*
X214743742Y-185893328D01*
X214743742Y-185893328D02*
X214886600Y-185821900D01*
X214886600Y-185821900D02*
X215243742Y-185821900D01*
X215243742Y-185821900D02*
X215386600Y-185750471D01*
X216743743Y-186393328D02*
X216743743Y-184893328D01*
X216743743Y-186321900D02*
X216600885Y-186393328D01*
X216600885Y-186393328D02*
X216315171Y-186393328D01*
X216315171Y-186393328D02*
X216172314Y-186321900D01*
X216172314Y-186321900D02*
X216100885Y-186250471D01*
X216100885Y-186250471D02*
X216029457Y-186107614D01*
X216029457Y-186107614D02*
X216029457Y-185679042D01*
X216029457Y-185679042D02*
X216100885Y-185536185D01*
X216100885Y-185536185D02*
X216172314Y-185464757D01*
X216172314Y-185464757D02*
X216315171Y-185393328D01*
X216315171Y-185393328D02*
X216600885Y-185393328D01*
X216600885Y-185393328D02*
X216743743Y-185464757D01*
X217100886Y-186536185D02*
X218243743Y-186536185D01*
X218600885Y-185393328D02*
X218600885Y-186893328D01*
X218600885Y-185464757D02*
X218743743Y-185393328D01*
X218743743Y-185393328D02*
X219029457Y-185393328D01*
X219029457Y-185393328D02*
X219172314Y-185464757D01*
X219172314Y-185464757D02*
X219243743Y-185536185D01*
X219243743Y-185536185D02*
X219315171Y-185679042D01*
X219315171Y-185679042D02*
X219315171Y-186107614D01*
X219315171Y-186107614D02*
X219243743Y-186250471D01*
X219243743Y-186250471D02*
X219172314Y-186321900D01*
X219172314Y-186321900D02*
X219029457Y-186393328D01*
X219029457Y-186393328D02*
X218743743Y-186393328D01*
X218743743Y-186393328D02*
X218600885Y-186321900D01*
X220600886Y-186321900D02*
X220458028Y-186393328D01*
X220458028Y-186393328D02*
X220172314Y-186393328D01*
X220172314Y-186393328D02*
X220029457Y-186321900D01*
X220029457Y-186321900D02*
X219958028Y-186250471D01*
X219958028Y-186250471D02*
X219886600Y-186107614D01*
X219886600Y-186107614D02*
X219886600Y-185679042D01*
X219886600Y-185679042D02*
X219958028Y-185536185D01*
X219958028Y-185536185D02*
X220029457Y-185464757D01*
X220029457Y-185464757D02*
X220172314Y-185393328D01*
X220172314Y-185393328D02*
X220458028Y-185393328D01*
X220458028Y-185393328D02*
X220600886Y-185464757D01*
X221243742Y-186393328D02*
X221243742Y-184893328D01*
X221243742Y-185464757D02*
X221386600Y-185393328D01*
X221386600Y-185393328D02*
X221672314Y-185393328D01*
X221672314Y-185393328D02*
X221815171Y-185464757D01*
X221815171Y-185464757D02*
X221886600Y-185536185D01*
X221886600Y-185536185D02*
X221958028Y-185679042D01*
X221958028Y-185679042D02*
X221958028Y-186107614D01*
X221958028Y-186107614D02*
X221886600Y-186250471D01*
X221886600Y-186250471D02*
X221815171Y-186321900D01*
X221815171Y-186321900D02*
X221672314Y-186393328D01*
X221672314Y-186393328D02*
X221386600Y-186393328D01*
X221386600Y-186393328D02*
X221243742Y-186321900D01*
X177002200Y-181507200D02*
X285002200Y-181507200D01*
X178386598Y-183621900D02*
X178600884Y-183693328D01*
X178600884Y-183693328D02*
X178958026Y-183693328D01*
X178958026Y-183693328D02*
X179100884Y-183621900D01*
X179100884Y-183621900D02*
X179172312Y-183550471D01*
X179172312Y-183550471D02*
X179243741Y-183407614D01*
X179243741Y-183407614D02*
X179243741Y-183264757D01*
X179243741Y-183264757D02*
X179172312Y-183121900D01*
X179172312Y-183121900D02*
X179100884Y-183050471D01*
X179100884Y-183050471D02*
X178958026Y-182979042D01*
X178958026Y-182979042D02*
X178672312Y-182907614D01*
X178672312Y-182907614D02*
X178529455Y-182836185D01*
X178529455Y-182836185D02*
X178458026Y-182764757D01*
X178458026Y-182764757D02*
X178386598Y-182621900D01*
X178386598Y-182621900D02*
X178386598Y-182479042D01*
X178386598Y-182479042D02*
X178458026Y-182336185D01*
X178458026Y-182336185D02*
X178529455Y-182264757D01*
X178529455Y-182264757D02*
X178672312Y-182193328D01*
X178672312Y-182193328D02*
X179029455Y-182193328D01*
X179029455Y-182193328D02*
X179243741Y-182264757D01*
X179886597Y-183693328D02*
X179886597Y-182193328D01*
X180529455Y-183693328D02*
X180529455Y-182907614D01*
X180529455Y-182907614D02*
X180458026Y-182764757D01*
X180458026Y-182764757D02*
X180315169Y-182693328D01*
X180315169Y-182693328D02*
X180100883Y-182693328D01*
X180100883Y-182693328D02*
X179958026Y-182764757D01*
X179958026Y-182764757D02*
X179886597Y-182836185D01*
X181815169Y-183621900D02*
X181672312Y-183693328D01*
X181672312Y-183693328D02*
X181386598Y-183693328D01*
X181386598Y-183693328D02*
X181243740Y-183621900D01*
X181243740Y-183621900D02*
X181172312Y-183479042D01*
X181172312Y-183479042D02*
X181172312Y-182907614D01*
X181172312Y-182907614D02*
X181243740Y-182764757D01*
X181243740Y-182764757D02*
X181386598Y-182693328D01*
X181386598Y-182693328D02*
X181672312Y-182693328D01*
X181672312Y-182693328D02*
X181815169Y-182764757D01*
X181815169Y-182764757D02*
X181886598Y-182907614D01*
X181886598Y-182907614D02*
X181886598Y-183050471D01*
X181886598Y-183050471D02*
X181172312Y-183193328D01*
X183100883Y-183621900D02*
X182958026Y-183693328D01*
X182958026Y-183693328D02*
X182672312Y-183693328D01*
X182672312Y-183693328D02*
X182529454Y-183621900D01*
X182529454Y-183621900D02*
X182458026Y-183479042D01*
X182458026Y-183479042D02*
X182458026Y-182907614D01*
X182458026Y-182907614D02*
X182529454Y-182764757D01*
X182529454Y-182764757D02*
X182672312Y-182693328D01*
X182672312Y-182693328D02*
X182958026Y-182693328D01*
X182958026Y-182693328D02*
X183100883Y-182764757D01*
X183100883Y-182764757D02*
X183172312Y-182907614D01*
X183172312Y-182907614D02*
X183172312Y-183050471D01*
X183172312Y-183050471D02*
X182458026Y-183193328D01*
X183600883Y-182693328D02*
X184172311Y-182693328D01*
X183815168Y-182193328D02*
X183815168Y-183479042D01*
X183815168Y-183479042D02*
X183886597Y-183621900D01*
X183886597Y-183621900D02*
X184029454Y-183693328D01*
X184029454Y-183693328D02*
X184172311Y-183693328D01*
X184672311Y-183550471D02*
X184743740Y-183621900D01*
X184743740Y-183621900D02*
X184672311Y-183693328D01*
X184672311Y-183693328D02*
X184600883Y-183621900D01*
X184600883Y-183621900D02*
X184672311Y-183550471D01*
X184672311Y-183550471D02*
X184672311Y-183693328D01*
X184672311Y-182764757D02*
X184743740Y-182836185D01*
X184743740Y-182836185D02*
X184672311Y-182907614D01*
X184672311Y-182907614D02*
X184600883Y-182836185D01*
X184600883Y-182836185D02*
X184672311Y-182764757D01*
X184672311Y-182764757D02*
X184672311Y-182907614D01*
X197002200Y-191507200D02*
X197002200Y-194507200D01*
X261002200Y-191507200D02*
X261002200Y-198007200D01*
D13*
%TO.P,M2,1,+_1*%
%TO.N,Net-(J6-Pin_6)*%
X217475000Y-59742500D03*
D14*
%TO.P,M2,2,-_2*%
%TO.N,Net-(J6-Pin_7)*%
X214935000Y-59742500D03*
%TD*%
D15*
%TO.P,SW6,1,1_1*%
%TO.N,3v3*%
X191660000Y-43060000D03*
D16*
%TO.P,SW6,2,2_2*%
%TO.N,Net-(U1-IO3)*%
X191660000Y-45600000D03*
%TD*%
D15*
%TO.P,J2,1,Pin_1_1*%
%TO.N,GND*%
X173370000Y-84930000D03*
D16*
%TO.P,J2,2,Pin_2_2*%
%TO.N,unconnected-(J2-Pin_2-Pad2)*%
X170830000Y-84930000D03*
%TO.P,J2,3,Pin_3_3*%
%TO.N,unconnected-(J2-Pin_3-Pad3)*%
X168290000Y-84930000D03*
%TO.P,J2,4,Pin_4_4*%
%TO.N,unconnected-(J2-Pin_4-Pad4)*%
X165750000Y-84930000D03*
%TO.P,J2,5,Pin_5_5*%
%TO.N,unconnected-(J2-Pin_5-Pad5)*%
X163210000Y-84930000D03*
%TO.P,J2,6,Pin_6_6*%
%TO.N,Net-(J2-Pin_6)*%
X160670000Y-84930000D03*
%TO.P,J2,7,Pin_7_7*%
%TO.N,unconnected-(J2-Pin_7-Pad7)*%
X158130000Y-84930000D03*
%TO.P,J2,8,Pin_8_8*%
%TO.N,unconnected-(J2-Pin_8-Pad8)*%
X155590000Y-84930000D03*
%TO.P,J2,9,Pin_9_9*%
%TO.N,unconnected-(J2-Pin_9-Pad9)*%
X153050000Y-84930000D03*
%TO.P,J2,10,Pin_10_10*%
%TO.N,unconnected-(J2-Pin_10-Pad10)*%
X150510000Y-84930000D03*
%TO.P,J2,11,Pin_11_11*%
%TO.N,unconnected-(J2-Pin_11-Pad11)*%
X147970000Y-84930000D03*
%TO.P,J2,12,Pin_12_12*%
%TO.N,unconnected-(J2-Pin_12-Pad12)*%
X145430000Y-84930000D03*
%TO.P,J2,13,Pin_13_13*%
%TO.N,unconnected-(J2-Pin_13-Pad13)*%
X142890000Y-84930000D03*
%TO.P,J2,14,Pin_14_14*%
%TO.N,unconnected-(J2-Pin_14-Pad14)*%
X140350000Y-84930000D03*
%TO.P,J2,15,Pin_15_15*%
%TO.N,unconnected-(J2-Pin_15-Pad15)*%
X137810000Y-84930000D03*
%TO.P,J2,16,Pin_16_16*%
%TO.N,Net-(J2-Pin_16)*%
X135270000Y-84930000D03*
%TO.P,J2,17,Pin_17_17*%
%TO.N,Net-(J2-Pin_17)*%
X132730000Y-84930000D03*
%TO.P,J2,18,Pin_18_18*%
%TO.N,Net-(J2-Pin_18)*%
X130190000Y-84930000D03*
%TO.P,J2,19,Pin_19_19*%
%TO.N,Net-(J2-Pin_19)*%
X127650000Y-84930000D03*
%TO.P,J2,20,Pin_20_20*%
%TO.N,Net-(J2-Pin_20)*%
X125110000Y-84930000D03*
%TD*%
D15*
%TO.P,SW4,1,1_1*%
%TO.N,3v3*%
X152170000Y-45740000D03*
D16*
%TO.P,SW4,2,2_2*%
%TO.N,Net-(U1-IO1)*%
X152170000Y-48280000D03*
%TD*%
D15*
%TO.P,J13,1,Pin_1_1*%
%TO.N,SW_On*%
X211950000Y-108540000D03*
D16*
%TO.P,J13,2,Pin_2_2*%
X214490000Y-108540000D03*
%TO.P,J13,3,Pin_3_3*%
%TO.N,GND*%
X217030000Y-108540000D03*
%TO.P,J13,4,Pin_4_4*%
%TO.N,5v*%
X219570000Y-108540000D03*
%TD*%
D15*
%TO.P,J7,1,Pin_1_1*%
%TO.N,GND*%
X214375000Y-84835000D03*
D16*
%TO.P,J7,2,Pin_2_2*%
%TO.N,unconnected-(J7-Pin_2-Pad2)*%
X216915000Y-84835000D03*
%TO.P,J7,3,Pin_3_3*%
%TO.N,Net-(J7-Pin_3)*%
X219455000Y-84835000D03*
%TO.P,J7,4,Pin_4_4*%
%TO.N,Net-(J7-Pin_4)*%
X221995000Y-84835000D03*
%TO.P,J7,5,Pin_5_5*%
%TO.N,unconnected-(J7-Pin_5-Pad5)*%
X224535000Y-84835000D03*
%TO.P,J7,6,Pin_6_6*%
%TO.N,Net-(J7-Pin_6)*%
X227075000Y-84835000D03*
%TO.P,J7,7,Pin_7_7*%
%TO.N,Net-(J7-Pin_7)*%
X229615000Y-84835000D03*
%TO.P,J7,8,Pin_8_8*%
%TO.N,unconnected-(J7-Pin_8-Pad8)*%
X232155000Y-84835000D03*
%TD*%
D17*
%TO.P,M1,1,+_1*%
%TO.N,Net-(J6-Pin_5)*%
X224140000Y-59410000D03*
D14*
%TO.P,M1,2,-_2*%
%TO.N,Net-(J6-Pin_4)*%
X226680000Y-59410000D03*
%TD*%
D15*
%TO.P,J5,1,Pin_1_1*%
%TO.N,WS*%
X126275000Y-56535000D03*
D16*
%TO.P,J5,2,Pin_2_2*%
%TO.N,NC*%
X126275000Y-53995000D03*
%TO.P,J5,3,Pin_3_3*%
%TO.N,Net-(ESP1-GPIO42)*%
X126275000Y-51455000D03*
%TO.P,J5,4,Pin_4_4*%
%TO.N,NC*%
X126275000Y-48915000D03*
%TO.P,J5,5,Pin_5_5*%
%TO.N,Net-(ESP1-GPIO1)*%
X126275000Y-46375000D03*
%TO.P,J5,6,Pin_6_6*%
%TO.N,GND*%
X126275000Y-43835000D03*
%TO.P,J5,7,Pin_7_7*%
%TO.N,5v*%
X126275000Y-41295000D03*
%TD*%
D18*
%TO.P,R6,1*%
%TO.N,GND*%
X183630000Y-57340000D03*
%TO.P,R6,2*%
%TO.N,Net-(U1-IO3)*%
X183630000Y-47180000D03*
%TD*%
D15*
%TO.P,J4,1,Pin_1_1*%
%TO.N,GND*%
X155190000Y-73920000D03*
D16*
%TO.P,J4,2,Pin_2_2*%
%TO.N,WS*%
X155190000Y-71380000D03*
%TO.P,J4,3,Pin_3_3*%
%TO.N,Net-(ESP1-GPIO1)*%
X155190000Y-68840000D03*
%TD*%
D15*
%TO.P,J6,1,Pin_1_1*%
%TO.N,SW_On*%
X232205000Y-69445000D03*
D16*
%TO.P,J6,2,Pin_2_2*%
%TO.N,unconnected-(J6-Pin_2-Pad2)*%
X229665000Y-69445000D03*
%TO.P,J6,3,Pin_3_3*%
%TO.N,GND*%
X227125000Y-69445000D03*
%TO.P,J6,4,Pin_4_4*%
%TO.N,Net-(J6-Pin_4)*%
X224585000Y-69445000D03*
%TO.P,J6,5,Pin_5_5*%
%TO.N,Net-(J6-Pin_5)*%
X222045000Y-69445000D03*
%TO.P,J6,6,Pin_6_6*%
%TO.N,Net-(J6-Pin_6)*%
X219505000Y-69445000D03*
%TO.P,J6,7,Pin_7_7*%
%TO.N,Net-(J6-Pin_7)*%
X216965000Y-69445000D03*
%TO.P,J6,8,Pin_8_8*%
%TO.N,GND*%
X214425000Y-69445000D03*
%TD*%
D17*
%TO.P,C1,1*%
%TO.N,GND*%
X181790000Y-118030000D03*
D14*
%TO.P,C1,2*%
%TO.N,Net-(U1-IO10)*%
X196790000Y-118030000D03*
%TD*%
D18*
%TO.P,R3,1*%
%TO.N,GND*%
X169175000Y-63500000D03*
%TO.P,R3,2*%
%TO.N,Net-(U1-IO0)*%
X169175000Y-53340000D03*
%TD*%
%TO.P,R4,1*%
%TO.N,GND*%
X159975000Y-63605000D03*
%TO.P,R4,2*%
%TO.N,Net-(U1-IO1)*%
X159975000Y-53445000D03*
%TD*%
%TO.P,R7,1*%
%TO.N,Net-(U1-IO10)*%
X194975000Y-110500000D03*
%TO.P,R7,2*%
%TO.N,SW_On*%
X205135000Y-110500000D03*
%TD*%
D15*
%TO.P,SW5,1,1_1*%
%TO.N,3v3*%
X176550000Y-42825000D03*
D16*
%TO.P,SW5,2,2_2*%
%TO.N,Net-(U1-IO2)*%
X176550000Y-45365000D03*
%TD*%
D18*
%TO.P,R5,1*%
%TO.N,GND*%
X176725000Y-63780000D03*
%TO.P,R5,2*%
%TO.N,Net-(U1-IO2)*%
X176725000Y-53620000D03*
%TD*%
D15*
%TO.P,J3,1,Pin_1_1*%
%TO.N,Net-(ESP1-GPIO48)*%
X147540000Y-68840000D03*
D16*
%TO.P,J3,2,Pin_2_2*%
%TO.N,3v3*%
X147540000Y-71380000D03*
%TO.P,J3,3,Pin_3_3*%
%TO.N,GND*%
X147540000Y-73920000D03*
%TD*%
D15*
%TO.P,J9,1,Pin_1_1*%
%TO.N,SW_On*%
X226320000Y-108610000D03*
D16*
%TO.P,J9,2,Pin_2_2*%
X228860000Y-108610000D03*
%TO.P,J9,3,Pin_3_3*%
%TO.N,GND*%
X231400000Y-108610000D03*
%TO.P,J9,4,Pin_4_4*%
%TO.N,3v3*%
X233940000Y-108610000D03*
%TD*%
D18*
%TO.P,R8,1*%
%TO.N,GND*%
X181140000Y-110525000D03*
%TO.P,R8,2*%
%TO.N,Net-(U1-IO10)*%
X191300000Y-110525000D03*
%TD*%
D16*
%TO.P,U1,1,GND_1*%
%TO.N,GND*%
X182640000Y-61260000D03*
%TO.P,U1,2,3V3_2*%
%TO.N,Net-(U1-3V3-Pad2)*%
X182640000Y-63800000D03*
%TO.P,U1,3,3V3_3*%
X182640000Y-66340000D03*
%TO.P,U1,4,IO2_4*%
%TO.N,Net-(U1-IO2)*%
X182640000Y-68880000D03*
%TO.P,U1,5,IO3_5*%
%TO.N,Net-(U1-IO3)*%
X182640000Y-71420000D03*
%TO.P,U1,6,GND_6*%
%TO.N,GND*%
X182640000Y-73960000D03*
%TO.P,U1,7,RST_7*%
%TO.N,unconnected-(U1-RST-Pad7)*%
X182640000Y-76500000D03*
%TO.P,U1,8,GND_8*%
%TO.N,GND*%
X182640000Y-79040000D03*
%TO.P,U1,9,IO0_9*%
%TO.N,Net-(U1-IO0)*%
X182640000Y-81580000D03*
%TO.P,U1,10,IO1_10*%
%TO.N,Net-(U1-IO1)*%
X182640000Y-84120000D03*
%TO.P,U1,11,IO10_11*%
%TO.N,Net-(U1-IO10)*%
X182640000Y-86660000D03*
%TO.P,U1,12,GND_12*%
%TO.N,GND*%
X182640000Y-89200000D03*
%TO.P,U1,13,5V_13*%
%TO.N,5v*%
X182640000Y-91740000D03*
%TO.P,U1,14,5V_14*%
X182640000Y-94280000D03*
%TO.P,U1,15,GND_15*%
%TO.N,GND*%
X182640000Y-96820000D03*
%TO.P,U1,16,GND_16*%
X205500000Y-61260000D03*
%TO.P,U1,17,IO19_17*%
%TO.N,Net-(J8-Pin_3)*%
X205500000Y-63800000D03*
%TO.P,U1,18,IO18_18*%
%TO.N,Net-(J8-Pin_4)*%
X205500000Y-66340000D03*
%TO.P,U1,19,GND_19*%
%TO.N,GND*%
X205500000Y-68880000D03*
%TO.P,U1,20,IO4_20*%
%TO.N,Net-(J7-Pin_7)*%
X205500000Y-71420000D03*
%TO.P,U1,21,IO5_21*%
%TO.N,Net-(J7-Pin_6)*%
X205500000Y-73960000D03*
%TO.P,U1,22,IO6_22*%
%TO.N,Net-(J7-Pin_4)*%
X205500000Y-76500000D03*
%TO.P,U1,23,IO7_23*%
%TO.N,Net-(J7-Pin_3)*%
X205500000Y-79040000D03*
%TO.P,U1,24,GND_24*%
%TO.N,GND*%
X205500000Y-81580000D03*
%TO.P,U1,25,IO8_25*%
%TO.N,unconnected-(U1-IO8-Pad25)*%
X205500000Y-84120000D03*
%TO.P,U1,26,IO9_26*%
%TO.N,unconnected-(U1-IO9-Pad26)*%
X205500000Y-86660000D03*
%TO.P,U1,27,GND_27*%
%TO.N,GND*%
X205500000Y-89200000D03*
%TO.P,U1,28,RX_28*%
%TO.N,Net-(ESP1-GPIO43)*%
X205500000Y-91740000D03*
%TO.P,U1,29,TX_29*%
%TO.N,Net-(ESP1-GPIO44)*%
X205500000Y-94280000D03*
%TO.P,U1,30,GND_30*%
%TO.N,GND*%
X205500000Y-96820000D03*
%TD*%
D15*
%TO.P,J1,1,Pin_1_1*%
%TO.N,3v3*%
X124990000Y-113030000D03*
D16*
%TO.P,J1,2,Pin_2_2*%
%TO.N,unconnected-(J1-Pin_2-Pad2)*%
X127530000Y-113030000D03*
%TO.P,J1,3,Pin_3_3*%
%TO.N,unconnected-(J1-Pin_3-Pad3)*%
X130070000Y-113030000D03*
%TO.P,J1,4,Pin_4_4*%
%TO.N,unconnected-(J1-Pin_4-Pad4)*%
X132610000Y-113030000D03*
%TO.P,J1,5,Pin_5_5*%
%TO.N,unconnected-(J1-Pin_5-Pad5)*%
X135150000Y-113030000D03*
%TO.P,J1,6,Pin_6_6*%
%TO.N,unconnected-(J1-Pin_6-Pad6)*%
X137690000Y-113030000D03*
%TO.P,J1,7,Pin_7_7*%
%TO.N,unconnected-(J1-Pin_7-Pad7)*%
X140230000Y-113030000D03*
%TO.P,J1,8,Pin_8_8*%
%TO.N,unconnected-(J1-Pin_8-Pad8)*%
X142770000Y-113030000D03*
%TO.P,J1,9,Pin_9_9*%
%TO.N,unconnected-(J1-Pin_9-Pad9)*%
X145310000Y-113030000D03*
%TO.P,J1,10,Pin_10_10*%
%TO.N,unconnected-(J1-Pin_10-Pad10)*%
X147850000Y-113030000D03*
%TO.P,J1,11,Pin_11_11*%
%TO.N,unconnected-(J1-Pin_11-Pad11)*%
X150390000Y-113030000D03*
%TO.P,J1,12,Pin_12_12*%
%TO.N,unconnected-(J1-Pin_12-Pad12)*%
X152930000Y-113030000D03*
%TO.P,J1,13,Pin_13_13*%
%TO.N,unconnected-(J1-Pin_13-Pad13)*%
X155470000Y-113030000D03*
%TO.P,J1,14,Pin_14_14*%
%TO.N,unconnected-(J1-Pin_14-Pad14)*%
X158010000Y-113030000D03*
%TO.P,J1,15,Pin_15_15*%
%TO.N,unconnected-(J1-Pin_15-Pad15)*%
X160550000Y-113030000D03*
%TO.P,J1,16,Pin_16_16*%
%TO.N,unconnected-(J1-Pin_16-Pad16)*%
X163090000Y-113030000D03*
%TO.P,J1,17,Pin_17_17*%
%TO.N,unconnected-(J1-Pin_17-Pad17)*%
X165630000Y-113030000D03*
%TO.P,J1,18,Pin_18_18*%
%TO.N,unconnected-(J1-Pin_18-Pad18)*%
X168170000Y-113030000D03*
%TO.P,J1,19,Pin_19_19*%
%TO.N,unconnected-(J1-Pin_19-Pad19)*%
X170710000Y-113030000D03*
%TO.P,J1,20,Pin_20_20*%
%TO.N,unconnected-(J1-Pin_20-Pad20)*%
X173250000Y-113030000D03*
%TD*%
D15*
%TO.P,SW3,1,1_1*%
%TO.N,3v3*%
X164725000Y-42820000D03*
D16*
%TO.P,SW3,2,2_2*%
%TO.N,Net-(U1-IO0)*%
X164725000Y-45360000D03*
%TD*%
D15*
%TO.P,J8,1,Pin_1_1*%
%TO.N,GND*%
X209710000Y-48260000D03*
D16*
%TO.P,J8,2,Pin_2_2*%
%TO.N,5v*%
X209710000Y-45720000D03*
%TO.P,J8,3,Pin_3_3*%
%TO.N,Net-(J8-Pin_3)*%
X209710000Y-43180000D03*
%TO.P,J8,4,Pin_4_4*%
%TO.N,Net-(J8-Pin_4)*%
X209710000Y-40640000D03*
%TD*%
D19*
%TO.P,J12,1,Pin_1_1*%
%TO.N,GND*%
X210360000Y-119630000D03*
D14*
%TO.P,J12,2,Pin_2_2*%
%TO.N,7v4*%
X210360000Y-117090000D03*
%TD*%
%TO.N,3v3*%
D20*
X152190000Y-45660000D02*
X152190000Y-45330000D01*
%TO.N,GND*%
X214345000Y-86990000D02*
X214345000Y-81540000D01*
D21*
X183630000Y-60270000D02*
X182640000Y-61260000D01*
X181140000Y-110525000D02*
X181140000Y-113920000D01*
X209710000Y-64670000D02*
X205500000Y-68880000D01*
D20*
X214345000Y-81540000D02*
X214345000Y-78080000D01*
D21*
X176725000Y-73125000D02*
X173370000Y-76480000D01*
X173370000Y-67740000D02*
X173370000Y-71950000D01*
D20*
X214345000Y-78080000D02*
X214345000Y-71650000D01*
X173370000Y-76140000D02*
X173370000Y-84930000D01*
X183630000Y-57340000D02*
X189460000Y-57340000D01*
X214345000Y-71650000D02*
X214395000Y-71600000D01*
D21*
X165025000Y-63605000D02*
X173370000Y-71950000D01*
X173370000Y-71950000D02*
X173370000Y-76480000D01*
X189460000Y-82380000D02*
X189460000Y-57340000D01*
X139510000Y-57070000D02*
X139510000Y-70050000D01*
D20*
X229030000Y-119040000D02*
X231400000Y-116670000D01*
X222540000Y-119040000D02*
X224290000Y-119040000D01*
X183630000Y-60040000D02*
X179890000Y-63780000D01*
D21*
X182640000Y-73960000D02*
X189460000Y-67140000D01*
X143390000Y-73920000D02*
X147540000Y-73920000D01*
X189460000Y-72220000D02*
X189460000Y-57340000D01*
D20*
X224290000Y-103560000D02*
X214345000Y-93615000D01*
X176725000Y-72785000D02*
X173370000Y-76140000D01*
D21*
X209710000Y-64410000D02*
X209710000Y-64670000D01*
X147540000Y-73920000D02*
X155190000Y-73920000D01*
X176725000Y-63780000D02*
X176725000Y-73125000D01*
X189460000Y-90000000D02*
X189460000Y-57340000D01*
X159975000Y-63605000D02*
X165025000Y-63605000D01*
X182640000Y-89200000D02*
X189460000Y-82380000D01*
X173370000Y-78560000D02*
X173370000Y-81530000D01*
D20*
X222855000Y-120475000D02*
X211467500Y-120475000D01*
D21*
X180120000Y-63780000D02*
X182640000Y-61260000D01*
D20*
X189460000Y-57340000D02*
X205150000Y-57340000D01*
X181740000Y-117590000D02*
X181740000Y-114520000D01*
X214395000Y-71600000D02*
X214395000Y-71085000D01*
X209710000Y-71290000D02*
X209710000Y-52780000D01*
X214425000Y-71055000D02*
X214425000Y-69445000D01*
X202750000Y-119710000D02*
X202340000Y-120120000D01*
X181740000Y-114520000D02*
X181140000Y-113920000D01*
X224290000Y-119040000D02*
X224290000Y-103560000D01*
D21*
X212135000Y-89200000D02*
X214345000Y-86990000D01*
D20*
X211467500Y-120475000D02*
X210702500Y-119710000D01*
D21*
X211140000Y-96820000D02*
X214345000Y-93615000D01*
D20*
X205150000Y-57340000D02*
X209710000Y-52780000D01*
D21*
X162800000Y-81530000D02*
X173370000Y-81530000D01*
D20*
X179890000Y-63780000D02*
X176725000Y-63780000D01*
X224290000Y-119040000D02*
X229030000Y-119040000D01*
D21*
X205500000Y-89200000D02*
X212135000Y-89200000D01*
D20*
X227095000Y-69475000D02*
X227095000Y-75745000D01*
X183630000Y-57340000D02*
X183630000Y-60040000D01*
X227125000Y-69445000D02*
X227095000Y-69475000D01*
X184270000Y-120120000D02*
X181740000Y-117590000D01*
D21*
X179890000Y-63780000D02*
X180120000Y-63780000D01*
X169175000Y-63500000D02*
X169175000Y-63545000D01*
X126275000Y-43835000D02*
X139510000Y-57070000D01*
X139510000Y-70050000D02*
X143385000Y-73925000D01*
X155190000Y-73920000D02*
X162800000Y-81530000D01*
X143385000Y-73925000D02*
X143390000Y-73920000D01*
D20*
X176725000Y-63780000D02*
X176725000Y-72785000D01*
D21*
X205500000Y-96820000D02*
X211140000Y-96820000D01*
D20*
X231400000Y-116670000D02*
X231400000Y-108610000D01*
D21*
X209710000Y-57050000D02*
X205500000Y-61260000D01*
D20*
X224290000Y-119040000D02*
X222855000Y-120475000D01*
D21*
X214305000Y-81580000D02*
X214345000Y-81540000D01*
X169175000Y-63545000D02*
X173370000Y-67740000D01*
X182640000Y-96820000D02*
X189460000Y-90000000D01*
D20*
X217030000Y-108540000D02*
X217030000Y-113530000D01*
D21*
X183630000Y-57340000D02*
X183630000Y-60270000D01*
D20*
X217030000Y-113530000D02*
X222540000Y-119040000D01*
X173370000Y-84930000D02*
X173370000Y-81530000D01*
X227095000Y-75745000D02*
X224760000Y-78080000D01*
X209710000Y-52780000D02*
X209710000Y-48260000D01*
X214395000Y-71085000D02*
X214425000Y-71055000D01*
X224760000Y-78080000D02*
X214345000Y-78080000D01*
X210020000Y-71600000D02*
X209710000Y-71290000D01*
X214345000Y-93615000D02*
X214345000Y-86990000D01*
X210702500Y-119710000D02*
X202750000Y-119710000D01*
D21*
X173370000Y-76480000D02*
X173370000Y-78560000D01*
D20*
X202340000Y-120120000D02*
X184270000Y-120120000D01*
D21*
X182640000Y-79040000D02*
X189460000Y-72220000D01*
D20*
X214395000Y-71600000D02*
X210020000Y-71600000D01*
D21*
X189460000Y-67140000D02*
X189460000Y-57340000D01*
%TO.N,Net-(J2-Pin_19)*%
X194950000Y-67250000D02*
X198140000Y-64060000D01*
X127650000Y-84930000D02*
X131050000Y-88330000D01*
X194950000Y-97110000D02*
X194950000Y-67250000D01*
X165030000Y-99630000D02*
X192430000Y-99630000D01*
X131050000Y-92830000D02*
X158230000Y-92830000D01*
X192430000Y-99630000D02*
X194950000Y-97110000D01*
X131050000Y-88330000D02*
X131050000Y-92830000D01*
X158230000Y-92830000D02*
X165030000Y-99630000D01*
%TO.N,Net-(J2-Pin_20)*%
X194750000Y-101540000D02*
X197400000Y-98890000D01*
X129540000Y-95510000D02*
X157340000Y-95510000D01*
X129430000Y-95400000D02*
X129540000Y-95510000D01*
X129430000Y-89380000D02*
X129430000Y-95400000D01*
X197400000Y-68550000D02*
X199510000Y-66440000D01*
X199510000Y-66440000D02*
X206170000Y-66440000D01*
X163370000Y-101540000D02*
X194750000Y-101540000D01*
X125110000Y-85060000D02*
X129430000Y-89380000D01*
X197400000Y-98890000D02*
X197400000Y-68550000D01*
X157340000Y-95510000D02*
X163370000Y-101540000D01*
X125110000Y-84930000D02*
X125110000Y-85060000D01*
%TO.N,Net-(J7-Pin_4)*%
X214480000Y-76500000D02*
X214610000Y-76370000D01*
X205500000Y-76500000D02*
X214480000Y-76500000D01*
%TO.N,Net-(J8-Pin_3)*%
X198390000Y-63870000D02*
X205430000Y-63870000D01*
X205430000Y-63870000D02*
X205500000Y-63800000D01*
%TD*%
M02*
