%TF.GenerationSoftware,KiCad,Pcbnew,10.0.1*%
%TF.CreationDate,2026-06-10T01:42:09+06:00*%
%TF.ProjectId,Tokipanda updated_pcb,546f6b69-7061-46e6-9461-207570646174,rev?*%
%TF.SameCoordinates,Original*%
%TF.FileFunction,Plated,1,2,PTH,Drill*%
%TF.FilePolarity,Positive*%
%FSLAX46Y46*%
G04 Gerber Fmt 4.6, Leading zero omitted, Abs format (unit mm)*
G04 Created by KiCad (PCBNEW 10.0.1) date 2026-06-10 01:42:09*
%MOMM*%
%LPD*%
G01*
G04 APERTURE LIST*
%TA.AperFunction,ComponentDrill*%
%ADD10C,0.800000*%
%TD*%
%TA.AperFunction,ComponentDrill*%
%ADD11C,1.000000*%
%TD*%
%TA.AperFunction,ComponentDrill*%
%ADD12C,1.200000*%
%TD*%
G04 APERTURE END LIST*
D10*
%TO.C,R4*%
X159975000Y-53445000D03*
X159975000Y-63605000D03*
%TO.C,R3*%
X169175000Y-53340000D03*
X169175000Y-63500000D03*
%TO.C,R5*%
X176725000Y-53620000D03*
X176725000Y-63780000D03*
%TO.C,R8*%
X181140000Y-110525000D03*
%TO.C,R6*%
X183630000Y-47180000D03*
X183630000Y-57340000D03*
%TO.C,R8*%
X191300000Y-110525000D03*
%TO.C,R7*%
X194975000Y-110500000D03*
X205135000Y-110500000D03*
D11*
%TO.C,J1*%
X124990000Y-113030000D03*
%TO.C,J2*%
X125110000Y-84930000D03*
%TO.C,J5*%
X126275000Y-41295000D03*
X126275000Y-43835000D03*
X126275000Y-46375000D03*
X126275000Y-48915000D03*
X126275000Y-51455000D03*
X126275000Y-53995000D03*
X126275000Y-56535000D03*
%TO.C,J1*%
X127530000Y-113030000D03*
%TO.C,J2*%
X127650000Y-84930000D03*
%TO.C,J1*%
X130070000Y-113030000D03*
%TO.C,J2*%
X130190000Y-84930000D03*
%TO.C,J1*%
X132610000Y-113030000D03*
%TO.C,J2*%
X132730000Y-84930000D03*
%TO.C,J1*%
X135150000Y-113030000D03*
%TO.C,J2*%
X135270000Y-84930000D03*
%TO.C,J1*%
X137690000Y-113030000D03*
%TO.C,J2*%
X137810000Y-84930000D03*
%TO.C,J1*%
X140230000Y-113030000D03*
%TO.C,J2*%
X140350000Y-84930000D03*
%TO.C,J1*%
X142770000Y-113030000D03*
%TO.C,J2*%
X142890000Y-84930000D03*
%TO.C,J1*%
X145310000Y-113030000D03*
%TO.C,J2*%
X145430000Y-84930000D03*
%TO.C,J3*%
X147540000Y-68840000D03*
X147540000Y-71380000D03*
X147540000Y-73920000D03*
%TO.C,J1*%
X147850000Y-113030000D03*
%TO.C,J2*%
X147970000Y-84930000D03*
%TO.C,J1*%
X150390000Y-113030000D03*
%TO.C,J2*%
X150510000Y-84930000D03*
%TO.C,SW4*%
X152170000Y-45740000D03*
X152170000Y-48280000D03*
%TO.C,J1*%
X152930000Y-113030000D03*
%TO.C,J2*%
X153050000Y-84930000D03*
%TO.C,J4*%
X155190000Y-68840000D03*
X155190000Y-71380000D03*
X155190000Y-73920000D03*
%TO.C,J1*%
X155470000Y-113030000D03*
%TO.C,J2*%
X155590000Y-84930000D03*
%TO.C,J1*%
X158010000Y-113030000D03*
%TO.C,J2*%
X158130000Y-84930000D03*
%TO.C,J1*%
X160550000Y-113030000D03*
%TO.C,J2*%
X160670000Y-84930000D03*
%TO.C,J1*%
X163090000Y-113030000D03*
%TO.C,J2*%
X163210000Y-84930000D03*
%TO.C,SW3*%
X164725000Y-42820000D03*
X164725000Y-45360000D03*
%TO.C,J1*%
X165630000Y-113030000D03*
%TO.C,J2*%
X165750000Y-84930000D03*
%TO.C,J1*%
X168170000Y-113030000D03*
%TO.C,J2*%
X168290000Y-84930000D03*
%TO.C,J1*%
X170710000Y-113030000D03*
%TO.C,J2*%
X170830000Y-84930000D03*
%TO.C,J1*%
X173250000Y-113030000D03*
%TO.C,J2*%
X173370000Y-84930000D03*
%TO.C,SW5*%
X176550000Y-42825000D03*
X176550000Y-45365000D03*
%TO.C,C1*%
X181790000Y-118030000D03*
%TO.C,U1*%
X182640000Y-61260000D03*
X182640000Y-63800000D03*
X182640000Y-66340000D03*
X182640000Y-68880000D03*
X182640000Y-71420000D03*
X182640000Y-73960000D03*
X182640000Y-76500000D03*
X182640000Y-79040000D03*
X182640000Y-81580000D03*
X182640000Y-84120000D03*
X182640000Y-86660000D03*
X182640000Y-89200000D03*
X182640000Y-91740000D03*
X182640000Y-94280000D03*
X182640000Y-96820000D03*
%TO.C,SW6*%
X191660000Y-43060000D03*
X191660000Y-45600000D03*
%TO.C,C1*%
X196790000Y-118030000D03*
%TO.C,U1*%
X205500000Y-61260000D03*
X205500000Y-63800000D03*
X205500000Y-66340000D03*
X205500000Y-68880000D03*
X205500000Y-71420000D03*
X205500000Y-73960000D03*
X205500000Y-76500000D03*
X205500000Y-79040000D03*
X205500000Y-81580000D03*
X205500000Y-84120000D03*
X205500000Y-86660000D03*
X205500000Y-89200000D03*
X205500000Y-91740000D03*
X205500000Y-94280000D03*
X205500000Y-96820000D03*
%TO.C,J8*%
X209710000Y-40640000D03*
X209710000Y-43180000D03*
X209710000Y-45720000D03*
X209710000Y-48260000D03*
%TO.C,J13*%
X211950000Y-108540000D03*
%TO.C,J7*%
X214375000Y-84835000D03*
%TO.C,J6*%
X214425000Y-69445000D03*
%TO.C,J13*%
X214490000Y-108540000D03*
%TO.C,J7*%
X216915000Y-84835000D03*
%TO.C,J6*%
X216965000Y-69445000D03*
%TO.C,J13*%
X217030000Y-108540000D03*
%TO.C,J7*%
X219455000Y-84835000D03*
%TO.C,J6*%
X219505000Y-69445000D03*
%TO.C,J13*%
X219570000Y-108540000D03*
%TO.C,J7*%
X221995000Y-84835000D03*
%TO.C,J6*%
X222045000Y-69445000D03*
%TO.C,J7*%
X224535000Y-84835000D03*
%TO.C,J6*%
X224585000Y-69445000D03*
%TO.C,J9*%
X226320000Y-108610000D03*
%TO.C,J7*%
X227075000Y-84835000D03*
%TO.C,J6*%
X227125000Y-69445000D03*
%TO.C,J9*%
X228860000Y-108610000D03*
%TO.C,J7*%
X229615000Y-84835000D03*
%TO.C,J6*%
X229665000Y-69445000D03*
%TO.C,J9*%
X231400000Y-108610000D03*
%TO.C,J7*%
X232155000Y-84835000D03*
%TO.C,J6*%
X232205000Y-69445000D03*
%TO.C,J9*%
X233940000Y-108610000D03*
D12*
%TO.C,J12*%
X210360000Y-117090000D03*
X210360000Y-119630000D03*
%TO.C,M2*%
X214935000Y-59742500D03*
X217475000Y-59742500D03*
%TO.C,M1*%
X224140000Y-59410000D03*
X226680000Y-59410000D03*
M02*
