%TF.GenerationSoftware,KiCad,Pcbnew,10.0.1*%
%TF.CreationDate,2026-06-10T01:41:53+06:00*%
%TF.ProjectId,Tokipanda updated_pcb,546f6b69-7061-46e6-9461-207570646174,rev?*%
%TF.SameCoordinates,Original*%
%TF.FileFunction,Legend,Top*%
%TF.FilePolarity,Positive*%
%FSLAX46Y46*%
G04 Gerber Fmt 4.6, Leading zero omitted, Abs format (unit mm)*
G04 Created by KiCad (PCBNEW 10.0.1) date 2026-06-10 01:41:53*
%MOMM*%
%LPD*%
G01*
G04 APERTURE LIST*
%ADD10C,0.150000*%
%ADD11C,0.300000*%
%ADD12C,0.400000*%
%ADD13C,0.100000*%
%ADD14C,0.120000*%
G04 APERTURE END LIST*
D10*
X177002200Y-166007200D02*
X285002200Y-166007200D01*
X285002200Y-198007200D01*
X177002200Y-198007200D01*
X177002200Y-166007200D01*
X10000000Y-10000000D02*
X287002200Y-10000000D01*
X287002200Y-200007200D01*
X10000000Y-200007200D01*
X10000000Y-10000000D01*
X12000000Y-12000000D02*
X285002200Y-12000000D01*
X285002200Y-198007200D01*
X12000000Y-198007200D01*
X12000000Y-12000000D01*
X60000000Y-12000000D02*
X60000000Y-10000000D01*
X110000000Y-12000000D02*
X110000000Y-10000000D01*
X160000000Y-12000000D02*
X160000000Y-10000000D01*
X210000000Y-12000000D02*
X210000000Y-10000000D01*
X260000000Y-12000000D02*
X260000000Y-10000000D01*
X36089160Y-11593604D02*
X35346303Y-11593604D01*
X35717731Y-11593604D02*
X35717731Y-10293604D01*
X35717731Y-10293604D02*
X35593922Y-10479319D01*
X35593922Y-10479319D02*
X35470112Y-10603128D01*
X35470112Y-10603128D02*
X35346303Y-10665033D01*
X85346303Y-10417414D02*
X85408207Y-10355509D01*
X85408207Y-10355509D02*
X85532017Y-10293604D01*
X85532017Y-10293604D02*
X85841541Y-10293604D01*
X85841541Y-10293604D02*
X85965350Y-10355509D01*
X85965350Y-10355509D02*
X86027255Y-10417414D01*
X86027255Y-10417414D02*
X86089160Y-10541223D01*
X86089160Y-10541223D02*
X86089160Y-10665033D01*
X86089160Y-10665033D02*
X86027255Y-10850747D01*
X86027255Y-10850747D02*
X85284398Y-11593604D01*
X85284398Y-11593604D02*
X86089160Y-11593604D01*
X135284398Y-10293604D02*
X136089160Y-10293604D01*
X136089160Y-10293604D02*
X135655826Y-10788842D01*
X135655826Y-10788842D02*
X135841541Y-10788842D01*
X135841541Y-10788842D02*
X135965350Y-10850747D01*
X135965350Y-10850747D02*
X136027255Y-10912652D01*
X136027255Y-10912652D02*
X136089160Y-11036461D01*
X136089160Y-11036461D02*
X136089160Y-11345985D01*
X136089160Y-11345985D02*
X136027255Y-11469795D01*
X136027255Y-11469795D02*
X135965350Y-11531700D01*
X135965350Y-11531700D02*
X135841541Y-11593604D01*
X135841541Y-11593604D02*
X135470112Y-11593604D01*
X135470112Y-11593604D02*
X135346303Y-11531700D01*
X135346303Y-11531700D02*
X135284398Y-11469795D01*
X185965350Y-10726938D02*
X185965350Y-11593604D01*
X185655826Y-10231700D02*
X185346303Y-11160271D01*
X185346303Y-11160271D02*
X186151064Y-11160271D01*
X236027255Y-10293604D02*
X235408207Y-10293604D01*
X235408207Y-10293604D02*
X235346303Y-10912652D01*
X235346303Y-10912652D02*
X235408207Y-10850747D01*
X235408207Y-10850747D02*
X235532017Y-10788842D01*
X235532017Y-10788842D02*
X235841541Y-10788842D01*
X235841541Y-10788842D02*
X235965350Y-10850747D01*
X235965350Y-10850747D02*
X236027255Y-10912652D01*
X236027255Y-10912652D02*
X236089160Y-11036461D01*
X236089160Y-11036461D02*
X236089160Y-11345985D01*
X236089160Y-11345985D02*
X236027255Y-11469795D01*
X236027255Y-11469795D02*
X235965350Y-11531700D01*
X235965350Y-11531700D02*
X235841541Y-11593604D01*
X235841541Y-11593604D02*
X235532017Y-11593604D01*
X235532017Y-11593604D02*
X235408207Y-11531700D01*
X235408207Y-11531700D02*
X235346303Y-11469795D01*
X285965350Y-10293604D02*
X285717731Y-10293604D01*
X285717731Y-10293604D02*
X285593922Y-10355509D01*
X285593922Y-10355509D02*
X285532017Y-10417414D01*
X285532017Y-10417414D02*
X285408207Y-10603128D01*
X285408207Y-10603128D02*
X285346303Y-10850747D01*
X285346303Y-10850747D02*
X285346303Y-11345985D01*
X285346303Y-11345985D02*
X285408207Y-11469795D01*
X285408207Y-11469795D02*
X285470112Y-11531700D01*
X285470112Y-11531700D02*
X285593922Y-11593604D01*
X285593922Y-11593604D02*
X285841541Y-11593604D01*
X285841541Y-11593604D02*
X285965350Y-11531700D01*
X285965350Y-11531700D02*
X286027255Y-11469795D01*
X286027255Y-11469795D02*
X286089160Y-11345985D01*
X286089160Y-11345985D02*
X286089160Y-11036461D01*
X286089160Y-11036461D02*
X286027255Y-10912652D01*
X286027255Y-10912652D02*
X285965350Y-10850747D01*
X285965350Y-10850747D02*
X285841541Y-10788842D01*
X285841541Y-10788842D02*
X285593922Y-10788842D01*
X285593922Y-10788842D02*
X285470112Y-10850747D01*
X285470112Y-10850747D02*
X285408207Y-10912652D01*
X285408207Y-10912652D02*
X285346303Y-11036461D01*
X60000000Y-198007200D02*
X60000000Y-200007200D01*
X110000000Y-198007200D02*
X110000000Y-200007200D01*
X160000000Y-198007200D02*
X160000000Y-200007200D01*
X210000000Y-198007200D02*
X210000000Y-200007200D01*
X260000000Y-198007200D02*
X260000000Y-200007200D01*
X36089160Y-199600804D02*
X35346303Y-199600804D01*
X35717731Y-199600804D02*
X35717731Y-198300804D01*
X35717731Y-198300804D02*
X35593922Y-198486519D01*
X35593922Y-198486519D02*
X35470112Y-198610328D01*
X35470112Y-198610328D02*
X35346303Y-198672233D01*
X85346303Y-198424614D02*
X85408207Y-198362709D01*
X85408207Y-198362709D02*
X85532017Y-198300804D01*
X85532017Y-198300804D02*
X85841541Y-198300804D01*
X85841541Y-198300804D02*
X85965350Y-198362709D01*
X85965350Y-198362709D02*
X86027255Y-198424614D01*
X86027255Y-198424614D02*
X86089160Y-198548423D01*
X86089160Y-198548423D02*
X86089160Y-198672233D01*
X86089160Y-198672233D02*
X86027255Y-198857947D01*
X86027255Y-198857947D02*
X85284398Y-199600804D01*
X85284398Y-199600804D02*
X86089160Y-199600804D01*
X135284398Y-198300804D02*
X136089160Y-198300804D01*
X136089160Y-198300804D02*
X135655826Y-198796042D01*
X135655826Y-198796042D02*
X135841541Y-198796042D01*
X135841541Y-198796042D02*
X135965350Y-198857947D01*
X135965350Y-198857947D02*
X136027255Y-198919852D01*
X136027255Y-198919852D02*
X136089160Y-199043661D01*
X136089160Y-199043661D02*
X136089160Y-199353185D01*
X136089160Y-199353185D02*
X136027255Y-199476995D01*
X136027255Y-199476995D02*
X135965350Y-199538900D01*
X135965350Y-199538900D02*
X135841541Y-199600804D01*
X135841541Y-199600804D02*
X135470112Y-199600804D01*
X135470112Y-199600804D02*
X135346303Y-199538900D01*
X135346303Y-199538900D02*
X135284398Y-199476995D01*
X185965350Y-198734138D02*
X185965350Y-199600804D01*
X185655826Y-198238900D02*
X185346303Y-199167471D01*
X185346303Y-199167471D02*
X186151064Y-199167471D01*
X236027255Y-198300804D02*
X235408207Y-198300804D01*
X235408207Y-198300804D02*
X235346303Y-198919852D01*
X235346303Y-198919852D02*
X235408207Y-198857947D01*
X235408207Y-198857947D02*
X235532017Y-198796042D01*
X235532017Y-198796042D02*
X235841541Y-198796042D01*
X235841541Y-198796042D02*
X235965350Y-198857947D01*
X235965350Y-198857947D02*
X236027255Y-198919852D01*
X236027255Y-198919852D02*
X236089160Y-199043661D01*
X236089160Y-199043661D02*
X236089160Y-199353185D01*
X236089160Y-199353185D02*
X236027255Y-199476995D01*
X236027255Y-199476995D02*
X235965350Y-199538900D01*
X235965350Y-199538900D02*
X235841541Y-199600804D01*
X235841541Y-199600804D02*
X235532017Y-199600804D01*
X235532017Y-199600804D02*
X235408207Y-199538900D01*
X235408207Y-199538900D02*
X235346303Y-199476995D01*
X285965350Y-198300804D02*
X285717731Y-198300804D01*
X285717731Y-198300804D02*
X285593922Y-198362709D01*
X285593922Y-198362709D02*
X285532017Y-198424614D01*
X285532017Y-198424614D02*
X285408207Y-198610328D01*
X285408207Y-198610328D02*
X285346303Y-198857947D01*
X285346303Y-198857947D02*
X285346303Y-199353185D01*
X285346303Y-199353185D02*
X285408207Y-199476995D01*
X285408207Y-199476995D02*
X285470112Y-199538900D01*
X285470112Y-199538900D02*
X285593922Y-199600804D01*
X285593922Y-199600804D02*
X285841541Y-199600804D01*
X285841541Y-199600804D02*
X285965350Y-199538900D01*
X285965350Y-199538900D02*
X286027255Y-199476995D01*
X286027255Y-199476995D02*
X286089160Y-199353185D01*
X286089160Y-199353185D02*
X286089160Y-199043661D01*
X286089160Y-199043661D02*
X286027255Y-198919852D01*
X286027255Y-198919852D02*
X285965350Y-198857947D01*
X285965350Y-198857947D02*
X285841541Y-198796042D01*
X285841541Y-198796042D02*
X285593922Y-198796042D01*
X285593922Y-198796042D02*
X285470112Y-198857947D01*
X285470112Y-198857947D02*
X285408207Y-198919852D01*
X285408207Y-198919852D02*
X285346303Y-199043661D01*
X10000000Y-60000000D02*
X12000000Y-60000000D01*
X10000000Y-110000000D02*
X12000000Y-110000000D01*
X10000000Y-160000000D02*
X12000000Y-160000000D01*
X10690476Y-35222176D02*
X11309523Y-35222176D01*
X10566666Y-35593604D02*
X10999999Y-34293604D01*
X10999999Y-34293604D02*
X11433333Y-35593604D01*
X11092857Y-84912652D02*
X11278571Y-84974557D01*
X11278571Y-84974557D02*
X11340476Y-85036461D01*
X11340476Y-85036461D02*
X11402380Y-85160271D01*
X11402380Y-85160271D02*
X11402380Y-85345985D01*
X11402380Y-85345985D02*
X11340476Y-85469795D01*
X11340476Y-85469795D02*
X11278571Y-85531700D01*
X11278571Y-85531700D02*
X11154761Y-85593604D01*
X11154761Y-85593604D02*
X10659523Y-85593604D01*
X10659523Y-85593604D02*
X10659523Y-84293604D01*
X10659523Y-84293604D02*
X11092857Y-84293604D01*
X11092857Y-84293604D02*
X11216666Y-84355509D01*
X11216666Y-84355509D02*
X11278571Y-84417414D01*
X11278571Y-84417414D02*
X11340476Y-84541223D01*
X11340476Y-84541223D02*
X11340476Y-84665033D01*
X11340476Y-84665033D02*
X11278571Y-84788842D01*
X11278571Y-84788842D02*
X11216666Y-84850747D01*
X11216666Y-84850747D02*
X11092857Y-84912652D01*
X11092857Y-84912652D02*
X10659523Y-84912652D01*
X11402380Y-135469795D02*
X11340476Y-135531700D01*
X11340476Y-135531700D02*
X11154761Y-135593604D01*
X11154761Y-135593604D02*
X11030952Y-135593604D01*
X11030952Y-135593604D02*
X10845238Y-135531700D01*
X10845238Y-135531700D02*
X10721428Y-135407890D01*
X10721428Y-135407890D02*
X10659523Y-135284080D01*
X10659523Y-135284080D02*
X10597619Y-135036461D01*
X10597619Y-135036461D02*
X10597619Y-134850747D01*
X10597619Y-134850747D02*
X10659523Y-134603128D01*
X10659523Y-134603128D02*
X10721428Y-134479319D01*
X10721428Y-134479319D02*
X10845238Y-134355509D01*
X10845238Y-134355509D02*
X11030952Y-134293604D01*
X11030952Y-134293604D02*
X11154761Y-134293604D01*
X11154761Y-134293604D02*
X11340476Y-134355509D01*
X11340476Y-134355509D02*
X11402380Y-134417414D01*
X10659523Y-185593604D02*
X10659523Y-184293604D01*
X10659523Y-184293604D02*
X10969047Y-184293604D01*
X10969047Y-184293604D02*
X11154761Y-184355509D01*
X11154761Y-184355509D02*
X11278571Y-184479319D01*
X11278571Y-184479319D02*
X11340476Y-184603128D01*
X11340476Y-184603128D02*
X11402380Y-184850747D01*
X11402380Y-184850747D02*
X11402380Y-185036461D01*
X11402380Y-185036461D02*
X11340476Y-185284080D01*
X11340476Y-185284080D02*
X11278571Y-185407890D01*
X11278571Y-185407890D02*
X11154761Y-185531700D01*
X11154761Y-185531700D02*
X10969047Y-185593604D01*
X10969047Y-185593604D02*
X10659523Y-185593604D01*
X287002200Y-60000000D02*
X285002200Y-60000000D01*
X287002200Y-110000000D02*
X285002200Y-110000000D01*
X287002200Y-160000000D02*
X285002200Y-160000000D01*
X285692676Y-35222176D02*
X286311723Y-35222176D01*
X285568866Y-35593604D02*
X286002199Y-34293604D01*
X286002199Y-34293604D02*
X286435533Y-35593604D01*
X286095057Y-84912652D02*
X286280771Y-84974557D01*
X286280771Y-84974557D02*
X286342676Y-85036461D01*
X286342676Y-85036461D02*
X286404580Y-85160271D01*
X286404580Y-85160271D02*
X286404580Y-85345985D01*
X286404580Y-85345985D02*
X286342676Y-85469795D01*
X286342676Y-85469795D02*
X286280771Y-85531700D01*
X286280771Y-85531700D02*
X286156961Y-85593604D01*
X286156961Y-85593604D02*
X285661723Y-85593604D01*
X285661723Y-85593604D02*
X285661723Y-84293604D01*
X285661723Y-84293604D02*
X286095057Y-84293604D01*
X286095057Y-84293604D02*
X286218866Y-84355509D01*
X286218866Y-84355509D02*
X286280771Y-84417414D01*
X286280771Y-84417414D02*
X286342676Y-84541223D01*
X286342676Y-84541223D02*
X286342676Y-84665033D01*
X286342676Y-84665033D02*
X286280771Y-84788842D01*
X286280771Y-84788842D02*
X286218866Y-84850747D01*
X286218866Y-84850747D02*
X286095057Y-84912652D01*
X286095057Y-84912652D02*
X285661723Y-84912652D01*
X286404580Y-135469795D02*
X286342676Y-135531700D01*
X286342676Y-135531700D02*
X286156961Y-135593604D01*
X286156961Y-135593604D02*
X286033152Y-135593604D01*
X286033152Y-135593604D02*
X285847438Y-135531700D01*
X285847438Y-135531700D02*
X285723628Y-135407890D01*
X285723628Y-135407890D02*
X285661723Y-135284080D01*
X285661723Y-135284080D02*
X285599819Y-135036461D01*
X285599819Y-135036461D02*
X285599819Y-134850747D01*
X285599819Y-134850747D02*
X285661723Y-134603128D01*
X285661723Y-134603128D02*
X285723628Y-134479319D01*
X285723628Y-134479319D02*
X285847438Y-134355509D01*
X285847438Y-134355509D02*
X286033152Y-134293604D01*
X286033152Y-134293604D02*
X286156961Y-134293604D01*
X286156961Y-134293604D02*
X286342676Y-134355509D01*
X286342676Y-134355509D02*
X286404580Y-134417414D01*
X285661723Y-185593604D02*
X285661723Y-184293604D01*
X285661723Y-184293604D02*
X285971247Y-184293604D01*
X285971247Y-184293604D02*
X286156961Y-184355509D01*
X286156961Y-184355509D02*
X286280771Y-184479319D01*
X286280771Y-184479319D02*
X286342676Y-184603128D01*
X286342676Y-184603128D02*
X286404580Y-184850747D01*
X286404580Y-184850747D02*
X286404580Y-185036461D01*
X286404580Y-185036461D02*
X286342676Y-185284080D01*
X286342676Y-185284080D02*
X286280771Y-185407890D01*
X286280771Y-185407890D02*
X286156961Y-185531700D01*
X286156961Y-185531700D02*
X285971247Y-185593604D01*
X285971247Y-185593604D02*
X285661723Y-185593604D01*
X200458026Y-193793328D02*
X200458026Y-192293328D01*
X200458026Y-192293328D02*
X200815169Y-192293328D01*
X200815169Y-192293328D02*
X201029455Y-192364757D01*
X201029455Y-192364757D02*
X201172312Y-192507614D01*
X201172312Y-192507614D02*
X201243741Y-192650471D01*
X201243741Y-192650471D02*
X201315169Y-192936185D01*
X201315169Y-192936185D02*
X201315169Y-193150471D01*
X201315169Y-193150471D02*
X201243741Y-193436185D01*
X201243741Y-193436185D02*
X201172312Y-193579042D01*
X201172312Y-193579042D02*
X201029455Y-193721900D01*
X201029455Y-193721900D02*
X200815169Y-193793328D01*
X200815169Y-193793328D02*
X200458026Y-193793328D01*
X202600884Y-193793328D02*
X202600884Y-193007614D01*
X202600884Y-193007614D02*
X202529455Y-192864757D01*
X202529455Y-192864757D02*
X202386598Y-192793328D01*
X202386598Y-192793328D02*
X202100884Y-192793328D01*
X202100884Y-192793328D02*
X201958026Y-192864757D01*
X202600884Y-193721900D02*
X202458026Y-193793328D01*
X202458026Y-193793328D02*
X202100884Y-193793328D01*
X202100884Y-193793328D02*
X201958026Y-193721900D01*
X201958026Y-193721900D02*
X201886598Y-193579042D01*
X201886598Y-193579042D02*
X201886598Y-193436185D01*
X201886598Y-193436185D02*
X201958026Y-193293328D01*
X201958026Y-193293328D02*
X202100884Y-193221900D01*
X202100884Y-193221900D02*
X202458026Y-193221900D01*
X202458026Y-193221900D02*
X202600884Y-193150471D01*
X203100884Y-192793328D02*
X203672312Y-192793328D01*
X203315169Y-192293328D02*
X203315169Y-193579042D01*
X203315169Y-193579042D02*
X203386598Y-193721900D01*
X203386598Y-193721900D02*
X203529455Y-193793328D01*
X203529455Y-193793328D02*
X203672312Y-193793328D01*
X204743741Y-193721900D02*
X204600884Y-193793328D01*
X204600884Y-193793328D02*
X204315170Y-193793328D01*
X204315170Y-193793328D02*
X204172312Y-193721900D01*
X204172312Y-193721900D02*
X204100884Y-193579042D01*
X204100884Y-193579042D02*
X204100884Y-193007614D01*
X204100884Y-193007614D02*
X204172312Y-192864757D01*
X204172312Y-192864757D02*
X204315170Y-192793328D01*
X204315170Y-192793328D02*
X204600884Y-192793328D01*
X204600884Y-192793328D02*
X204743741Y-192864757D01*
X204743741Y-192864757D02*
X204815170Y-193007614D01*
X204815170Y-193007614D02*
X204815170Y-193150471D01*
X204815170Y-193150471D02*
X204100884Y-193293328D01*
X205458026Y-193650471D02*
X205529455Y-193721900D01*
X205529455Y-193721900D02*
X205458026Y-193793328D01*
X205458026Y-193793328D02*
X205386598Y-193721900D01*
X205386598Y-193721900D02*
X205458026Y-193650471D01*
X205458026Y-193650471D02*
X205458026Y-193793328D01*
X205458026Y-192864757D02*
X205529455Y-192936185D01*
X205529455Y-192936185D02*
X205458026Y-193007614D01*
X205458026Y-193007614D02*
X205386598Y-192936185D01*
X205386598Y-192936185D02*
X205458026Y-192864757D01*
X205458026Y-192864757D02*
X205458026Y-193007614D01*
X177002200Y-194507200D02*
X285002200Y-194507200D01*
X178458026Y-196593328D02*
X178458026Y-195093328D01*
X179315169Y-196593328D02*
X178672312Y-195736185D01*
X179315169Y-195093328D02*
X178458026Y-195950471D01*
X179958026Y-196593328D02*
X179958026Y-195593328D01*
X179958026Y-195093328D02*
X179886598Y-195164757D01*
X179886598Y-195164757D02*
X179958026Y-195236185D01*
X179958026Y-195236185D02*
X180029455Y-195164757D01*
X180029455Y-195164757D02*
X179958026Y-195093328D01*
X179958026Y-195093328D02*
X179958026Y-195236185D01*
X181529455Y-196450471D02*
X181458027Y-196521900D01*
X181458027Y-196521900D02*
X181243741Y-196593328D01*
X181243741Y-196593328D02*
X181100884Y-196593328D01*
X181100884Y-196593328D02*
X180886598Y-196521900D01*
X180886598Y-196521900D02*
X180743741Y-196379042D01*
X180743741Y-196379042D02*
X180672312Y-196236185D01*
X180672312Y-196236185D02*
X180600884Y-195950471D01*
X180600884Y-195950471D02*
X180600884Y-195736185D01*
X180600884Y-195736185D02*
X180672312Y-195450471D01*
X180672312Y-195450471D02*
X180743741Y-195307614D01*
X180743741Y-195307614D02*
X180886598Y-195164757D01*
X180886598Y-195164757D02*
X181100884Y-195093328D01*
X181100884Y-195093328D02*
X181243741Y-195093328D01*
X181243741Y-195093328D02*
X181458027Y-195164757D01*
X181458027Y-195164757D02*
X181529455Y-195236185D01*
X182815170Y-196593328D02*
X182815170Y-195807614D01*
X182815170Y-195807614D02*
X182743741Y-195664757D01*
X182743741Y-195664757D02*
X182600884Y-195593328D01*
X182600884Y-195593328D02*
X182315170Y-195593328D01*
X182315170Y-195593328D02*
X182172312Y-195664757D01*
X182815170Y-196521900D02*
X182672312Y-196593328D01*
X182672312Y-196593328D02*
X182315170Y-196593328D01*
X182315170Y-196593328D02*
X182172312Y-196521900D01*
X182172312Y-196521900D02*
X182100884Y-196379042D01*
X182100884Y-196379042D02*
X182100884Y-196236185D01*
X182100884Y-196236185D02*
X182172312Y-196093328D01*
X182172312Y-196093328D02*
X182315170Y-196021900D01*
X182315170Y-196021900D02*
X182672312Y-196021900D01*
X182672312Y-196021900D02*
X182815170Y-195950471D01*
X184172313Y-196593328D02*
X184172313Y-195093328D01*
X184172313Y-196521900D02*
X184029455Y-196593328D01*
X184029455Y-196593328D02*
X183743741Y-196593328D01*
X183743741Y-196593328D02*
X183600884Y-196521900D01*
X183600884Y-196521900D02*
X183529455Y-196450471D01*
X183529455Y-196450471D02*
X183458027Y-196307614D01*
X183458027Y-196307614D02*
X183458027Y-195879042D01*
X183458027Y-195879042D02*
X183529455Y-195736185D01*
X183529455Y-195736185D02*
X183600884Y-195664757D01*
X183600884Y-195664757D02*
X183743741Y-195593328D01*
X183743741Y-195593328D02*
X184029455Y-195593328D01*
X184029455Y-195593328D02*
X184172313Y-195664757D01*
X186029455Y-195807614D02*
X186529455Y-195807614D01*
X186743741Y-196593328D02*
X186029455Y-196593328D01*
X186029455Y-196593328D02*
X186029455Y-195093328D01*
X186029455Y-195093328D02*
X186743741Y-195093328D01*
X187386598Y-196450471D02*
X187458027Y-196521900D01*
X187458027Y-196521900D02*
X187386598Y-196593328D01*
X187386598Y-196593328D02*
X187315170Y-196521900D01*
X187315170Y-196521900D02*
X187386598Y-196450471D01*
X187386598Y-196450471D02*
X187386598Y-196593328D01*
X188100884Y-196593328D02*
X188100884Y-195093328D01*
X188100884Y-195093328D02*
X188458027Y-195093328D01*
X188458027Y-195093328D02*
X188672313Y-195164757D01*
X188672313Y-195164757D02*
X188815170Y-195307614D01*
X188815170Y-195307614D02*
X188886599Y-195450471D01*
X188886599Y-195450471D02*
X188958027Y-195736185D01*
X188958027Y-195736185D02*
X188958027Y-195950471D01*
X188958027Y-195950471D02*
X188886599Y-196236185D01*
X188886599Y-196236185D02*
X188815170Y-196379042D01*
X188815170Y-196379042D02*
X188672313Y-196521900D01*
X188672313Y-196521900D02*
X188458027Y-196593328D01*
X188458027Y-196593328D02*
X188100884Y-196593328D01*
X189600884Y-196450471D02*
X189672313Y-196521900D01*
X189672313Y-196521900D02*
X189600884Y-196593328D01*
X189600884Y-196593328D02*
X189529456Y-196521900D01*
X189529456Y-196521900D02*
X189600884Y-196450471D01*
X189600884Y-196450471D02*
X189600884Y-196593328D01*
X190243742Y-196164757D02*
X190958028Y-196164757D01*
X190100885Y-196593328D02*
X190600885Y-195093328D01*
X190600885Y-195093328D02*
X191100885Y-196593328D01*
X191600884Y-196450471D02*
X191672313Y-196521900D01*
X191672313Y-196521900D02*
X191600884Y-196593328D01*
X191600884Y-196593328D02*
X191529456Y-196521900D01*
X191529456Y-196521900D02*
X191600884Y-196450471D01*
X191600884Y-196450471D02*
X191600884Y-196593328D01*
X194243742Y-196593328D02*
X193386599Y-196593328D01*
X193815170Y-196593328D02*
X193815170Y-195093328D01*
X193815170Y-195093328D02*
X193672313Y-195307614D01*
X193672313Y-195307614D02*
X193529456Y-195450471D01*
X193529456Y-195450471D02*
X193386599Y-195521900D01*
X195172313Y-195093328D02*
X195315170Y-195093328D01*
X195315170Y-195093328D02*
X195458027Y-195164757D01*
X195458027Y-195164757D02*
X195529456Y-195236185D01*
X195529456Y-195236185D02*
X195600884Y-195379042D01*
X195600884Y-195379042D02*
X195672313Y-195664757D01*
X195672313Y-195664757D02*
X195672313Y-196021900D01*
X195672313Y-196021900D02*
X195600884Y-196307614D01*
X195600884Y-196307614D02*
X195529456Y-196450471D01*
X195529456Y-196450471D02*
X195458027Y-196521900D01*
X195458027Y-196521900D02*
X195315170Y-196593328D01*
X195315170Y-196593328D02*
X195172313Y-196593328D01*
X195172313Y-196593328D02*
X195029456Y-196521900D01*
X195029456Y-196521900D02*
X194958027Y-196450471D01*
X194958027Y-196450471D02*
X194886598Y-196307614D01*
X194886598Y-196307614D02*
X194815170Y-196021900D01*
X194815170Y-196021900D02*
X194815170Y-195664757D01*
X194815170Y-195664757D02*
X194886598Y-195379042D01*
X194886598Y-195379042D02*
X194958027Y-195236185D01*
X194958027Y-195236185D02*
X195029456Y-195164757D01*
X195029456Y-195164757D02*
X195172313Y-195093328D01*
X196315169Y-196450471D02*
X196386598Y-196521900D01*
X196386598Y-196521900D02*
X196315169Y-196593328D01*
X196315169Y-196593328D02*
X196243741Y-196521900D01*
X196243741Y-196521900D02*
X196315169Y-196450471D01*
X196315169Y-196450471D02*
X196315169Y-196593328D01*
X197315170Y-195093328D02*
X197458027Y-195093328D01*
X197458027Y-195093328D02*
X197600884Y-195164757D01*
X197600884Y-195164757D02*
X197672313Y-195236185D01*
X197672313Y-195236185D02*
X197743741Y-195379042D01*
X197743741Y-195379042D02*
X197815170Y-195664757D01*
X197815170Y-195664757D02*
X197815170Y-196021900D01*
X197815170Y-196021900D02*
X197743741Y-196307614D01*
X197743741Y-196307614D02*
X197672313Y-196450471D01*
X197672313Y-196450471D02*
X197600884Y-196521900D01*
X197600884Y-196521900D02*
X197458027Y-196593328D01*
X197458027Y-196593328D02*
X197315170Y-196593328D01*
X197315170Y-196593328D02*
X197172313Y-196521900D01*
X197172313Y-196521900D02*
X197100884Y-196450471D01*
X197100884Y-196450471D02*
X197029455Y-196307614D01*
X197029455Y-196307614D02*
X196958027Y-196021900D01*
X196958027Y-196021900D02*
X196958027Y-195664757D01*
X196958027Y-195664757D02*
X197029455Y-195379042D01*
X197029455Y-195379042D02*
X197100884Y-195236185D01*
X197100884Y-195236185D02*
X197172313Y-195164757D01*
X197172313Y-195164757D02*
X197315170Y-195093328D01*
X198458026Y-196450471D02*
X198529455Y-196521900D01*
X198529455Y-196521900D02*
X198458026Y-196593328D01*
X198458026Y-196593328D02*
X198386598Y-196521900D01*
X198386598Y-196521900D02*
X198458026Y-196450471D01*
X198458026Y-196450471D02*
X198458026Y-196593328D01*
X199958027Y-196593328D02*
X199100884Y-196593328D01*
X199529455Y-196593328D02*
X199529455Y-195093328D01*
X199529455Y-195093328D02*
X199386598Y-195307614D01*
X199386598Y-195307614D02*
X199243741Y-195450471D01*
X199243741Y-195450471D02*
X199100884Y-195521900D01*
X177002200Y-191507200D02*
X285002200Y-191507200D01*
D11*
X264413853Y-193785528D02*
X263913853Y-193071242D01*
X263556710Y-193785528D02*
X263556710Y-192285528D01*
X263556710Y-192285528D02*
X264128139Y-192285528D01*
X264128139Y-192285528D02*
X264270996Y-192356957D01*
X264270996Y-192356957D02*
X264342425Y-192428385D01*
X264342425Y-192428385D02*
X264413853Y-192571242D01*
X264413853Y-192571242D02*
X264413853Y-192785528D01*
X264413853Y-192785528D02*
X264342425Y-192928385D01*
X264342425Y-192928385D02*
X264270996Y-192999814D01*
X264270996Y-192999814D02*
X264128139Y-193071242D01*
X264128139Y-193071242D02*
X263556710Y-193071242D01*
X265628139Y-193714100D02*
X265485282Y-193785528D01*
X265485282Y-193785528D02*
X265199568Y-193785528D01*
X265199568Y-193785528D02*
X265056710Y-193714100D01*
X265056710Y-193714100D02*
X264985282Y-193571242D01*
X264985282Y-193571242D02*
X264985282Y-192999814D01*
X264985282Y-192999814D02*
X265056710Y-192856957D01*
X265056710Y-192856957D02*
X265199568Y-192785528D01*
X265199568Y-192785528D02*
X265485282Y-192785528D01*
X265485282Y-192785528D02*
X265628139Y-192856957D01*
X265628139Y-192856957D02*
X265699568Y-192999814D01*
X265699568Y-192999814D02*
X265699568Y-193142671D01*
X265699568Y-193142671D02*
X264985282Y-193285528D01*
X266199567Y-192785528D02*
X266556710Y-193785528D01*
X266556710Y-193785528D02*
X266913853Y-192785528D01*
X267485281Y-193642671D02*
X267556710Y-193714100D01*
X267556710Y-193714100D02*
X267485281Y-193785528D01*
X267485281Y-193785528D02*
X267413853Y-193714100D01*
X267413853Y-193714100D02*
X267485281Y-193642671D01*
X267485281Y-193642671D02*
X267485281Y-193785528D01*
X267485281Y-192856957D02*
X267556710Y-192928385D01*
X267556710Y-192928385D02*
X267485281Y-192999814D01*
X267485281Y-192999814D02*
X267413853Y-192928385D01*
X267413853Y-192928385D02*
X267485281Y-192856957D01*
X267485281Y-192856957D02*
X267485281Y-192999814D01*
D10*
X178386598Y-193721900D02*
X178600884Y-193793328D01*
X178600884Y-193793328D02*
X178958026Y-193793328D01*
X178958026Y-193793328D02*
X179100884Y-193721900D01*
X179100884Y-193721900D02*
X179172312Y-193650471D01*
X179172312Y-193650471D02*
X179243741Y-193507614D01*
X179243741Y-193507614D02*
X179243741Y-193364757D01*
X179243741Y-193364757D02*
X179172312Y-193221900D01*
X179172312Y-193221900D02*
X179100884Y-193150471D01*
X179100884Y-193150471D02*
X178958026Y-193079042D01*
X178958026Y-193079042D02*
X178672312Y-193007614D01*
X178672312Y-193007614D02*
X178529455Y-192936185D01*
X178529455Y-192936185D02*
X178458026Y-192864757D01*
X178458026Y-192864757D02*
X178386598Y-192721900D01*
X178386598Y-192721900D02*
X178386598Y-192579042D01*
X178386598Y-192579042D02*
X178458026Y-192436185D01*
X178458026Y-192436185D02*
X178529455Y-192364757D01*
X178529455Y-192364757D02*
X178672312Y-192293328D01*
X178672312Y-192293328D02*
X179029455Y-192293328D01*
X179029455Y-192293328D02*
X179243741Y-192364757D01*
X179886597Y-193793328D02*
X179886597Y-192793328D01*
X179886597Y-192293328D02*
X179815169Y-192364757D01*
X179815169Y-192364757D02*
X179886597Y-192436185D01*
X179886597Y-192436185D02*
X179958026Y-192364757D01*
X179958026Y-192364757D02*
X179886597Y-192293328D01*
X179886597Y-192293328D02*
X179886597Y-192436185D01*
X180458026Y-192793328D02*
X181243741Y-192793328D01*
X181243741Y-192793328D02*
X180458026Y-193793328D01*
X180458026Y-193793328D02*
X181243741Y-193793328D01*
X182386598Y-193721900D02*
X182243741Y-193793328D01*
X182243741Y-193793328D02*
X181958027Y-193793328D01*
X181958027Y-193793328D02*
X181815169Y-193721900D01*
X181815169Y-193721900D02*
X181743741Y-193579042D01*
X181743741Y-193579042D02*
X181743741Y-193007614D01*
X181743741Y-193007614D02*
X181815169Y-192864757D01*
X181815169Y-192864757D02*
X181958027Y-192793328D01*
X181958027Y-192793328D02*
X182243741Y-192793328D01*
X182243741Y-192793328D02*
X182386598Y-192864757D01*
X182386598Y-192864757D02*
X182458027Y-193007614D01*
X182458027Y-193007614D02*
X182458027Y-193150471D01*
X182458027Y-193150471D02*
X181743741Y-193293328D01*
X183100883Y-193650471D02*
X183172312Y-193721900D01*
X183172312Y-193721900D02*
X183100883Y-193793328D01*
X183100883Y-193793328D02*
X183029455Y-193721900D01*
X183029455Y-193721900D02*
X183100883Y-193650471D01*
X183100883Y-193650471D02*
X183100883Y-193793328D01*
X183100883Y-192864757D02*
X183172312Y-192936185D01*
X183172312Y-192936185D02*
X183100883Y-193007614D01*
X183100883Y-193007614D02*
X183029455Y-192936185D01*
X183029455Y-192936185D02*
X183100883Y-192864757D01*
X183100883Y-192864757D02*
X183100883Y-193007614D01*
X184886598Y-193364757D02*
X185600884Y-193364757D01*
X184743741Y-193793328D02*
X185243741Y-192293328D01*
X185243741Y-192293328D02*
X185743741Y-193793328D01*
X186886598Y-192793328D02*
X186886598Y-193793328D01*
X186529455Y-192221900D02*
X186172312Y-193293328D01*
X186172312Y-193293328D02*
X187100883Y-193293328D01*
X263458026Y-196593328D02*
X263458026Y-195093328D01*
X264815170Y-196593328D02*
X264815170Y-195093328D01*
X264815170Y-196521900D02*
X264672312Y-196593328D01*
X264672312Y-196593328D02*
X264386598Y-196593328D01*
X264386598Y-196593328D02*
X264243741Y-196521900D01*
X264243741Y-196521900D02*
X264172312Y-196450471D01*
X264172312Y-196450471D02*
X264100884Y-196307614D01*
X264100884Y-196307614D02*
X264100884Y-195879042D01*
X264100884Y-195879042D02*
X264172312Y-195736185D01*
X264172312Y-195736185D02*
X264243741Y-195664757D01*
X264243741Y-195664757D02*
X264386598Y-195593328D01*
X264386598Y-195593328D02*
X264672312Y-195593328D01*
X264672312Y-195593328D02*
X264815170Y-195664757D01*
X265529455Y-196450471D02*
X265600884Y-196521900D01*
X265600884Y-196521900D02*
X265529455Y-196593328D01*
X265529455Y-196593328D02*
X265458027Y-196521900D01*
X265458027Y-196521900D02*
X265529455Y-196450471D01*
X265529455Y-196450471D02*
X265529455Y-196593328D01*
X265529455Y-195664757D02*
X265600884Y-195736185D01*
X265600884Y-195736185D02*
X265529455Y-195807614D01*
X265529455Y-195807614D02*
X265458027Y-195736185D01*
X265458027Y-195736185D02*
X265529455Y-195664757D01*
X265529455Y-195664757D02*
X265529455Y-195807614D01*
X268029456Y-195593328D02*
X268029456Y-196593328D01*
X267672313Y-195021900D02*
X267315170Y-196093328D01*
X267315170Y-196093328D02*
X268243741Y-196093328D01*
X269886598Y-195021900D02*
X268600884Y-196950471D01*
X270243741Y-195093328D02*
X271243741Y-195093328D01*
X271243741Y-195093328D02*
X270600884Y-196593328D01*
X177002200Y-187507200D02*
X285002200Y-187507200D01*
D12*
X178693928Y-188211638D02*
X179836785Y-188211638D01*
X179015357Y-190211638D02*
X179265357Y-188211638D01*
X180253452Y-190211638D02*
X180420119Y-188878304D01*
X180503452Y-188211638D02*
X180396309Y-188306876D01*
X180396309Y-188306876D02*
X180479643Y-188402114D01*
X180479643Y-188402114D02*
X180586786Y-188306876D01*
X180586786Y-188306876D02*
X180503452Y-188211638D01*
X180503452Y-188211638D02*
X180479643Y-188402114D01*
X181086786Y-188878304D02*
X181848690Y-188878304D01*
X181455833Y-188211638D02*
X181241548Y-189925923D01*
X181241548Y-189925923D02*
X181312976Y-190116400D01*
X181312976Y-190116400D02*
X181491548Y-190211638D01*
X181491548Y-190211638D02*
X181682024Y-190211638D01*
X182634405Y-190211638D02*
X182455833Y-190116400D01*
X182455833Y-190116400D02*
X182384405Y-189925923D01*
X182384405Y-189925923D02*
X182598690Y-188211638D01*
X184170119Y-190116400D02*
X183967738Y-190211638D01*
X183967738Y-190211638D02*
X183586785Y-190211638D01*
X183586785Y-190211638D02*
X183408214Y-190116400D01*
X183408214Y-190116400D02*
X183336785Y-189925923D01*
X183336785Y-189925923D02*
X183432024Y-189164019D01*
X183432024Y-189164019D02*
X183551071Y-188973542D01*
X183551071Y-188973542D02*
X183753452Y-188878304D01*
X183753452Y-188878304D02*
X184134404Y-188878304D01*
X184134404Y-188878304D02*
X184312976Y-188973542D01*
X184312976Y-188973542D02*
X184384404Y-189164019D01*
X184384404Y-189164019D02*
X184360595Y-189354495D01*
X184360595Y-189354495D02*
X183384404Y-189544971D01*
X185134405Y-190021161D02*
X185217738Y-190116400D01*
X185217738Y-190116400D02*
X185110595Y-190211638D01*
X185110595Y-190211638D02*
X185027262Y-190116400D01*
X185027262Y-190116400D02*
X185134405Y-190021161D01*
X185134405Y-190021161D02*
X185110595Y-190211638D01*
X185265357Y-188973542D02*
X185348690Y-189068780D01*
X185348690Y-189068780D02*
X185241548Y-189164019D01*
X185241548Y-189164019D02*
X185158214Y-189068780D01*
X185158214Y-189068780D02*
X185265357Y-188973542D01*
X185265357Y-188973542D02*
X185241548Y-189164019D01*
D10*
X178958026Y-185607614D02*
X178458026Y-185607614D01*
X178458026Y-186393328D02*
X178458026Y-184893328D01*
X178458026Y-184893328D02*
X179172312Y-184893328D01*
X179743740Y-186393328D02*
X179743740Y-185393328D01*
X179743740Y-184893328D02*
X179672312Y-184964757D01*
X179672312Y-184964757D02*
X179743740Y-185036185D01*
X179743740Y-185036185D02*
X179815169Y-184964757D01*
X179815169Y-184964757D02*
X179743740Y-184893328D01*
X179743740Y-184893328D02*
X179743740Y-185036185D01*
X180672312Y-186393328D02*
X180529455Y-186321900D01*
X180529455Y-186321900D02*
X180458026Y-186179042D01*
X180458026Y-186179042D02*
X180458026Y-184893328D01*
X181815169Y-186321900D02*
X181672312Y-186393328D01*
X181672312Y-186393328D02*
X181386598Y-186393328D01*
X181386598Y-186393328D02*
X181243740Y-186321900D01*
X181243740Y-186321900D02*
X181172312Y-186179042D01*
X181172312Y-186179042D02*
X181172312Y-185607614D01*
X181172312Y-185607614D02*
X181243740Y-185464757D01*
X181243740Y-185464757D02*
X181386598Y-185393328D01*
X181386598Y-185393328D02*
X181672312Y-185393328D01*
X181672312Y-185393328D02*
X181815169Y-185464757D01*
X181815169Y-185464757D02*
X181886598Y-185607614D01*
X181886598Y-185607614D02*
X181886598Y-185750471D01*
X181886598Y-185750471D02*
X181172312Y-185893328D01*
X182529454Y-186250471D02*
X182600883Y-186321900D01*
X182600883Y-186321900D02*
X182529454Y-186393328D01*
X182529454Y-186393328D02*
X182458026Y-186321900D01*
X182458026Y-186321900D02*
X182529454Y-186250471D01*
X182529454Y-186250471D02*
X182529454Y-186393328D01*
X182529454Y-185464757D02*
X182600883Y-185536185D01*
X182600883Y-185536185D02*
X182529454Y-185607614D01*
X182529454Y-185607614D02*
X182458026Y-185536185D01*
X182458026Y-185536185D02*
X182529454Y-185464757D01*
X182529454Y-185464757D02*
X182529454Y-185607614D01*
X184172312Y-184893328D02*
X185029455Y-184893328D01*
X184600883Y-186393328D02*
X184600883Y-184893328D01*
X185743740Y-186393328D02*
X185600883Y-186321900D01*
X185600883Y-186321900D02*
X185529454Y-186250471D01*
X185529454Y-186250471D02*
X185458026Y-186107614D01*
X185458026Y-186107614D02*
X185458026Y-185679042D01*
X185458026Y-185679042D02*
X185529454Y-185536185D01*
X185529454Y-185536185D02*
X185600883Y-185464757D01*
X185600883Y-185464757D02*
X185743740Y-185393328D01*
X185743740Y-185393328D02*
X185958026Y-185393328D01*
X185958026Y-185393328D02*
X186100883Y-185464757D01*
X186100883Y-185464757D02*
X186172312Y-185536185D01*
X186172312Y-185536185D02*
X186243740Y-185679042D01*
X186243740Y-185679042D02*
X186243740Y-186107614D01*
X186243740Y-186107614D02*
X186172312Y-186250471D01*
X186172312Y-186250471D02*
X186100883Y-186321900D01*
X186100883Y-186321900D02*
X185958026Y-186393328D01*
X185958026Y-186393328D02*
X185743740Y-186393328D01*
X186886597Y-186393328D02*
X186886597Y-184893328D01*
X187029455Y-185821900D02*
X187458026Y-186393328D01*
X187458026Y-185393328D02*
X186886597Y-185964757D01*
X188100883Y-186393328D02*
X188100883Y-185393328D01*
X188100883Y-184893328D02*
X188029455Y-184964757D01*
X188029455Y-184964757D02*
X188100883Y-185036185D01*
X188100883Y-185036185D02*
X188172312Y-184964757D01*
X188172312Y-184964757D02*
X188100883Y-184893328D01*
X188100883Y-184893328D02*
X188100883Y-185036185D01*
X188815169Y-185393328D02*
X188815169Y-186893328D01*
X188815169Y-185464757D02*
X188958027Y-185393328D01*
X188958027Y-185393328D02*
X189243741Y-185393328D01*
X189243741Y-185393328D02*
X189386598Y-185464757D01*
X189386598Y-185464757D02*
X189458027Y-185536185D01*
X189458027Y-185536185D02*
X189529455Y-185679042D01*
X189529455Y-185679042D02*
X189529455Y-186107614D01*
X189529455Y-186107614D02*
X189458027Y-186250471D01*
X189458027Y-186250471D02*
X189386598Y-186321900D01*
X189386598Y-186321900D02*
X189243741Y-186393328D01*
X189243741Y-186393328D02*
X188958027Y-186393328D01*
X188958027Y-186393328D02*
X188815169Y-186321900D01*
X190815170Y-186393328D02*
X190815170Y-185607614D01*
X190815170Y-185607614D02*
X190743741Y-185464757D01*
X190743741Y-185464757D02*
X190600884Y-185393328D01*
X190600884Y-185393328D02*
X190315170Y-185393328D01*
X190315170Y-185393328D02*
X190172312Y-185464757D01*
X190815170Y-186321900D02*
X190672312Y-186393328D01*
X190672312Y-186393328D02*
X190315170Y-186393328D01*
X190315170Y-186393328D02*
X190172312Y-186321900D01*
X190172312Y-186321900D02*
X190100884Y-186179042D01*
X190100884Y-186179042D02*
X190100884Y-186036185D01*
X190100884Y-186036185D02*
X190172312Y-185893328D01*
X190172312Y-185893328D02*
X190315170Y-185821900D01*
X190315170Y-185821900D02*
X190672312Y-185821900D01*
X190672312Y-185821900D02*
X190815170Y-185750471D01*
X191529455Y-185393328D02*
X191529455Y-186393328D01*
X191529455Y-185536185D02*
X191600884Y-185464757D01*
X191600884Y-185464757D02*
X191743741Y-185393328D01*
X191743741Y-185393328D02*
X191958027Y-185393328D01*
X191958027Y-185393328D02*
X192100884Y-185464757D01*
X192100884Y-185464757D02*
X192172313Y-185607614D01*
X192172313Y-185607614D02*
X192172313Y-186393328D01*
X193529456Y-186393328D02*
X193529456Y-184893328D01*
X193529456Y-186321900D02*
X193386598Y-186393328D01*
X193386598Y-186393328D02*
X193100884Y-186393328D01*
X193100884Y-186393328D02*
X192958027Y-186321900D01*
X192958027Y-186321900D02*
X192886598Y-186250471D01*
X192886598Y-186250471D02*
X192815170Y-186107614D01*
X192815170Y-186107614D02*
X192815170Y-185679042D01*
X192815170Y-185679042D02*
X192886598Y-185536185D01*
X192886598Y-185536185D02*
X192958027Y-185464757D01*
X192958027Y-185464757D02*
X193100884Y-185393328D01*
X193100884Y-185393328D02*
X193386598Y-185393328D01*
X193386598Y-185393328D02*
X193529456Y-185464757D01*
X194886599Y-186393328D02*
X194886599Y-185607614D01*
X194886599Y-185607614D02*
X194815170Y-185464757D01*
X194815170Y-185464757D02*
X194672313Y-185393328D01*
X194672313Y-185393328D02*
X194386599Y-185393328D01*
X194386599Y-185393328D02*
X194243741Y-185464757D01*
X194886599Y-186321900D02*
X194743741Y-186393328D01*
X194743741Y-186393328D02*
X194386599Y-186393328D01*
X194386599Y-186393328D02*
X194243741Y-186321900D01*
X194243741Y-186321900D02*
X194172313Y-186179042D01*
X194172313Y-186179042D02*
X194172313Y-186036185D01*
X194172313Y-186036185D02*
X194243741Y-185893328D01*
X194243741Y-185893328D02*
X194386599Y-185821900D01*
X194386599Y-185821900D02*
X194743741Y-185821900D01*
X194743741Y-185821900D02*
X194886599Y-185750471D01*
X197386599Y-185393328D02*
X197386599Y-186393328D01*
X196743741Y-185393328D02*
X196743741Y-186179042D01*
X196743741Y-186179042D02*
X196815170Y-186321900D01*
X196815170Y-186321900D02*
X196958027Y-186393328D01*
X196958027Y-186393328D02*
X197172313Y-186393328D01*
X197172313Y-186393328D02*
X197315170Y-186321900D01*
X197315170Y-186321900D02*
X197386599Y-186250471D01*
X198100884Y-185393328D02*
X198100884Y-186893328D01*
X198100884Y-185464757D02*
X198243742Y-185393328D01*
X198243742Y-185393328D02*
X198529456Y-185393328D01*
X198529456Y-185393328D02*
X198672313Y-185464757D01*
X198672313Y-185464757D02*
X198743742Y-185536185D01*
X198743742Y-185536185D02*
X198815170Y-185679042D01*
X198815170Y-185679042D02*
X198815170Y-186107614D01*
X198815170Y-186107614D02*
X198743742Y-186250471D01*
X198743742Y-186250471D02*
X198672313Y-186321900D01*
X198672313Y-186321900D02*
X198529456Y-186393328D01*
X198529456Y-186393328D02*
X198243742Y-186393328D01*
X198243742Y-186393328D02*
X198100884Y-186321900D01*
X200100885Y-186393328D02*
X200100885Y-184893328D01*
X200100885Y-186321900D02*
X199958027Y-186393328D01*
X199958027Y-186393328D02*
X199672313Y-186393328D01*
X199672313Y-186393328D02*
X199529456Y-186321900D01*
X199529456Y-186321900D02*
X199458027Y-186250471D01*
X199458027Y-186250471D02*
X199386599Y-186107614D01*
X199386599Y-186107614D02*
X199386599Y-185679042D01*
X199386599Y-185679042D02*
X199458027Y-185536185D01*
X199458027Y-185536185D02*
X199529456Y-185464757D01*
X199529456Y-185464757D02*
X199672313Y-185393328D01*
X199672313Y-185393328D02*
X199958027Y-185393328D01*
X199958027Y-185393328D02*
X200100885Y-185464757D01*
X201458028Y-186393328D02*
X201458028Y-185607614D01*
X201458028Y-185607614D02*
X201386599Y-185464757D01*
X201386599Y-185464757D02*
X201243742Y-185393328D01*
X201243742Y-185393328D02*
X200958028Y-185393328D01*
X200958028Y-185393328D02*
X200815170Y-185464757D01*
X201458028Y-186321900D02*
X201315170Y-186393328D01*
X201315170Y-186393328D02*
X200958028Y-186393328D01*
X200958028Y-186393328D02*
X200815170Y-186321900D01*
X200815170Y-186321900D02*
X200743742Y-186179042D01*
X200743742Y-186179042D02*
X200743742Y-186036185D01*
X200743742Y-186036185D02*
X200815170Y-185893328D01*
X200815170Y-185893328D02*
X200958028Y-185821900D01*
X200958028Y-185821900D02*
X201315170Y-185821900D01*
X201315170Y-185821900D02*
X201458028Y-185750471D01*
X201958028Y-185393328D02*
X202529456Y-185393328D01*
X202172313Y-184893328D02*
X202172313Y-186179042D01*
X202172313Y-186179042D02*
X202243742Y-186321900D01*
X202243742Y-186321900D02*
X202386599Y-186393328D01*
X202386599Y-186393328D02*
X202529456Y-186393328D01*
X203600885Y-186321900D02*
X203458028Y-186393328D01*
X203458028Y-186393328D02*
X203172314Y-186393328D01*
X203172314Y-186393328D02*
X203029456Y-186321900D01*
X203029456Y-186321900D02*
X202958028Y-186179042D01*
X202958028Y-186179042D02*
X202958028Y-185607614D01*
X202958028Y-185607614D02*
X203029456Y-185464757D01*
X203029456Y-185464757D02*
X203172314Y-185393328D01*
X203172314Y-185393328D02*
X203458028Y-185393328D01*
X203458028Y-185393328D02*
X203600885Y-185464757D01*
X203600885Y-185464757D02*
X203672314Y-185607614D01*
X203672314Y-185607614D02*
X203672314Y-185750471D01*
X203672314Y-185750471D02*
X202958028Y-185893328D01*
X204958028Y-186393328D02*
X204958028Y-184893328D01*
X204958028Y-186321900D02*
X204815170Y-186393328D01*
X204815170Y-186393328D02*
X204529456Y-186393328D01*
X204529456Y-186393328D02*
X204386599Y-186321900D01*
X204386599Y-186321900D02*
X204315170Y-186250471D01*
X204315170Y-186250471D02*
X204243742Y-186107614D01*
X204243742Y-186107614D02*
X204243742Y-185679042D01*
X204243742Y-185679042D02*
X204315170Y-185536185D01*
X204315170Y-185536185D02*
X204386599Y-185464757D01*
X204386599Y-185464757D02*
X204529456Y-185393328D01*
X204529456Y-185393328D02*
X204815170Y-185393328D01*
X204815170Y-185393328D02*
X204958028Y-185464757D01*
X205315171Y-186536185D02*
X206458028Y-186536185D01*
X206815170Y-185393328D02*
X206815170Y-186893328D01*
X206815170Y-185464757D02*
X206958028Y-185393328D01*
X206958028Y-185393328D02*
X207243742Y-185393328D01*
X207243742Y-185393328D02*
X207386599Y-185464757D01*
X207386599Y-185464757D02*
X207458028Y-185536185D01*
X207458028Y-185536185D02*
X207529456Y-185679042D01*
X207529456Y-185679042D02*
X207529456Y-186107614D01*
X207529456Y-186107614D02*
X207458028Y-186250471D01*
X207458028Y-186250471D02*
X207386599Y-186321900D01*
X207386599Y-186321900D02*
X207243742Y-186393328D01*
X207243742Y-186393328D02*
X206958028Y-186393328D01*
X206958028Y-186393328D02*
X206815170Y-186321900D01*
X208815171Y-186321900D02*
X208672313Y-186393328D01*
X208672313Y-186393328D02*
X208386599Y-186393328D01*
X208386599Y-186393328D02*
X208243742Y-186321900D01*
X208243742Y-186321900D02*
X208172313Y-186250471D01*
X208172313Y-186250471D02*
X208100885Y-186107614D01*
X208100885Y-186107614D02*
X208100885Y-185679042D01*
X208100885Y-185679042D02*
X208172313Y-185536185D01*
X208172313Y-185536185D02*
X208243742Y-185464757D01*
X208243742Y-185464757D02*
X208386599Y-185393328D01*
X208386599Y-185393328D02*
X208672313Y-185393328D01*
X208672313Y-185393328D02*
X208815171Y-185464757D01*
X209458027Y-186393328D02*
X209458027Y-184893328D01*
X209458027Y-185464757D02*
X209600885Y-185393328D01*
X209600885Y-185393328D02*
X209886599Y-185393328D01*
X209886599Y-185393328D02*
X210029456Y-185464757D01*
X210029456Y-185464757D02*
X210100885Y-185536185D01*
X210100885Y-185536185D02*
X210172313Y-185679042D01*
X210172313Y-185679042D02*
X210172313Y-186107614D01*
X210172313Y-186107614D02*
X210100885Y-186250471D01*
X210100885Y-186250471D02*
X210029456Y-186321900D01*
X210029456Y-186321900D02*
X209886599Y-186393328D01*
X209886599Y-186393328D02*
X209600885Y-186393328D01*
X209600885Y-186393328D02*
X209458027Y-186321900D01*
X210815170Y-186250471D02*
X210886599Y-186321900D01*
X210886599Y-186321900D02*
X210815170Y-186393328D01*
X210815170Y-186393328D02*
X210743742Y-186321900D01*
X210743742Y-186321900D02*
X210815170Y-186250471D01*
X210815170Y-186250471D02*
X210815170Y-186393328D01*
X211529456Y-186393328D02*
X211529456Y-184893328D01*
X211672314Y-185821900D02*
X212100885Y-186393328D01*
X212100885Y-185393328D02*
X211529456Y-185964757D01*
X212743742Y-186393328D02*
X212743742Y-185393328D01*
X212743742Y-184893328D02*
X212672314Y-184964757D01*
X212672314Y-184964757D02*
X212743742Y-185036185D01*
X212743742Y-185036185D02*
X212815171Y-184964757D01*
X212815171Y-184964757D02*
X212743742Y-184893328D01*
X212743742Y-184893328D02*
X212743742Y-185036185D01*
X214100886Y-186321900D02*
X213958028Y-186393328D01*
X213958028Y-186393328D02*
X213672314Y-186393328D01*
X213672314Y-186393328D02*
X213529457Y-186321900D01*
X213529457Y-186321900D02*
X213458028Y-186250471D01*
X213458028Y-186250471D02*
X213386600Y-186107614D01*
X213386600Y-186107614D02*
X213386600Y-185679042D01*
X213386600Y-185679042D02*
X213458028Y-185536185D01*
X213458028Y-185536185D02*
X213529457Y-185464757D01*
X213529457Y-185464757D02*
X213672314Y-185393328D01*
X213672314Y-185393328D02*
X213958028Y-185393328D01*
X213958028Y-185393328D02*
X214100886Y-185464757D01*
X215386600Y-186393328D02*
X215386600Y-185607614D01*
X215386600Y-185607614D02*
X215315171Y-185464757D01*
X215315171Y-185464757D02*
X215172314Y-185393328D01*
X215172314Y-185393328D02*
X214886600Y-185393328D01*
X214886600Y-185393328D02*
X214743742Y-185464757D01*
X215386600Y-186321900D02*
X215243742Y-186393328D01*
X215243742Y-186393328D02*
X214886600Y-186393328D01*
X214886600Y-186393328D02*
X214743742Y-186321900D01*
X214743742Y-186321900D02*
X214672314Y-186179042D01*
X214672314Y-186179042D02*
X214672314Y-186036185D01*
X214672314Y-186036185D02*
X214743742Y-185893328D01*
X214743742Y-185893328D02*
X214886600Y-185821900D01*
X214886600Y-185821900D02*
X215243742Y-185821900D01*
X215243742Y-185821900D02*
X215386600Y-185750471D01*
X216743743Y-186393328D02*
X216743743Y-184893328D01*
X216743743Y-186321900D02*
X216600885Y-186393328D01*
X216600885Y-186393328D02*
X216315171Y-186393328D01*
X216315171Y-186393328D02*
X216172314Y-186321900D01*
X216172314Y-186321900D02*
X216100885Y-186250471D01*
X216100885Y-186250471D02*
X216029457Y-186107614D01*
X216029457Y-186107614D02*
X216029457Y-185679042D01*
X216029457Y-185679042D02*
X216100885Y-185536185D01*
X216100885Y-185536185D02*
X216172314Y-185464757D01*
X216172314Y-185464757D02*
X216315171Y-185393328D01*
X216315171Y-185393328D02*
X216600885Y-185393328D01*
X216600885Y-185393328D02*
X216743743Y-185464757D01*
X217100886Y-186536185D02*
X218243743Y-186536185D01*
X218600885Y-185393328D02*
X218600885Y-186893328D01*
X218600885Y-185464757D02*
X218743743Y-185393328D01*
X218743743Y-185393328D02*
X219029457Y-185393328D01*
X219029457Y-185393328D02*
X219172314Y-185464757D01*
X219172314Y-185464757D02*
X219243743Y-185536185D01*
X219243743Y-185536185D02*
X219315171Y-185679042D01*
X219315171Y-185679042D02*
X219315171Y-186107614D01*
X219315171Y-186107614D02*
X219243743Y-186250471D01*
X219243743Y-186250471D02*
X219172314Y-186321900D01*
X219172314Y-186321900D02*
X219029457Y-186393328D01*
X219029457Y-186393328D02*
X218743743Y-186393328D01*
X218743743Y-186393328D02*
X218600885Y-186321900D01*
X220600886Y-186321900D02*
X220458028Y-186393328D01*
X220458028Y-186393328D02*
X220172314Y-186393328D01*
X220172314Y-186393328D02*
X220029457Y-186321900D01*
X220029457Y-186321900D02*
X219958028Y-186250471D01*
X219958028Y-186250471D02*
X219886600Y-186107614D01*
X219886600Y-186107614D02*
X219886600Y-185679042D01*
X219886600Y-185679042D02*
X219958028Y-185536185D01*
X219958028Y-185536185D02*
X220029457Y-185464757D01*
X220029457Y-185464757D02*
X220172314Y-185393328D01*
X220172314Y-185393328D02*
X220458028Y-185393328D01*
X220458028Y-185393328D02*
X220600886Y-185464757D01*
X221243742Y-186393328D02*
X221243742Y-184893328D01*
X221243742Y-185464757D02*
X221386600Y-185393328D01*
X221386600Y-185393328D02*
X221672314Y-185393328D01*
X221672314Y-185393328D02*
X221815171Y-185464757D01*
X221815171Y-185464757D02*
X221886600Y-185536185D01*
X221886600Y-185536185D02*
X221958028Y-185679042D01*
X221958028Y-185679042D02*
X221958028Y-186107614D01*
X221958028Y-186107614D02*
X221886600Y-186250471D01*
X221886600Y-186250471D02*
X221815171Y-186321900D01*
X221815171Y-186321900D02*
X221672314Y-186393328D01*
X221672314Y-186393328D02*
X221386600Y-186393328D01*
X221386600Y-186393328D02*
X221243742Y-186321900D01*
X177002200Y-181507200D02*
X285002200Y-181507200D01*
X178386598Y-183621900D02*
X178600884Y-183693328D01*
X178600884Y-183693328D02*
X178958026Y-183693328D01*
X178958026Y-183693328D02*
X179100884Y-183621900D01*
X179100884Y-183621900D02*
X179172312Y-183550471D01*
X179172312Y-183550471D02*
X179243741Y-183407614D01*
X179243741Y-183407614D02*
X179243741Y-183264757D01*
X179243741Y-183264757D02*
X179172312Y-183121900D01*
X179172312Y-183121900D02*
X179100884Y-183050471D01*
X179100884Y-183050471D02*
X178958026Y-182979042D01*
X178958026Y-182979042D02*
X178672312Y-182907614D01*
X178672312Y-182907614D02*
X178529455Y-182836185D01*
X178529455Y-182836185D02*
X178458026Y-182764757D01*
X178458026Y-182764757D02*
X178386598Y-182621900D01*
X178386598Y-182621900D02*
X178386598Y-182479042D01*
X178386598Y-182479042D02*
X178458026Y-182336185D01*
X178458026Y-182336185D02*
X178529455Y-182264757D01*
X178529455Y-182264757D02*
X178672312Y-182193328D01*
X178672312Y-182193328D02*
X179029455Y-182193328D01*
X179029455Y-182193328D02*
X179243741Y-182264757D01*
X179886597Y-183693328D02*
X179886597Y-182193328D01*
X180529455Y-183693328D02*
X180529455Y-182907614D01*
X180529455Y-182907614D02*
X180458026Y-182764757D01*
X180458026Y-182764757D02*
X180315169Y-182693328D01*
X180315169Y-182693328D02*
X180100883Y-182693328D01*
X180100883Y-182693328D02*
X179958026Y-182764757D01*
X179958026Y-182764757D02*
X179886597Y-182836185D01*
X181815169Y-183621900D02*
X181672312Y-183693328D01*
X181672312Y-183693328D02*
X181386598Y-183693328D01*
X181386598Y-183693328D02*
X181243740Y-183621900D01*
X181243740Y-183621900D02*
X181172312Y-183479042D01*
X181172312Y-183479042D02*
X181172312Y-182907614D01*
X181172312Y-182907614D02*
X181243740Y-182764757D01*
X181243740Y-182764757D02*
X181386598Y-182693328D01*
X181386598Y-182693328D02*
X181672312Y-182693328D01*
X181672312Y-182693328D02*
X181815169Y-182764757D01*
X181815169Y-182764757D02*
X181886598Y-182907614D01*
X181886598Y-182907614D02*
X181886598Y-183050471D01*
X181886598Y-183050471D02*
X181172312Y-183193328D01*
X183100883Y-183621900D02*
X182958026Y-183693328D01*
X182958026Y-183693328D02*
X182672312Y-183693328D01*
X182672312Y-183693328D02*
X182529454Y-183621900D01*
X182529454Y-183621900D02*
X182458026Y-183479042D01*
X182458026Y-183479042D02*
X182458026Y-182907614D01*
X182458026Y-182907614D02*
X182529454Y-182764757D01*
X182529454Y-182764757D02*
X182672312Y-182693328D01*
X182672312Y-182693328D02*
X182958026Y-182693328D01*
X182958026Y-182693328D02*
X183100883Y-182764757D01*
X183100883Y-182764757D02*
X183172312Y-182907614D01*
X183172312Y-182907614D02*
X183172312Y-183050471D01*
X183172312Y-183050471D02*
X182458026Y-183193328D01*
X183600883Y-182693328D02*
X184172311Y-182693328D01*
X183815168Y-182193328D02*
X183815168Y-183479042D01*
X183815168Y-183479042D02*
X183886597Y-183621900D01*
X183886597Y-183621900D02*
X184029454Y-183693328D01*
X184029454Y-183693328D02*
X184172311Y-183693328D01*
X184672311Y-183550471D02*
X184743740Y-183621900D01*
X184743740Y-183621900D02*
X184672311Y-183693328D01*
X184672311Y-183693328D02*
X184600883Y-183621900D01*
X184600883Y-183621900D02*
X184672311Y-183550471D01*
X184672311Y-183550471D02*
X184672311Y-183693328D01*
X184672311Y-182764757D02*
X184743740Y-182836185D01*
X184743740Y-182836185D02*
X184672311Y-182907614D01*
X184672311Y-182907614D02*
X184600883Y-182836185D01*
X184600883Y-182836185D02*
X184672311Y-182764757D01*
X184672311Y-182764757D02*
X184672311Y-182907614D01*
X197002200Y-191507200D02*
X197002200Y-194507200D01*
X261002200Y-191507200D02*
X261002200Y-198007200D01*
D13*
X120940000Y-90690000D02*
X142430000Y-90690000D01*
X142430000Y-107110000D01*
X120940000Y-107110000D01*
X120940000Y-90690000D01*
X121140000Y-80700000D02*
X177970000Y-80700000D01*
X177970000Y-117030000D01*
X121140000Y-117030000D01*
X121140000Y-80700000D01*
X123455000Y-38295000D02*
X147245000Y-38295000D01*
X147245000Y-60415000D01*
X123455000Y-60415000D01*
X123455000Y-38295000D01*
X159557530Y-70800000D02*
G75*
G02*
X143282470Y-70800000I-8137530J0D01*
G01*
X143282470Y-70800000D02*
G75*
G02*
X159557530Y-70800000I8137530J0D01*
G01*
X186180000Y-56460000D02*
X200760000Y-56460000D01*
X200760000Y-74780000D01*
X186180000Y-74780000D01*
X186180000Y-56460000D01*
X207270000Y-38460000D02*
X234950000Y-38460000D01*
X234950000Y-52630000D01*
X207270000Y-52630000D01*
X207270000Y-38460000D01*
X209570000Y-92900000D02*
X222010000Y-92900000D01*
X222010000Y-110840000D01*
X209570000Y-110840000D01*
X209570000Y-92900000D01*
X211785000Y-66375000D02*
X235775000Y-66375000D01*
X235775000Y-87565000D01*
X211785000Y-87565000D01*
X211785000Y-66375000D01*
X223970000Y-92820000D02*
X236410000Y-92820000D01*
X236410000Y-110760000D01*
X223970000Y-110760000D01*
X223970000Y-92820000D01*
X129187693Y-43260038D02*
X129092455Y-43212419D01*
X129092455Y-43212419D02*
X128949598Y-43212419D01*
X128949598Y-43212419D02*
X128806741Y-43260038D01*
X128806741Y-43260038D02*
X128711503Y-43355276D01*
X128711503Y-43355276D02*
X128663884Y-43450514D01*
X128663884Y-43450514D02*
X128616265Y-43640990D01*
X128616265Y-43640990D02*
X128616265Y-43783847D01*
X128616265Y-43783847D02*
X128663884Y-43974323D01*
X128663884Y-43974323D02*
X128711503Y-44069561D01*
X128711503Y-44069561D02*
X128806741Y-44164800D01*
X128806741Y-44164800D02*
X128949598Y-44212419D01*
X128949598Y-44212419D02*
X129044836Y-44212419D01*
X129044836Y-44212419D02*
X129187693Y-44164800D01*
X129187693Y-44164800D02*
X129235312Y-44117180D01*
X129235312Y-44117180D02*
X129235312Y-43783847D01*
X129235312Y-43783847D02*
X129044836Y-43783847D01*
X129663884Y-44212419D02*
X129663884Y-43212419D01*
X129663884Y-43212419D02*
X130235312Y-44212419D01*
X130235312Y-44212419D02*
X130235312Y-43212419D01*
X130711503Y-44212419D02*
X130711503Y-43212419D01*
X130711503Y-43212419D02*
X130949598Y-43212419D01*
X130949598Y-43212419D02*
X131092455Y-43260038D01*
X131092455Y-43260038D02*
X131187693Y-43355276D01*
X131187693Y-43355276D02*
X131235312Y-43450514D01*
X131235312Y-43450514D02*
X131282931Y-43640990D01*
X131282931Y-43640990D02*
X131282931Y-43783847D01*
X131282931Y-43783847D02*
X131235312Y-43974323D01*
X131235312Y-43974323D02*
X131187693Y-44069561D01*
X131187693Y-44069561D02*
X131092455Y-44164800D01*
X131092455Y-44164800D02*
X130949598Y-44212419D01*
X130949598Y-44212419D02*
X130711503Y-44212419D01*
X146727693Y-75910038D02*
X146632455Y-75862419D01*
X146632455Y-75862419D02*
X146489598Y-75862419D01*
X146489598Y-75862419D02*
X146346741Y-75910038D01*
X146346741Y-75910038D02*
X146251503Y-76005276D01*
X146251503Y-76005276D02*
X146203884Y-76100514D01*
X146203884Y-76100514D02*
X146156265Y-76290990D01*
X146156265Y-76290990D02*
X146156265Y-76433847D01*
X146156265Y-76433847D02*
X146203884Y-76624323D01*
X146203884Y-76624323D02*
X146251503Y-76719561D01*
X146251503Y-76719561D02*
X146346741Y-76814800D01*
X146346741Y-76814800D02*
X146489598Y-76862419D01*
X146489598Y-76862419D02*
X146584836Y-76862419D01*
X146584836Y-76862419D02*
X146727693Y-76814800D01*
X146727693Y-76814800D02*
X146775312Y-76767180D01*
X146775312Y-76767180D02*
X146775312Y-76433847D01*
X146775312Y-76433847D02*
X146584836Y-76433847D01*
X147203884Y-76862419D02*
X147203884Y-75862419D01*
X147203884Y-75862419D02*
X147775312Y-76862419D01*
X147775312Y-76862419D02*
X147775312Y-75862419D01*
X148251503Y-76862419D02*
X148251503Y-75862419D01*
X148251503Y-75862419D02*
X148489598Y-75862419D01*
X148489598Y-75862419D02*
X148632455Y-75910038D01*
X148632455Y-75910038D02*
X148727693Y-76005276D01*
X148727693Y-76005276D02*
X148775312Y-76100514D01*
X148775312Y-76100514D02*
X148822931Y-76290990D01*
X148822931Y-76290990D02*
X148822931Y-76433847D01*
X148822931Y-76433847D02*
X148775312Y-76624323D01*
X148775312Y-76624323D02*
X148727693Y-76719561D01*
X148727693Y-76719561D02*
X148632455Y-76814800D01*
X148632455Y-76814800D02*
X148489598Y-76862419D01*
X148489598Y-76862419D02*
X148251503Y-76862419D01*
X154377693Y-75960038D02*
X154282455Y-75912419D01*
X154282455Y-75912419D02*
X154139598Y-75912419D01*
X154139598Y-75912419D02*
X153996741Y-75960038D01*
X153996741Y-75960038D02*
X153901503Y-76055276D01*
X153901503Y-76055276D02*
X153853884Y-76150514D01*
X153853884Y-76150514D02*
X153806265Y-76340990D01*
X153806265Y-76340990D02*
X153806265Y-76483847D01*
X153806265Y-76483847D02*
X153853884Y-76674323D01*
X153853884Y-76674323D02*
X153901503Y-76769561D01*
X153901503Y-76769561D02*
X153996741Y-76864800D01*
X153996741Y-76864800D02*
X154139598Y-76912419D01*
X154139598Y-76912419D02*
X154234836Y-76912419D01*
X154234836Y-76912419D02*
X154377693Y-76864800D01*
X154377693Y-76864800D02*
X154425312Y-76817180D01*
X154425312Y-76817180D02*
X154425312Y-76483847D01*
X154425312Y-76483847D02*
X154234836Y-76483847D01*
X154853884Y-76912419D02*
X154853884Y-75912419D01*
X154853884Y-75912419D02*
X155425312Y-76912419D01*
X155425312Y-76912419D02*
X155425312Y-75912419D01*
X155901503Y-76912419D02*
X155901503Y-75912419D01*
X155901503Y-75912419D02*
X156139598Y-75912419D01*
X156139598Y-75912419D02*
X156282455Y-75960038D01*
X156282455Y-75960038D02*
X156377693Y-76055276D01*
X156377693Y-76055276D02*
X156425312Y-76150514D01*
X156425312Y-76150514D02*
X156472931Y-76340990D01*
X156472931Y-76340990D02*
X156472931Y-76483847D01*
X156472931Y-76483847D02*
X156425312Y-76674323D01*
X156425312Y-76674323D02*
X156377693Y-76769561D01*
X156377693Y-76769561D02*
X156282455Y-76864800D01*
X156282455Y-76864800D02*
X156139598Y-76912419D01*
X156139598Y-76912419D02*
X155901503Y-76912419D01*
X184817693Y-60880038D02*
X184722455Y-60832419D01*
X184722455Y-60832419D02*
X184579598Y-60832419D01*
X184579598Y-60832419D02*
X184436741Y-60880038D01*
X184436741Y-60880038D02*
X184341503Y-60975276D01*
X184341503Y-60975276D02*
X184293884Y-61070514D01*
X184293884Y-61070514D02*
X184246265Y-61260990D01*
X184246265Y-61260990D02*
X184246265Y-61403847D01*
X184246265Y-61403847D02*
X184293884Y-61594323D01*
X184293884Y-61594323D02*
X184341503Y-61689561D01*
X184341503Y-61689561D02*
X184436741Y-61784800D01*
X184436741Y-61784800D02*
X184579598Y-61832419D01*
X184579598Y-61832419D02*
X184674836Y-61832419D01*
X184674836Y-61832419D02*
X184817693Y-61784800D01*
X184817693Y-61784800D02*
X184865312Y-61737180D01*
X184865312Y-61737180D02*
X184865312Y-61403847D01*
X184865312Y-61403847D02*
X184674836Y-61403847D01*
X185293884Y-61832419D02*
X185293884Y-60832419D01*
X185293884Y-60832419D02*
X185865312Y-61832419D01*
X185865312Y-61832419D02*
X185865312Y-60832419D01*
X186341503Y-61832419D02*
X186341503Y-60832419D01*
X186341503Y-60832419D02*
X186579598Y-60832419D01*
X186579598Y-60832419D02*
X186722455Y-60880038D01*
X186722455Y-60880038D02*
X186817693Y-60975276D01*
X186817693Y-60975276D02*
X186865312Y-61070514D01*
X186865312Y-61070514D02*
X186912931Y-61260990D01*
X186912931Y-61260990D02*
X186912931Y-61403847D01*
X186912931Y-61403847D02*
X186865312Y-61594323D01*
X186865312Y-61594323D02*
X186817693Y-61689561D01*
X186817693Y-61689561D02*
X186722455Y-61784800D01*
X186722455Y-61784800D02*
X186579598Y-61832419D01*
X186579598Y-61832419D02*
X186341503Y-61832419D01*
X185863884Y-84438609D02*
X186197217Y-84438609D01*
X186340074Y-84962419D02*
X185863884Y-84962419D01*
X185863884Y-84962419D02*
X185863884Y-83962419D01*
X185863884Y-83962419D02*
X186340074Y-83962419D01*
X186721027Y-84914800D02*
X186863884Y-84962419D01*
X186863884Y-84962419D02*
X187101979Y-84962419D01*
X187101979Y-84962419D02*
X187197217Y-84914800D01*
X187197217Y-84914800D02*
X187244836Y-84867180D01*
X187244836Y-84867180D02*
X187292455Y-84771942D01*
X187292455Y-84771942D02*
X187292455Y-84676704D01*
X187292455Y-84676704D02*
X187244836Y-84581466D01*
X187244836Y-84581466D02*
X187197217Y-84533847D01*
X187197217Y-84533847D02*
X187101979Y-84486228D01*
X187101979Y-84486228D02*
X186911503Y-84438609D01*
X186911503Y-84438609D02*
X186816265Y-84390990D01*
X186816265Y-84390990D02*
X186768646Y-84343371D01*
X186768646Y-84343371D02*
X186721027Y-84248133D01*
X186721027Y-84248133D02*
X186721027Y-84152895D01*
X186721027Y-84152895D02*
X186768646Y-84057657D01*
X186768646Y-84057657D02*
X186816265Y-84010038D01*
X186816265Y-84010038D02*
X186911503Y-83962419D01*
X186911503Y-83962419D02*
X187149598Y-83962419D01*
X187149598Y-83962419D02*
X187292455Y-84010038D01*
X187721027Y-84962419D02*
X187721027Y-83962419D01*
X187721027Y-83962419D02*
X188101979Y-83962419D01*
X188101979Y-83962419D02*
X188197217Y-84010038D01*
X188197217Y-84010038D02*
X188244836Y-84057657D01*
X188244836Y-84057657D02*
X188292455Y-84152895D01*
X188292455Y-84152895D02*
X188292455Y-84295752D01*
X188292455Y-84295752D02*
X188244836Y-84390990D01*
X188244836Y-84390990D02*
X188197217Y-84438609D01*
X188197217Y-84438609D02*
X188101979Y-84486228D01*
X188101979Y-84486228D02*
X187721027Y-84486228D01*
X188625789Y-83962419D02*
X189244836Y-83962419D01*
X189244836Y-83962419D02*
X188911503Y-84343371D01*
X188911503Y-84343371D02*
X189054360Y-84343371D01*
X189054360Y-84343371D02*
X189149598Y-84390990D01*
X189149598Y-84390990D02*
X189197217Y-84438609D01*
X189197217Y-84438609D02*
X189244836Y-84533847D01*
X189244836Y-84533847D02*
X189244836Y-84771942D01*
X189244836Y-84771942D02*
X189197217Y-84867180D01*
X189197217Y-84867180D02*
X189149598Y-84914800D01*
X189149598Y-84914800D02*
X189054360Y-84962419D01*
X189054360Y-84962419D02*
X188768646Y-84962419D01*
X188768646Y-84962419D02*
X188673408Y-84914800D01*
X188673408Y-84914800D02*
X188625789Y-84867180D01*
X189625789Y-84057657D02*
X189673408Y-84010038D01*
X189673408Y-84010038D02*
X189768646Y-83962419D01*
X189768646Y-83962419D02*
X190006741Y-83962419D01*
X190006741Y-83962419D02*
X190101979Y-84010038D01*
X190101979Y-84010038D02*
X190149598Y-84057657D01*
X190149598Y-84057657D02*
X190197217Y-84152895D01*
X190197217Y-84152895D02*
X190197217Y-84248133D01*
X190197217Y-84248133D02*
X190149598Y-84390990D01*
X190149598Y-84390990D02*
X189578170Y-84962419D01*
X189578170Y-84962419D02*
X190197217Y-84962419D01*
X190625789Y-84581466D02*
X191387694Y-84581466D01*
X192435312Y-84867180D02*
X192387693Y-84914800D01*
X192387693Y-84914800D02*
X192244836Y-84962419D01*
X192244836Y-84962419D02*
X192149598Y-84962419D01*
X192149598Y-84962419D02*
X192006741Y-84914800D01*
X192006741Y-84914800D02*
X191911503Y-84819561D01*
X191911503Y-84819561D02*
X191863884Y-84724323D01*
X191863884Y-84724323D02*
X191816265Y-84533847D01*
X191816265Y-84533847D02*
X191816265Y-84390990D01*
X191816265Y-84390990D02*
X191863884Y-84200514D01*
X191863884Y-84200514D02*
X191911503Y-84105276D01*
X191911503Y-84105276D02*
X192006741Y-84010038D01*
X192006741Y-84010038D02*
X192149598Y-83962419D01*
X192149598Y-83962419D02*
X192244836Y-83962419D01*
X192244836Y-83962419D02*
X192387693Y-84010038D01*
X192387693Y-84010038D02*
X192435312Y-84057657D01*
X192768646Y-83962419D02*
X193387693Y-83962419D01*
X193387693Y-83962419D02*
X193054360Y-84343371D01*
X193054360Y-84343371D02*
X193197217Y-84343371D01*
X193197217Y-84343371D02*
X193292455Y-84390990D01*
X193292455Y-84390990D02*
X193340074Y-84438609D01*
X193340074Y-84438609D02*
X193387693Y-84533847D01*
X193387693Y-84533847D02*
X193387693Y-84771942D01*
X193387693Y-84771942D02*
X193340074Y-84867180D01*
X193340074Y-84867180D02*
X193292455Y-84914800D01*
X193292455Y-84914800D02*
X193197217Y-84962419D01*
X193197217Y-84962419D02*
X192911503Y-84962419D01*
X192911503Y-84962419D02*
X192816265Y-84914800D01*
X192816265Y-84914800D02*
X192768646Y-84867180D01*
X193816265Y-84581466D02*
X194578170Y-84581466D01*
X195054360Y-84962419D02*
X195054360Y-83962419D01*
X195054360Y-83962419D02*
X195292455Y-83962419D01*
X195292455Y-83962419D02*
X195435312Y-84010038D01*
X195435312Y-84010038D02*
X195530550Y-84105276D01*
X195530550Y-84105276D02*
X195578169Y-84200514D01*
X195578169Y-84200514D02*
X195625788Y-84390990D01*
X195625788Y-84390990D02*
X195625788Y-84533847D01*
X195625788Y-84533847D02*
X195578169Y-84724323D01*
X195578169Y-84724323D02*
X195530550Y-84819561D01*
X195530550Y-84819561D02*
X195435312Y-84914800D01*
X195435312Y-84914800D02*
X195292455Y-84962419D01*
X195292455Y-84962419D02*
X195054360Y-84962419D01*
X196435312Y-84914800D02*
X196340074Y-84962419D01*
X196340074Y-84962419D02*
X196149598Y-84962419D01*
X196149598Y-84962419D02*
X196054360Y-84914800D01*
X196054360Y-84914800D02*
X196006741Y-84819561D01*
X196006741Y-84819561D02*
X196006741Y-84438609D01*
X196006741Y-84438609D02*
X196054360Y-84343371D01*
X196054360Y-84343371D02*
X196149598Y-84295752D01*
X196149598Y-84295752D02*
X196340074Y-84295752D01*
X196340074Y-84295752D02*
X196435312Y-84343371D01*
X196435312Y-84343371D02*
X196482931Y-84438609D01*
X196482931Y-84438609D02*
X196482931Y-84533847D01*
X196482931Y-84533847D02*
X196006741Y-84629085D01*
X196816265Y-84295752D02*
X197054360Y-84962419D01*
X197054360Y-84962419D02*
X197292455Y-84295752D01*
X197673408Y-84962419D02*
X197673408Y-83962419D01*
X198244836Y-84962419D02*
X197816265Y-84390990D01*
X198244836Y-83962419D02*
X197673408Y-84533847D01*
X198673408Y-84962419D02*
X198673408Y-84295752D01*
X198673408Y-83962419D02*
X198625789Y-84010038D01*
X198625789Y-84010038D02*
X198673408Y-84057657D01*
X198673408Y-84057657D02*
X198721027Y-84010038D01*
X198721027Y-84010038D02*
X198673408Y-83962419D01*
X198673408Y-83962419D02*
X198673408Y-84057657D01*
X199006741Y-84295752D02*
X199387693Y-84295752D01*
X199149598Y-83962419D02*
X199149598Y-84819561D01*
X199149598Y-84819561D02*
X199197217Y-84914800D01*
X199197217Y-84914800D02*
X199292455Y-84962419D01*
X199292455Y-84962419D02*
X199387693Y-84962419D01*
X199721027Y-84962419D02*
X199721027Y-83962419D01*
X199721027Y-83962419D02*
X200054360Y-84676704D01*
X200054360Y-84676704D02*
X200387693Y-83962419D01*
X200387693Y-83962419D02*
X200387693Y-84962419D01*
X200863884Y-84581466D02*
X201625789Y-84581466D01*
X202625788Y-84962419D02*
X202054360Y-84962419D01*
X202340074Y-84962419D02*
X202340074Y-83962419D01*
X202340074Y-83962419D02*
X202244836Y-84105276D01*
X202244836Y-84105276D02*
X202149598Y-84200514D01*
X202149598Y-84200514D02*
X202054360Y-84248133D01*
X202207693Y-60880038D02*
X202112455Y-60832419D01*
X202112455Y-60832419D02*
X201969598Y-60832419D01*
X201969598Y-60832419D02*
X201826741Y-60880038D01*
X201826741Y-60880038D02*
X201731503Y-60975276D01*
X201731503Y-60975276D02*
X201683884Y-61070514D01*
X201683884Y-61070514D02*
X201636265Y-61260990D01*
X201636265Y-61260990D02*
X201636265Y-61403847D01*
X201636265Y-61403847D02*
X201683884Y-61594323D01*
X201683884Y-61594323D02*
X201731503Y-61689561D01*
X201731503Y-61689561D02*
X201826741Y-61784800D01*
X201826741Y-61784800D02*
X201969598Y-61832419D01*
X201969598Y-61832419D02*
X202064836Y-61832419D01*
X202064836Y-61832419D02*
X202207693Y-61784800D01*
X202207693Y-61784800D02*
X202255312Y-61737180D01*
X202255312Y-61737180D02*
X202255312Y-61403847D01*
X202255312Y-61403847D02*
X202064836Y-61403847D01*
X202683884Y-61832419D02*
X202683884Y-60832419D01*
X202683884Y-60832419D02*
X203255312Y-61832419D01*
X203255312Y-61832419D02*
X203255312Y-60832419D01*
X203731503Y-61832419D02*
X203731503Y-60832419D01*
X203731503Y-60832419D02*
X203969598Y-60832419D01*
X203969598Y-60832419D02*
X204112455Y-60880038D01*
X204112455Y-60880038D02*
X204207693Y-60975276D01*
X204207693Y-60975276D02*
X204255312Y-61070514D01*
X204255312Y-61070514D02*
X204302931Y-61260990D01*
X204302931Y-61260990D02*
X204302931Y-61403847D01*
X204302931Y-61403847D02*
X204255312Y-61594323D01*
X204255312Y-61594323D02*
X204207693Y-61689561D01*
X204207693Y-61689561D02*
X204112455Y-61784800D01*
X204112455Y-61784800D02*
X203969598Y-61832419D01*
X203969598Y-61832419D02*
X203731503Y-61832419D01*
X202297693Y-68460038D02*
X202202455Y-68412419D01*
X202202455Y-68412419D02*
X202059598Y-68412419D01*
X202059598Y-68412419D02*
X201916741Y-68460038D01*
X201916741Y-68460038D02*
X201821503Y-68555276D01*
X201821503Y-68555276D02*
X201773884Y-68650514D01*
X201773884Y-68650514D02*
X201726265Y-68840990D01*
X201726265Y-68840990D02*
X201726265Y-68983847D01*
X201726265Y-68983847D02*
X201773884Y-69174323D01*
X201773884Y-69174323D02*
X201821503Y-69269561D01*
X201821503Y-69269561D02*
X201916741Y-69364800D01*
X201916741Y-69364800D02*
X202059598Y-69412419D01*
X202059598Y-69412419D02*
X202154836Y-69412419D01*
X202154836Y-69412419D02*
X202297693Y-69364800D01*
X202297693Y-69364800D02*
X202345312Y-69317180D01*
X202345312Y-69317180D02*
X202345312Y-68983847D01*
X202345312Y-68983847D02*
X202154836Y-68983847D01*
X202773884Y-69412419D02*
X202773884Y-68412419D01*
X202773884Y-68412419D02*
X203345312Y-69412419D01*
X203345312Y-69412419D02*
X203345312Y-68412419D01*
X203821503Y-69412419D02*
X203821503Y-68412419D01*
X203821503Y-68412419D02*
X204059598Y-68412419D01*
X204059598Y-68412419D02*
X204202455Y-68460038D01*
X204202455Y-68460038D02*
X204297693Y-68555276D01*
X204297693Y-68555276D02*
X204345312Y-68650514D01*
X204345312Y-68650514D02*
X204392931Y-68840990D01*
X204392931Y-68840990D02*
X204392931Y-68983847D01*
X204392931Y-68983847D02*
X204345312Y-69174323D01*
X204345312Y-69174323D02*
X204297693Y-69269561D01*
X204297693Y-69269561D02*
X204202455Y-69364800D01*
X204202455Y-69364800D02*
X204059598Y-69412419D01*
X204059598Y-69412419D02*
X203821503Y-69412419D01*
X207383884Y-114481466D02*
X208145789Y-114481466D01*
X207764836Y-114862419D02*
X207764836Y-114100514D01*
X208955312Y-114338609D02*
X209098169Y-114386228D01*
X209098169Y-114386228D02*
X209145788Y-114433847D01*
X209145788Y-114433847D02*
X209193407Y-114529085D01*
X209193407Y-114529085D02*
X209193407Y-114671942D01*
X209193407Y-114671942D02*
X209145788Y-114767180D01*
X209145788Y-114767180D02*
X209098169Y-114814800D01*
X209098169Y-114814800D02*
X209002931Y-114862419D01*
X209002931Y-114862419D02*
X208621979Y-114862419D01*
X208621979Y-114862419D02*
X208621979Y-113862419D01*
X208621979Y-113862419D02*
X208955312Y-113862419D01*
X208955312Y-113862419D02*
X209050550Y-113910038D01*
X209050550Y-113910038D02*
X209098169Y-113957657D01*
X209098169Y-113957657D02*
X209145788Y-114052895D01*
X209145788Y-114052895D02*
X209145788Y-114148133D01*
X209145788Y-114148133D02*
X209098169Y-114243371D01*
X209098169Y-114243371D02*
X209050550Y-114290990D01*
X209050550Y-114290990D02*
X208955312Y-114338609D01*
X208955312Y-114338609D02*
X208621979Y-114338609D01*
X210050550Y-114862419D02*
X210050550Y-114338609D01*
X210050550Y-114338609D02*
X210002931Y-114243371D01*
X210002931Y-114243371D02*
X209907693Y-114195752D01*
X209907693Y-114195752D02*
X209717217Y-114195752D01*
X209717217Y-114195752D02*
X209621979Y-114243371D01*
X210050550Y-114814800D02*
X209955312Y-114862419D01*
X209955312Y-114862419D02*
X209717217Y-114862419D01*
X209717217Y-114862419D02*
X209621979Y-114814800D01*
X209621979Y-114814800D02*
X209574360Y-114719561D01*
X209574360Y-114719561D02*
X209574360Y-114624323D01*
X209574360Y-114624323D02*
X209621979Y-114529085D01*
X209621979Y-114529085D02*
X209717217Y-114481466D01*
X209717217Y-114481466D02*
X209955312Y-114481466D01*
X209955312Y-114481466D02*
X210050550Y-114433847D01*
X210383884Y-114195752D02*
X210764836Y-114195752D01*
X210526741Y-113862419D02*
X210526741Y-114719561D01*
X210526741Y-114719561D02*
X210574360Y-114814800D01*
X210574360Y-114814800D02*
X210669598Y-114862419D01*
X210669598Y-114862419D02*
X210764836Y-114862419D01*
X210955313Y-114195752D02*
X211336265Y-114195752D01*
X211098170Y-113862419D02*
X211098170Y-114719561D01*
X211098170Y-114719561D02*
X211145789Y-114814800D01*
X211145789Y-114814800D02*
X211241027Y-114862419D01*
X211241027Y-114862419D02*
X211336265Y-114862419D01*
X212050551Y-114814800D02*
X211955313Y-114862419D01*
X211955313Y-114862419D02*
X211764837Y-114862419D01*
X211764837Y-114862419D02*
X211669599Y-114814800D01*
X211669599Y-114814800D02*
X211621980Y-114719561D01*
X211621980Y-114719561D02*
X211621980Y-114338609D01*
X211621980Y-114338609D02*
X211669599Y-114243371D01*
X211669599Y-114243371D02*
X211764837Y-114195752D01*
X211764837Y-114195752D02*
X211955313Y-114195752D01*
X211955313Y-114195752D02*
X212050551Y-114243371D01*
X212050551Y-114243371D02*
X212098170Y-114338609D01*
X212098170Y-114338609D02*
X212098170Y-114433847D01*
X212098170Y-114433847D02*
X211621980Y-114529085D01*
X212526742Y-114862419D02*
X212526742Y-114195752D01*
X212526742Y-114386228D02*
X212574361Y-114290990D01*
X212574361Y-114290990D02*
X212621980Y-114243371D01*
X212621980Y-114243371D02*
X212717218Y-114195752D01*
X212717218Y-114195752D02*
X212812456Y-114195752D01*
X213050552Y-114195752D02*
X213288647Y-114862419D01*
X213526742Y-114195752D02*
X213288647Y-114862419D01*
X213288647Y-114862419D02*
X213193409Y-115100514D01*
X213193409Y-115100514D02*
X213145790Y-115148133D01*
X213145790Y-115148133D02*
X213050552Y-115195752D01*
X209587693Y-121540038D02*
X209492455Y-121492419D01*
X209492455Y-121492419D02*
X209349598Y-121492419D01*
X209349598Y-121492419D02*
X209206741Y-121540038D01*
X209206741Y-121540038D02*
X209111503Y-121635276D01*
X209111503Y-121635276D02*
X209063884Y-121730514D01*
X209063884Y-121730514D02*
X209016265Y-121920990D01*
X209016265Y-121920990D02*
X209016265Y-122063847D01*
X209016265Y-122063847D02*
X209063884Y-122254323D01*
X209063884Y-122254323D02*
X209111503Y-122349561D01*
X209111503Y-122349561D02*
X209206741Y-122444800D01*
X209206741Y-122444800D02*
X209349598Y-122492419D01*
X209349598Y-122492419D02*
X209444836Y-122492419D01*
X209444836Y-122492419D02*
X209587693Y-122444800D01*
X209587693Y-122444800D02*
X209635312Y-122397180D01*
X209635312Y-122397180D02*
X209635312Y-122063847D01*
X209635312Y-122063847D02*
X209444836Y-122063847D01*
X210063884Y-122492419D02*
X210063884Y-121492419D01*
X210063884Y-121492419D02*
X210635312Y-122492419D01*
X210635312Y-122492419D02*
X210635312Y-121492419D01*
X211111503Y-122492419D02*
X211111503Y-121492419D01*
X211111503Y-121492419D02*
X211349598Y-121492419D01*
X211349598Y-121492419D02*
X211492455Y-121540038D01*
X211492455Y-121540038D02*
X211587693Y-121635276D01*
X211587693Y-121635276D02*
X211635312Y-121730514D01*
X211635312Y-121730514D02*
X211682931Y-121920990D01*
X211682931Y-121920990D02*
X211682931Y-122063847D01*
X211682931Y-122063847D02*
X211635312Y-122254323D01*
X211635312Y-122254323D02*
X211587693Y-122349561D01*
X211587693Y-122349561D02*
X211492455Y-122444800D01*
X211492455Y-122444800D02*
X211349598Y-122492419D01*
X211349598Y-122492419D02*
X211111503Y-122492419D01*
X212147693Y-47770038D02*
X212052455Y-47722419D01*
X212052455Y-47722419D02*
X211909598Y-47722419D01*
X211909598Y-47722419D02*
X211766741Y-47770038D01*
X211766741Y-47770038D02*
X211671503Y-47865276D01*
X211671503Y-47865276D02*
X211623884Y-47960514D01*
X211623884Y-47960514D02*
X211576265Y-48150990D01*
X211576265Y-48150990D02*
X211576265Y-48293847D01*
X211576265Y-48293847D02*
X211623884Y-48484323D01*
X211623884Y-48484323D02*
X211671503Y-48579561D01*
X211671503Y-48579561D02*
X211766741Y-48674800D01*
X211766741Y-48674800D02*
X211909598Y-48722419D01*
X211909598Y-48722419D02*
X212004836Y-48722419D01*
X212004836Y-48722419D02*
X212147693Y-48674800D01*
X212147693Y-48674800D02*
X212195312Y-48627180D01*
X212195312Y-48627180D02*
X212195312Y-48293847D01*
X212195312Y-48293847D02*
X212004836Y-48293847D01*
X212623884Y-48722419D02*
X212623884Y-47722419D01*
X212623884Y-47722419D02*
X213195312Y-48722419D01*
X213195312Y-48722419D02*
X213195312Y-47722419D01*
X213671503Y-48722419D02*
X213671503Y-47722419D01*
X213671503Y-47722419D02*
X213909598Y-47722419D01*
X213909598Y-47722419D02*
X214052455Y-47770038D01*
X214052455Y-47770038D02*
X214147693Y-47865276D01*
X214147693Y-47865276D02*
X214195312Y-47960514D01*
X214195312Y-47960514D02*
X214242931Y-48150990D01*
X214242931Y-48150990D02*
X214242931Y-48293847D01*
X214242931Y-48293847D02*
X214195312Y-48484323D01*
X214195312Y-48484323D02*
X214147693Y-48579561D01*
X214147693Y-48579561D02*
X214052455Y-48674800D01*
X214052455Y-48674800D02*
X213909598Y-48722419D01*
X213909598Y-48722419D02*
X213671503Y-48722419D01*
X215318884Y-77077419D02*
X215318884Y-76077419D01*
X215318884Y-76077419D02*
X215556979Y-76077419D01*
X215556979Y-76077419D02*
X215699836Y-76125038D01*
X215699836Y-76125038D02*
X215795074Y-76220276D01*
X215795074Y-76220276D02*
X215842693Y-76315514D01*
X215842693Y-76315514D02*
X215890312Y-76505990D01*
X215890312Y-76505990D02*
X215890312Y-76648847D01*
X215890312Y-76648847D02*
X215842693Y-76839323D01*
X215842693Y-76839323D02*
X215795074Y-76934561D01*
X215795074Y-76934561D02*
X215699836Y-77029800D01*
X215699836Y-77029800D02*
X215556979Y-77077419D01*
X215556979Y-77077419D02*
X215318884Y-77077419D01*
X216890312Y-77077419D02*
X216556979Y-76601228D01*
X216318884Y-77077419D02*
X216318884Y-76077419D01*
X216318884Y-76077419D02*
X216699836Y-76077419D01*
X216699836Y-76077419D02*
X216795074Y-76125038D01*
X216795074Y-76125038D02*
X216842693Y-76172657D01*
X216842693Y-76172657D02*
X216890312Y-76267895D01*
X216890312Y-76267895D02*
X216890312Y-76410752D01*
X216890312Y-76410752D02*
X216842693Y-76505990D01*
X216842693Y-76505990D02*
X216795074Y-76553609D01*
X216795074Y-76553609D02*
X216699836Y-76601228D01*
X216699836Y-76601228D02*
X216318884Y-76601228D01*
X217176027Y-76077419D02*
X217509360Y-77077419D01*
X217509360Y-77077419D02*
X217842693Y-76077419D01*
X218318884Y-76505990D02*
X218223646Y-76458371D01*
X218223646Y-76458371D02*
X218176027Y-76410752D01*
X218176027Y-76410752D02*
X218128408Y-76315514D01*
X218128408Y-76315514D02*
X218128408Y-76267895D01*
X218128408Y-76267895D02*
X218176027Y-76172657D01*
X218176027Y-76172657D02*
X218223646Y-76125038D01*
X218223646Y-76125038D02*
X218318884Y-76077419D01*
X218318884Y-76077419D02*
X218509360Y-76077419D01*
X218509360Y-76077419D02*
X218604598Y-76125038D01*
X218604598Y-76125038D02*
X218652217Y-76172657D01*
X218652217Y-76172657D02*
X218699836Y-76267895D01*
X218699836Y-76267895D02*
X218699836Y-76315514D01*
X218699836Y-76315514D02*
X218652217Y-76410752D01*
X218652217Y-76410752D02*
X218604598Y-76458371D01*
X218604598Y-76458371D02*
X218509360Y-76505990D01*
X218509360Y-76505990D02*
X218318884Y-76505990D01*
X218318884Y-76505990D02*
X218223646Y-76553609D01*
X218223646Y-76553609D02*
X218176027Y-76601228D01*
X218176027Y-76601228D02*
X218128408Y-76696466D01*
X218128408Y-76696466D02*
X218128408Y-76886942D01*
X218128408Y-76886942D02*
X218176027Y-76982180D01*
X218176027Y-76982180D02*
X218223646Y-77029800D01*
X218223646Y-77029800D02*
X218318884Y-77077419D01*
X218318884Y-77077419D02*
X218509360Y-77077419D01*
X218509360Y-77077419D02*
X218604598Y-77029800D01*
X218604598Y-77029800D02*
X218652217Y-76982180D01*
X218652217Y-76982180D02*
X218699836Y-76886942D01*
X218699836Y-76886942D02*
X218699836Y-76696466D01*
X218699836Y-76696466D02*
X218652217Y-76601228D01*
X218652217Y-76601228D02*
X218604598Y-76553609D01*
X218604598Y-76553609D02*
X218509360Y-76505990D01*
X219271265Y-76505990D02*
X219176027Y-76458371D01*
X219176027Y-76458371D02*
X219128408Y-76410752D01*
X219128408Y-76410752D02*
X219080789Y-76315514D01*
X219080789Y-76315514D02*
X219080789Y-76267895D01*
X219080789Y-76267895D02*
X219128408Y-76172657D01*
X219128408Y-76172657D02*
X219176027Y-76125038D01*
X219176027Y-76125038D02*
X219271265Y-76077419D01*
X219271265Y-76077419D02*
X219461741Y-76077419D01*
X219461741Y-76077419D02*
X219556979Y-76125038D01*
X219556979Y-76125038D02*
X219604598Y-76172657D01*
X219604598Y-76172657D02*
X219652217Y-76267895D01*
X219652217Y-76267895D02*
X219652217Y-76315514D01*
X219652217Y-76315514D02*
X219604598Y-76410752D01*
X219604598Y-76410752D02*
X219556979Y-76458371D01*
X219556979Y-76458371D02*
X219461741Y-76505990D01*
X219461741Y-76505990D02*
X219271265Y-76505990D01*
X219271265Y-76505990D02*
X219176027Y-76553609D01*
X219176027Y-76553609D02*
X219128408Y-76601228D01*
X219128408Y-76601228D02*
X219080789Y-76696466D01*
X219080789Y-76696466D02*
X219080789Y-76886942D01*
X219080789Y-76886942D02*
X219128408Y-76982180D01*
X219128408Y-76982180D02*
X219176027Y-77029800D01*
X219176027Y-77029800D02*
X219271265Y-77077419D01*
X219271265Y-77077419D02*
X219461741Y-77077419D01*
X219461741Y-77077419D02*
X219556979Y-77029800D01*
X219556979Y-77029800D02*
X219604598Y-76982180D01*
X219604598Y-76982180D02*
X219652217Y-76886942D01*
X219652217Y-76886942D02*
X219652217Y-76696466D01*
X219652217Y-76696466D02*
X219604598Y-76601228D01*
X219604598Y-76601228D02*
X219556979Y-76553609D01*
X219556979Y-76553609D02*
X219461741Y-76505990D01*
X219985551Y-76077419D02*
X220604598Y-76077419D01*
X220604598Y-76077419D02*
X220271265Y-76458371D01*
X220271265Y-76458371D02*
X220414122Y-76458371D01*
X220414122Y-76458371D02*
X220509360Y-76505990D01*
X220509360Y-76505990D02*
X220556979Y-76553609D01*
X220556979Y-76553609D02*
X220604598Y-76648847D01*
X220604598Y-76648847D02*
X220604598Y-76886942D01*
X220604598Y-76886942D02*
X220556979Y-76982180D01*
X220556979Y-76982180D02*
X220509360Y-77029800D01*
X220509360Y-77029800D02*
X220414122Y-77077419D01*
X220414122Y-77077419D02*
X220128408Y-77077419D01*
X220128408Y-77077419D02*
X220033170Y-77029800D01*
X220033170Y-77029800D02*
X219985551Y-76982180D01*
X220937932Y-76077419D02*
X221556979Y-76077419D01*
X221556979Y-76077419D02*
X221223646Y-76458371D01*
X221223646Y-76458371D02*
X221366503Y-76458371D01*
X221366503Y-76458371D02*
X221461741Y-76505990D01*
X221461741Y-76505990D02*
X221509360Y-76553609D01*
X221509360Y-76553609D02*
X221556979Y-76648847D01*
X221556979Y-76648847D02*
X221556979Y-76886942D01*
X221556979Y-76886942D02*
X221509360Y-76982180D01*
X221509360Y-76982180D02*
X221461741Y-77029800D01*
X221461741Y-77029800D02*
X221366503Y-77077419D01*
X221366503Y-77077419D02*
X221080789Y-77077419D01*
X221080789Y-77077419D02*
X220985551Y-77029800D01*
X220985551Y-77029800D02*
X220937932Y-76982180D01*
X222747456Y-77077419D02*
X222747456Y-76077419D01*
X222747456Y-76077419D02*
X223080789Y-76791704D01*
X223080789Y-76791704D02*
X223414122Y-76077419D01*
X223414122Y-76077419D02*
X223414122Y-77077419D01*
X224033170Y-77077419D02*
X223937932Y-77029800D01*
X223937932Y-77029800D02*
X223890313Y-76982180D01*
X223890313Y-76982180D02*
X223842694Y-76886942D01*
X223842694Y-76886942D02*
X223842694Y-76601228D01*
X223842694Y-76601228D02*
X223890313Y-76505990D01*
X223890313Y-76505990D02*
X223937932Y-76458371D01*
X223937932Y-76458371D02*
X224033170Y-76410752D01*
X224033170Y-76410752D02*
X224176027Y-76410752D01*
X224176027Y-76410752D02*
X224271265Y-76458371D01*
X224271265Y-76458371D02*
X224318884Y-76505990D01*
X224318884Y-76505990D02*
X224366503Y-76601228D01*
X224366503Y-76601228D02*
X224366503Y-76886942D01*
X224366503Y-76886942D02*
X224318884Y-76982180D01*
X224318884Y-76982180D02*
X224271265Y-77029800D01*
X224271265Y-77029800D02*
X224176027Y-77077419D01*
X224176027Y-77077419D02*
X224033170Y-77077419D01*
X224652218Y-76410752D02*
X225033170Y-76410752D01*
X224795075Y-76077419D02*
X224795075Y-76934561D01*
X224795075Y-76934561D02*
X224842694Y-77029800D01*
X224842694Y-77029800D02*
X224937932Y-77077419D01*
X224937932Y-77077419D02*
X225033170Y-77077419D01*
X225509361Y-77077419D02*
X225414123Y-77029800D01*
X225414123Y-77029800D02*
X225366504Y-76982180D01*
X225366504Y-76982180D02*
X225318885Y-76886942D01*
X225318885Y-76886942D02*
X225318885Y-76601228D01*
X225318885Y-76601228D02*
X225366504Y-76505990D01*
X225366504Y-76505990D02*
X225414123Y-76458371D01*
X225414123Y-76458371D02*
X225509361Y-76410752D01*
X225509361Y-76410752D02*
X225652218Y-76410752D01*
X225652218Y-76410752D02*
X225747456Y-76458371D01*
X225747456Y-76458371D02*
X225795075Y-76505990D01*
X225795075Y-76505990D02*
X225842694Y-76601228D01*
X225842694Y-76601228D02*
X225842694Y-76886942D01*
X225842694Y-76886942D02*
X225795075Y-76982180D01*
X225795075Y-76982180D02*
X225747456Y-77029800D01*
X225747456Y-77029800D02*
X225652218Y-77077419D01*
X225652218Y-77077419D02*
X225509361Y-77077419D01*
X226271266Y-77077419D02*
X226271266Y-76410752D01*
X226271266Y-76601228D02*
X226318885Y-76505990D01*
X226318885Y-76505990D02*
X226366504Y-76458371D01*
X226366504Y-76458371D02*
X226461742Y-76410752D01*
X226461742Y-76410752D02*
X226556980Y-76410752D01*
X227652219Y-77077419D02*
X227652219Y-76077419D01*
X227652219Y-76077419D02*
X227890314Y-76077419D01*
X227890314Y-76077419D02*
X228033171Y-76125038D01*
X228033171Y-76125038D02*
X228128409Y-76220276D01*
X228128409Y-76220276D02*
X228176028Y-76315514D01*
X228176028Y-76315514D02*
X228223647Y-76505990D01*
X228223647Y-76505990D02*
X228223647Y-76648847D01*
X228223647Y-76648847D02*
X228176028Y-76839323D01*
X228176028Y-76839323D02*
X228128409Y-76934561D01*
X228128409Y-76934561D02*
X228033171Y-77029800D01*
X228033171Y-77029800D02*
X227890314Y-77077419D01*
X227890314Y-77077419D02*
X227652219Y-77077419D01*
X228652219Y-77077419D02*
X228652219Y-76410752D01*
X228652219Y-76601228D02*
X228699838Y-76505990D01*
X228699838Y-76505990D02*
X228747457Y-76458371D01*
X228747457Y-76458371D02*
X228842695Y-76410752D01*
X228842695Y-76410752D02*
X228937933Y-76410752D01*
X229271267Y-77077419D02*
X229271267Y-76410752D01*
X229271267Y-76077419D02*
X229223648Y-76125038D01*
X229223648Y-76125038D02*
X229271267Y-76172657D01*
X229271267Y-76172657D02*
X229318886Y-76125038D01*
X229318886Y-76125038D02*
X229271267Y-76077419D01*
X229271267Y-76077419D02*
X229271267Y-76172657D01*
X229652219Y-76410752D02*
X229890314Y-77077419D01*
X229890314Y-77077419D02*
X230128409Y-76410752D01*
X230890314Y-77029800D02*
X230795076Y-77077419D01*
X230795076Y-77077419D02*
X230604600Y-77077419D01*
X230604600Y-77077419D02*
X230509362Y-77029800D01*
X230509362Y-77029800D02*
X230461743Y-76934561D01*
X230461743Y-76934561D02*
X230461743Y-76553609D01*
X230461743Y-76553609D02*
X230509362Y-76458371D01*
X230509362Y-76458371D02*
X230604600Y-76410752D01*
X230604600Y-76410752D02*
X230795076Y-76410752D01*
X230795076Y-76410752D02*
X230890314Y-76458371D01*
X230890314Y-76458371D02*
X230937933Y-76553609D01*
X230937933Y-76553609D02*
X230937933Y-76648847D01*
X230937933Y-76648847D02*
X230461743Y-76744085D01*
X231366505Y-77077419D02*
X231366505Y-76410752D01*
X231366505Y-76601228D02*
X231414124Y-76505990D01*
X231414124Y-76505990D02*
X231461743Y-76458371D01*
X231461743Y-76458371D02*
X231556981Y-76410752D01*
X231556981Y-76410752D02*
X231652219Y-76410752D01*
X226037693Y-118155038D02*
X225942455Y-118107419D01*
X225942455Y-118107419D02*
X225799598Y-118107419D01*
X225799598Y-118107419D02*
X225656741Y-118155038D01*
X225656741Y-118155038D02*
X225561503Y-118250276D01*
X225561503Y-118250276D02*
X225513884Y-118345514D01*
X225513884Y-118345514D02*
X225466265Y-118535990D01*
X225466265Y-118535990D02*
X225466265Y-118678847D01*
X225466265Y-118678847D02*
X225513884Y-118869323D01*
X225513884Y-118869323D02*
X225561503Y-118964561D01*
X225561503Y-118964561D02*
X225656741Y-119059800D01*
X225656741Y-119059800D02*
X225799598Y-119107419D01*
X225799598Y-119107419D02*
X225894836Y-119107419D01*
X225894836Y-119107419D02*
X226037693Y-119059800D01*
X226037693Y-119059800D02*
X226085312Y-119012180D01*
X226085312Y-119012180D02*
X226085312Y-118678847D01*
X226085312Y-118678847D02*
X225894836Y-118678847D01*
X226513884Y-119107419D02*
X226513884Y-118107419D01*
X226513884Y-118107419D02*
X227085312Y-119107419D01*
X227085312Y-119107419D02*
X227085312Y-118107419D01*
X227561503Y-119107419D02*
X227561503Y-118107419D01*
X227561503Y-118107419D02*
X227799598Y-118107419D01*
X227799598Y-118107419D02*
X227942455Y-118155038D01*
X227942455Y-118155038D02*
X228037693Y-118250276D01*
X228037693Y-118250276D02*
X228085312Y-118345514D01*
X228085312Y-118345514D02*
X228132931Y-118535990D01*
X228132931Y-118535990D02*
X228132931Y-118678847D01*
X228132931Y-118678847D02*
X228085312Y-118869323D01*
X228085312Y-118869323D02*
X228037693Y-118964561D01*
X228037693Y-118964561D02*
X227942455Y-119059800D01*
X227942455Y-119059800D02*
X227799598Y-119107419D01*
X227799598Y-119107419D02*
X227561503Y-119107419D01*
X124162419Y-110831353D02*
X124162419Y-110212306D01*
X124162419Y-110212306D02*
X124543371Y-110545639D01*
X124543371Y-110545639D02*
X124543371Y-110402782D01*
X124543371Y-110402782D02*
X124590990Y-110307544D01*
X124590990Y-110307544D02*
X124638609Y-110259925D01*
X124638609Y-110259925D02*
X124733847Y-110212306D01*
X124733847Y-110212306D02*
X124971942Y-110212306D01*
X124971942Y-110212306D02*
X125067180Y-110259925D01*
X125067180Y-110259925D02*
X125114800Y-110307544D01*
X125114800Y-110307544D02*
X125162419Y-110402782D01*
X125162419Y-110402782D02*
X125162419Y-110688496D01*
X125162419Y-110688496D02*
X125114800Y-110783734D01*
X125114800Y-110783734D02*
X125067180Y-110831353D01*
X125067180Y-109783734D02*
X125114800Y-109736115D01*
X125114800Y-109736115D02*
X125162419Y-109783734D01*
X125162419Y-109783734D02*
X125114800Y-109831353D01*
X125114800Y-109831353D02*
X125067180Y-109783734D01*
X125067180Y-109783734D02*
X125162419Y-109783734D01*
X124162419Y-109402782D02*
X124162419Y-108783735D01*
X124162419Y-108783735D02*
X124543371Y-109117068D01*
X124543371Y-109117068D02*
X124543371Y-108974211D01*
X124543371Y-108974211D02*
X124590990Y-108878973D01*
X124590990Y-108878973D02*
X124638609Y-108831354D01*
X124638609Y-108831354D02*
X124733847Y-108783735D01*
X124733847Y-108783735D02*
X124971942Y-108783735D01*
X124971942Y-108783735D02*
X125067180Y-108831354D01*
X125067180Y-108831354D02*
X125114800Y-108878973D01*
X125114800Y-108878973D02*
X125162419Y-108974211D01*
X125162419Y-108974211D02*
X125162419Y-109259925D01*
X125162419Y-109259925D02*
X125114800Y-109355163D01*
X125114800Y-109355163D02*
X125067180Y-109402782D01*
X124495752Y-108450401D02*
X125162419Y-108212306D01*
X125162419Y-108212306D02*
X124495752Y-107974211D01*
X149698609Y-103646115D02*
X149698609Y-103312782D01*
X150222419Y-103169925D02*
X150222419Y-103646115D01*
X150222419Y-103646115D02*
X149222419Y-103646115D01*
X149222419Y-103646115D02*
X149222419Y-103169925D01*
X150174800Y-102788972D02*
X150222419Y-102646115D01*
X150222419Y-102646115D02*
X150222419Y-102408020D01*
X150222419Y-102408020D02*
X150174800Y-102312782D01*
X150174800Y-102312782D02*
X150127180Y-102265163D01*
X150127180Y-102265163D02*
X150031942Y-102217544D01*
X150031942Y-102217544D02*
X149936704Y-102217544D01*
X149936704Y-102217544D02*
X149841466Y-102265163D01*
X149841466Y-102265163D02*
X149793847Y-102312782D01*
X149793847Y-102312782D02*
X149746228Y-102408020D01*
X149746228Y-102408020D02*
X149698609Y-102598496D01*
X149698609Y-102598496D02*
X149650990Y-102693734D01*
X149650990Y-102693734D02*
X149603371Y-102741353D01*
X149603371Y-102741353D02*
X149508133Y-102788972D01*
X149508133Y-102788972D02*
X149412895Y-102788972D01*
X149412895Y-102788972D02*
X149317657Y-102741353D01*
X149317657Y-102741353D02*
X149270038Y-102693734D01*
X149270038Y-102693734D02*
X149222419Y-102598496D01*
X149222419Y-102598496D02*
X149222419Y-102360401D01*
X149222419Y-102360401D02*
X149270038Y-102217544D01*
X150222419Y-101788972D02*
X149222419Y-101788972D01*
X149222419Y-101788972D02*
X149222419Y-101408020D01*
X149222419Y-101408020D02*
X149270038Y-101312782D01*
X149270038Y-101312782D02*
X149317657Y-101265163D01*
X149317657Y-101265163D02*
X149412895Y-101217544D01*
X149412895Y-101217544D02*
X149555752Y-101217544D01*
X149555752Y-101217544D02*
X149650990Y-101265163D01*
X149650990Y-101265163D02*
X149698609Y-101312782D01*
X149698609Y-101312782D02*
X149746228Y-101408020D01*
X149746228Y-101408020D02*
X149746228Y-101788972D01*
X149222419Y-100884210D02*
X149222419Y-100265163D01*
X149222419Y-100265163D02*
X149603371Y-100598496D01*
X149603371Y-100598496D02*
X149603371Y-100455639D01*
X149603371Y-100455639D02*
X149650990Y-100360401D01*
X149650990Y-100360401D02*
X149698609Y-100312782D01*
X149698609Y-100312782D02*
X149793847Y-100265163D01*
X149793847Y-100265163D02*
X150031942Y-100265163D01*
X150031942Y-100265163D02*
X150127180Y-100312782D01*
X150127180Y-100312782D02*
X150174800Y-100360401D01*
X150174800Y-100360401D02*
X150222419Y-100455639D01*
X150222419Y-100455639D02*
X150222419Y-100741353D01*
X150222419Y-100741353D02*
X150174800Y-100836591D01*
X150174800Y-100836591D02*
X150127180Y-100884210D01*
X149317657Y-99884210D02*
X149270038Y-99836591D01*
X149270038Y-99836591D02*
X149222419Y-99741353D01*
X149222419Y-99741353D02*
X149222419Y-99503258D01*
X149222419Y-99503258D02*
X149270038Y-99408020D01*
X149270038Y-99408020D02*
X149317657Y-99360401D01*
X149317657Y-99360401D02*
X149412895Y-99312782D01*
X149412895Y-99312782D02*
X149508133Y-99312782D01*
X149508133Y-99312782D02*
X149650990Y-99360401D01*
X149650990Y-99360401D02*
X150222419Y-99931829D01*
X150222419Y-99931829D02*
X150222419Y-99312782D01*
X150174800Y-98169924D02*
X150222419Y-98027067D01*
X150222419Y-98027067D02*
X150222419Y-97788972D01*
X150222419Y-97788972D02*
X150174800Y-97693734D01*
X150174800Y-97693734D02*
X150127180Y-97646115D01*
X150127180Y-97646115D02*
X150031942Y-97598496D01*
X150031942Y-97598496D02*
X149936704Y-97598496D01*
X149936704Y-97598496D02*
X149841466Y-97646115D01*
X149841466Y-97646115D02*
X149793847Y-97693734D01*
X149793847Y-97693734D02*
X149746228Y-97788972D01*
X149746228Y-97788972D02*
X149698609Y-97979448D01*
X149698609Y-97979448D02*
X149650990Y-98074686D01*
X149650990Y-98074686D02*
X149603371Y-98122305D01*
X149603371Y-98122305D02*
X149508133Y-98169924D01*
X149508133Y-98169924D02*
X149412895Y-98169924D01*
X149412895Y-98169924D02*
X149317657Y-98122305D01*
X149317657Y-98122305D02*
X149270038Y-98074686D01*
X149270038Y-98074686D02*
X149222419Y-97979448D01*
X149222419Y-97979448D02*
X149222419Y-97741353D01*
X149222419Y-97741353D02*
X149270038Y-97598496D01*
X149222419Y-97265162D02*
X149222419Y-96646115D01*
X149222419Y-96646115D02*
X149603371Y-96979448D01*
X149603371Y-96979448D02*
X149603371Y-96836591D01*
X149603371Y-96836591D02*
X149650990Y-96741353D01*
X149650990Y-96741353D02*
X149698609Y-96693734D01*
X149698609Y-96693734D02*
X149793847Y-96646115D01*
X149793847Y-96646115D02*
X150031942Y-96646115D01*
X150031942Y-96646115D02*
X150127180Y-96693734D01*
X150127180Y-96693734D02*
X150174800Y-96741353D01*
X150174800Y-96741353D02*
X150222419Y-96836591D01*
X150222419Y-96836591D02*
X150222419Y-97122305D01*
X150222419Y-97122305D02*
X150174800Y-97217543D01*
X150174800Y-97217543D02*
X150127180Y-97265162D01*
X150127180Y-94884210D02*
X150174800Y-94931829D01*
X150174800Y-94931829D02*
X150222419Y-95074686D01*
X150222419Y-95074686D02*
X150222419Y-95169924D01*
X150222419Y-95169924D02*
X150174800Y-95312781D01*
X150174800Y-95312781D02*
X150079561Y-95408019D01*
X150079561Y-95408019D02*
X149984323Y-95455638D01*
X149984323Y-95455638D02*
X149793847Y-95503257D01*
X149793847Y-95503257D02*
X149650990Y-95503257D01*
X149650990Y-95503257D02*
X149460514Y-95455638D01*
X149460514Y-95455638D02*
X149365276Y-95408019D01*
X149365276Y-95408019D02*
X149270038Y-95312781D01*
X149270038Y-95312781D02*
X149222419Y-95169924D01*
X149222419Y-95169924D02*
X149222419Y-95074686D01*
X149222419Y-95074686D02*
X149270038Y-94931829D01*
X149270038Y-94931829D02*
X149317657Y-94884210D01*
X149936704Y-94503257D02*
X149936704Y-94027067D01*
X150222419Y-94598495D02*
X149222419Y-94265162D01*
X149222419Y-94265162D02*
X150222419Y-93931829D01*
X150222419Y-93598495D02*
X149222419Y-93598495D01*
X149222419Y-93598495D02*
X149936704Y-93265162D01*
X149936704Y-93265162D02*
X149222419Y-92931829D01*
X149222419Y-92931829D02*
X150222419Y-92931829D01*
X151962419Y-74096115D02*
X150962419Y-74096115D01*
X151962419Y-73619925D02*
X150962419Y-73619925D01*
X150962419Y-73619925D02*
X151962419Y-73048497D01*
X151962419Y-73048497D02*
X150962419Y-73048497D01*
X151962419Y-72572306D02*
X150962419Y-72572306D01*
X150962419Y-72572306D02*
X151676704Y-72238973D01*
X151676704Y-72238973D02*
X150962419Y-71905640D01*
X150962419Y-71905640D02*
X151962419Y-71905640D01*
X151962419Y-71429449D02*
X150962419Y-71429449D01*
X150962419Y-71429449D02*
X150962419Y-71048497D01*
X150962419Y-71048497D02*
X151010038Y-70953259D01*
X151010038Y-70953259D02*
X151057657Y-70905640D01*
X151057657Y-70905640D02*
X151152895Y-70858021D01*
X151152895Y-70858021D02*
X151295752Y-70858021D01*
X151295752Y-70858021D02*
X151390990Y-70905640D01*
X151390990Y-70905640D02*
X151438609Y-70953259D01*
X151438609Y-70953259D02*
X151486228Y-71048497D01*
X151486228Y-71048497D02*
X151486228Y-71429449D01*
X151295752Y-70000878D02*
X151962419Y-70000878D01*
X150914800Y-70238973D02*
X151629085Y-70477068D01*
X151629085Y-70477068D02*
X151629085Y-69858021D01*
X151295752Y-69048497D02*
X151962419Y-69048497D01*
X150914800Y-69286592D02*
X151629085Y-69524687D01*
X151629085Y-69524687D02*
X151629085Y-68905640D01*
X151962419Y-68000878D02*
X151962419Y-68572306D01*
X151962419Y-68286592D02*
X150962419Y-68286592D01*
X150962419Y-68286592D02*
X151105276Y-68381830D01*
X151105276Y-68381830D02*
X151200514Y-68477068D01*
X151200514Y-68477068D02*
X151248133Y-68572306D01*
X172970038Y-89022306D02*
X172922419Y-89117544D01*
X172922419Y-89117544D02*
X172922419Y-89260401D01*
X172922419Y-89260401D02*
X172970038Y-89403258D01*
X172970038Y-89403258D02*
X173065276Y-89498496D01*
X173065276Y-89498496D02*
X173160514Y-89546115D01*
X173160514Y-89546115D02*
X173350990Y-89593734D01*
X173350990Y-89593734D02*
X173493847Y-89593734D01*
X173493847Y-89593734D02*
X173684323Y-89546115D01*
X173684323Y-89546115D02*
X173779561Y-89498496D01*
X173779561Y-89498496D02*
X173874800Y-89403258D01*
X173874800Y-89403258D02*
X173922419Y-89260401D01*
X173922419Y-89260401D02*
X173922419Y-89165163D01*
X173922419Y-89165163D02*
X173874800Y-89022306D01*
X173874800Y-89022306D02*
X173827180Y-88974687D01*
X173827180Y-88974687D02*
X173493847Y-88974687D01*
X173493847Y-88974687D02*
X173493847Y-89165163D01*
X173922419Y-88546115D02*
X172922419Y-88546115D01*
X172922419Y-88546115D02*
X173922419Y-87974687D01*
X173922419Y-87974687D02*
X172922419Y-87974687D01*
X173922419Y-87498496D02*
X172922419Y-87498496D01*
X172922419Y-87498496D02*
X172922419Y-87260401D01*
X172922419Y-87260401D02*
X172970038Y-87117544D01*
X172970038Y-87117544D02*
X173065276Y-87022306D01*
X173065276Y-87022306D02*
X173160514Y-86974687D01*
X173160514Y-86974687D02*
X173350990Y-86927068D01*
X173350990Y-86927068D02*
X173493847Y-86927068D01*
X173493847Y-86927068D02*
X173684323Y-86974687D01*
X173684323Y-86974687D02*
X173779561Y-87022306D01*
X173779561Y-87022306D02*
X173874800Y-87117544D01*
X173874800Y-87117544D02*
X173922419Y-87260401D01*
X173922419Y-87260401D02*
X173922419Y-87498496D01*
X213940038Y-73142306D02*
X213892419Y-73237544D01*
X213892419Y-73237544D02*
X213892419Y-73380401D01*
X213892419Y-73380401D02*
X213940038Y-73523258D01*
X213940038Y-73523258D02*
X214035276Y-73618496D01*
X214035276Y-73618496D02*
X214130514Y-73666115D01*
X214130514Y-73666115D02*
X214320990Y-73713734D01*
X214320990Y-73713734D02*
X214463847Y-73713734D01*
X214463847Y-73713734D02*
X214654323Y-73666115D01*
X214654323Y-73666115D02*
X214749561Y-73618496D01*
X214749561Y-73618496D02*
X214844800Y-73523258D01*
X214844800Y-73523258D02*
X214892419Y-73380401D01*
X214892419Y-73380401D02*
X214892419Y-73285163D01*
X214892419Y-73285163D02*
X214844800Y-73142306D01*
X214844800Y-73142306D02*
X214797180Y-73094687D01*
X214797180Y-73094687D02*
X214463847Y-73094687D01*
X214463847Y-73094687D02*
X214463847Y-73285163D01*
X214892419Y-72666115D02*
X213892419Y-72666115D01*
X213892419Y-72666115D02*
X214892419Y-72094687D01*
X214892419Y-72094687D02*
X213892419Y-72094687D01*
X214892419Y-71618496D02*
X213892419Y-71618496D01*
X213892419Y-71618496D02*
X213892419Y-71380401D01*
X213892419Y-71380401D02*
X213940038Y-71237544D01*
X213940038Y-71237544D02*
X214035276Y-71142306D01*
X214035276Y-71142306D02*
X214130514Y-71094687D01*
X214130514Y-71094687D02*
X214320990Y-71047068D01*
X214320990Y-71047068D02*
X214463847Y-71047068D01*
X214463847Y-71047068D02*
X214654323Y-71094687D01*
X214654323Y-71094687D02*
X214749561Y-71142306D01*
X214749561Y-71142306D02*
X214844800Y-71237544D01*
X214844800Y-71237544D02*
X214892419Y-71380401D01*
X214892419Y-71380401D02*
X214892419Y-71618496D01*
X216560038Y-113292306D02*
X216512419Y-113387544D01*
X216512419Y-113387544D02*
X216512419Y-113530401D01*
X216512419Y-113530401D02*
X216560038Y-113673258D01*
X216560038Y-113673258D02*
X216655276Y-113768496D01*
X216655276Y-113768496D02*
X216750514Y-113816115D01*
X216750514Y-113816115D02*
X216940990Y-113863734D01*
X216940990Y-113863734D02*
X217083847Y-113863734D01*
X217083847Y-113863734D02*
X217274323Y-113816115D01*
X217274323Y-113816115D02*
X217369561Y-113768496D01*
X217369561Y-113768496D02*
X217464800Y-113673258D01*
X217464800Y-113673258D02*
X217512419Y-113530401D01*
X217512419Y-113530401D02*
X217512419Y-113435163D01*
X217512419Y-113435163D02*
X217464800Y-113292306D01*
X217464800Y-113292306D02*
X217417180Y-113244687D01*
X217417180Y-113244687D02*
X217083847Y-113244687D01*
X217083847Y-113244687D02*
X217083847Y-113435163D01*
X217512419Y-112816115D02*
X216512419Y-112816115D01*
X216512419Y-112816115D02*
X217512419Y-112244687D01*
X217512419Y-112244687D02*
X216512419Y-112244687D01*
X217512419Y-111768496D02*
X216512419Y-111768496D01*
X216512419Y-111768496D02*
X216512419Y-111530401D01*
X216512419Y-111530401D02*
X216560038Y-111387544D01*
X216560038Y-111387544D02*
X216655276Y-111292306D01*
X216655276Y-111292306D02*
X216750514Y-111244687D01*
X216750514Y-111244687D02*
X216940990Y-111197068D01*
X216940990Y-111197068D02*
X217083847Y-111197068D01*
X217083847Y-111197068D02*
X217274323Y-111244687D01*
X217274323Y-111244687D02*
X217369561Y-111292306D01*
X217369561Y-111292306D02*
X217464800Y-111387544D01*
X217464800Y-111387544D02*
X217512419Y-111530401D01*
X217512419Y-111530401D02*
X217512419Y-111768496D01*
X214762531Y-101666115D02*
X213762531Y-101666115D01*
X213762531Y-101666115D02*
X214476816Y-101332782D01*
X214476816Y-101332782D02*
X213762531Y-100999449D01*
X213762531Y-100999449D02*
X214762531Y-100999449D01*
X214762531Y-100523258D02*
X213762531Y-100523258D01*
X213762531Y-100523258D02*
X213762531Y-100142306D01*
X213762531Y-100142306D02*
X213810150Y-100047068D01*
X213810150Y-100047068D02*
X213857769Y-99999449D01*
X213857769Y-99999449D02*
X213953007Y-99951830D01*
X213953007Y-99951830D02*
X214095864Y-99951830D01*
X214095864Y-99951830D02*
X214191102Y-99999449D01*
X214191102Y-99999449D02*
X214238721Y-100047068D01*
X214238721Y-100047068D02*
X214286340Y-100142306D01*
X214286340Y-100142306D02*
X214286340Y-100523258D01*
X213857769Y-99570877D02*
X213810150Y-99523258D01*
X213810150Y-99523258D02*
X213762531Y-99428020D01*
X213762531Y-99428020D02*
X213762531Y-99189925D01*
X213762531Y-99189925D02*
X213810150Y-99094687D01*
X213810150Y-99094687D02*
X213857769Y-99047068D01*
X213857769Y-99047068D02*
X213953007Y-98999449D01*
X213953007Y-98999449D02*
X214048245Y-98999449D01*
X214048245Y-98999449D02*
X214191102Y-99047068D01*
X214191102Y-99047068D02*
X214762531Y-99618496D01*
X214762531Y-99618496D02*
X214762531Y-98999449D01*
X213762531Y-98666115D02*
X213762531Y-98047068D01*
X213762531Y-98047068D02*
X214143483Y-98380401D01*
X214143483Y-98380401D02*
X214143483Y-98237544D01*
X214143483Y-98237544D02*
X214191102Y-98142306D01*
X214191102Y-98142306D02*
X214238721Y-98094687D01*
X214238721Y-98094687D02*
X214333959Y-98047068D01*
X214333959Y-98047068D02*
X214572054Y-98047068D01*
X214572054Y-98047068D02*
X214667292Y-98094687D01*
X214667292Y-98094687D02*
X214714912Y-98142306D01*
X214714912Y-98142306D02*
X214762531Y-98237544D01*
X214762531Y-98237544D02*
X214762531Y-98523258D01*
X214762531Y-98523258D02*
X214714912Y-98618496D01*
X214714912Y-98618496D02*
X214667292Y-98666115D01*
X214762531Y-97094687D02*
X214762531Y-97666115D01*
X214762531Y-97380401D02*
X213762531Y-97380401D01*
X213762531Y-97380401D02*
X213905388Y-97475639D01*
X213905388Y-97475639D02*
X214000626Y-97570877D01*
X214000626Y-97570877D02*
X214048245Y-97666115D01*
X213762531Y-96189925D02*
X213762531Y-96666115D01*
X213762531Y-96666115D02*
X214238721Y-96713734D01*
X214238721Y-96713734D02*
X214191102Y-96666115D01*
X214191102Y-96666115D02*
X214143483Y-96570877D01*
X214143483Y-96570877D02*
X214143483Y-96332782D01*
X214143483Y-96332782D02*
X214191102Y-96237544D01*
X214191102Y-96237544D02*
X214238721Y-96189925D01*
X214238721Y-96189925D02*
X214333959Y-96142306D01*
X214333959Y-96142306D02*
X214572054Y-96142306D01*
X214572054Y-96142306D02*
X214667292Y-96189925D01*
X214667292Y-96189925D02*
X214714912Y-96237544D01*
X214714912Y-96237544D02*
X214762531Y-96332782D01*
X214762531Y-96332782D02*
X214762531Y-96570877D01*
X214762531Y-96570877D02*
X214714912Y-96666115D01*
X214714912Y-96666115D02*
X214667292Y-96713734D01*
X216372475Y-101666115D02*
X215372475Y-101666115D01*
X215372475Y-101666115D02*
X215372475Y-101428020D01*
X215372475Y-101428020D02*
X215420094Y-101285163D01*
X215420094Y-101285163D02*
X215515332Y-101189925D01*
X215515332Y-101189925D02*
X215610570Y-101142306D01*
X215610570Y-101142306D02*
X215801046Y-101094687D01*
X215801046Y-101094687D02*
X215943903Y-101094687D01*
X215943903Y-101094687D02*
X216134379Y-101142306D01*
X216134379Y-101142306D02*
X216229617Y-101189925D01*
X216229617Y-101189925D02*
X216324856Y-101285163D01*
X216324856Y-101285163D02*
X216372475Y-101428020D01*
X216372475Y-101428020D02*
X216372475Y-101666115D01*
X216277236Y-100094687D02*
X216324856Y-100142306D01*
X216324856Y-100142306D02*
X216372475Y-100285163D01*
X216372475Y-100285163D02*
X216372475Y-100380401D01*
X216372475Y-100380401D02*
X216324856Y-100523258D01*
X216324856Y-100523258D02*
X216229617Y-100618496D01*
X216229617Y-100618496D02*
X216134379Y-100666115D01*
X216134379Y-100666115D02*
X215943903Y-100713734D01*
X215943903Y-100713734D02*
X215801046Y-100713734D01*
X215801046Y-100713734D02*
X215610570Y-100666115D01*
X215610570Y-100666115D02*
X215515332Y-100618496D01*
X215515332Y-100618496D02*
X215420094Y-100523258D01*
X215420094Y-100523258D02*
X215372475Y-100380401D01*
X215372475Y-100380401D02*
X215372475Y-100285163D01*
X215372475Y-100285163D02*
X215420094Y-100142306D01*
X215420094Y-100142306D02*
X215467713Y-100094687D01*
X215991522Y-99666115D02*
X215991522Y-98904211D01*
X216372475Y-98428020D02*
X215372475Y-98428020D01*
X215372475Y-98428020D02*
X215372475Y-98189925D01*
X215372475Y-98189925D02*
X215420094Y-98047068D01*
X215420094Y-98047068D02*
X215515332Y-97951830D01*
X215515332Y-97951830D02*
X215610570Y-97904211D01*
X215610570Y-97904211D02*
X215801046Y-97856592D01*
X215801046Y-97856592D02*
X215943903Y-97856592D01*
X215943903Y-97856592D02*
X216134379Y-97904211D01*
X216134379Y-97904211D02*
X216229617Y-97951830D01*
X216229617Y-97951830D02*
X216324856Y-98047068D01*
X216324856Y-98047068D02*
X216372475Y-98189925D01*
X216372475Y-98189925D02*
X216372475Y-98428020D01*
X216277236Y-96856592D02*
X216324856Y-96904211D01*
X216324856Y-96904211D02*
X216372475Y-97047068D01*
X216372475Y-97047068D02*
X216372475Y-97142306D01*
X216372475Y-97142306D02*
X216324856Y-97285163D01*
X216324856Y-97285163D02*
X216229617Y-97380401D01*
X216229617Y-97380401D02*
X216134379Y-97428020D01*
X216134379Y-97428020D02*
X215943903Y-97475639D01*
X215943903Y-97475639D02*
X215801046Y-97475639D01*
X215801046Y-97475639D02*
X215610570Y-97428020D01*
X215610570Y-97428020D02*
X215515332Y-97380401D01*
X215515332Y-97380401D02*
X215420094Y-97285163D01*
X215420094Y-97285163D02*
X215372475Y-97142306D01*
X215372475Y-97142306D02*
X215372475Y-97047068D01*
X215372475Y-97047068D02*
X215420094Y-96904211D01*
X215420094Y-96904211D02*
X215467713Y-96856592D01*
X217458609Y-101332782D02*
X217506228Y-101189925D01*
X217506228Y-101189925D02*
X217553847Y-101142306D01*
X217553847Y-101142306D02*
X217649085Y-101094687D01*
X217649085Y-101094687D02*
X217791942Y-101094687D01*
X217791942Y-101094687D02*
X217887180Y-101142306D01*
X217887180Y-101142306D02*
X217934800Y-101189925D01*
X217934800Y-101189925D02*
X217982419Y-101285163D01*
X217982419Y-101285163D02*
X217982419Y-101666115D01*
X217982419Y-101666115D02*
X216982419Y-101666115D01*
X216982419Y-101666115D02*
X216982419Y-101332782D01*
X216982419Y-101332782D02*
X217030038Y-101237544D01*
X217030038Y-101237544D02*
X217077657Y-101189925D01*
X217077657Y-101189925D02*
X217172895Y-101142306D01*
X217172895Y-101142306D02*
X217268133Y-101142306D01*
X217268133Y-101142306D02*
X217363371Y-101189925D01*
X217363371Y-101189925D02*
X217410990Y-101237544D01*
X217410990Y-101237544D02*
X217458609Y-101332782D01*
X217458609Y-101332782D02*
X217458609Y-101666115D01*
X217315752Y-100237544D02*
X217982419Y-100237544D01*
X217315752Y-100666115D02*
X217839561Y-100666115D01*
X217839561Y-100666115D02*
X217934800Y-100618496D01*
X217934800Y-100618496D02*
X217982419Y-100523258D01*
X217982419Y-100523258D02*
X217982419Y-100380401D01*
X217982419Y-100380401D02*
X217934800Y-100285163D01*
X217934800Y-100285163D02*
X217887180Y-100237544D01*
X217934800Y-99332782D02*
X217982419Y-99428020D01*
X217982419Y-99428020D02*
X217982419Y-99618496D01*
X217982419Y-99618496D02*
X217934800Y-99713734D01*
X217934800Y-99713734D02*
X217887180Y-99761353D01*
X217887180Y-99761353D02*
X217791942Y-99808972D01*
X217791942Y-99808972D02*
X217506228Y-99808972D01*
X217506228Y-99808972D02*
X217410990Y-99761353D01*
X217410990Y-99761353D02*
X217363371Y-99713734D01*
X217363371Y-99713734D02*
X217315752Y-99618496D01*
X217315752Y-99618496D02*
X217315752Y-99428020D01*
X217315752Y-99428020D02*
X217363371Y-99332782D01*
X217982419Y-98904210D02*
X216982419Y-98904210D01*
X217601466Y-98808972D02*
X217982419Y-98523258D01*
X217315752Y-98523258D02*
X217696704Y-98904210D01*
X226680038Y-73172306D02*
X226632419Y-73267544D01*
X226632419Y-73267544D02*
X226632419Y-73410401D01*
X226632419Y-73410401D02*
X226680038Y-73553258D01*
X226680038Y-73553258D02*
X226775276Y-73648496D01*
X226775276Y-73648496D02*
X226870514Y-73696115D01*
X226870514Y-73696115D02*
X227060990Y-73743734D01*
X227060990Y-73743734D02*
X227203847Y-73743734D01*
X227203847Y-73743734D02*
X227394323Y-73696115D01*
X227394323Y-73696115D02*
X227489561Y-73648496D01*
X227489561Y-73648496D02*
X227584800Y-73553258D01*
X227584800Y-73553258D02*
X227632419Y-73410401D01*
X227632419Y-73410401D02*
X227632419Y-73315163D01*
X227632419Y-73315163D02*
X227584800Y-73172306D01*
X227584800Y-73172306D02*
X227537180Y-73124687D01*
X227537180Y-73124687D02*
X227203847Y-73124687D01*
X227203847Y-73124687D02*
X227203847Y-73315163D01*
X227632419Y-72696115D02*
X226632419Y-72696115D01*
X226632419Y-72696115D02*
X227632419Y-72124687D01*
X227632419Y-72124687D02*
X226632419Y-72124687D01*
X227632419Y-71648496D02*
X226632419Y-71648496D01*
X226632419Y-71648496D02*
X226632419Y-71410401D01*
X226632419Y-71410401D02*
X226680038Y-71267544D01*
X226680038Y-71267544D02*
X226775276Y-71172306D01*
X226775276Y-71172306D02*
X226870514Y-71124687D01*
X226870514Y-71124687D02*
X227060990Y-71077068D01*
X227060990Y-71077068D02*
X227203847Y-71077068D01*
X227203847Y-71077068D02*
X227394323Y-71124687D01*
X227394323Y-71124687D02*
X227489561Y-71172306D01*
X227489561Y-71172306D02*
X227584800Y-71267544D01*
X227584800Y-71267544D02*
X227632419Y-71410401D01*
X227632419Y-71410401D02*
X227632419Y-71648496D01*
X230970038Y-113152306D02*
X230922419Y-113247544D01*
X230922419Y-113247544D02*
X230922419Y-113390401D01*
X230922419Y-113390401D02*
X230970038Y-113533258D01*
X230970038Y-113533258D02*
X231065276Y-113628496D01*
X231065276Y-113628496D02*
X231160514Y-113676115D01*
X231160514Y-113676115D02*
X231350990Y-113723734D01*
X231350990Y-113723734D02*
X231493847Y-113723734D01*
X231493847Y-113723734D02*
X231684323Y-113676115D01*
X231684323Y-113676115D02*
X231779561Y-113628496D01*
X231779561Y-113628496D02*
X231874800Y-113533258D01*
X231874800Y-113533258D02*
X231922419Y-113390401D01*
X231922419Y-113390401D02*
X231922419Y-113295163D01*
X231922419Y-113295163D02*
X231874800Y-113152306D01*
X231874800Y-113152306D02*
X231827180Y-113104687D01*
X231827180Y-113104687D02*
X231493847Y-113104687D01*
X231493847Y-113104687D02*
X231493847Y-113295163D01*
X231922419Y-112676115D02*
X230922419Y-112676115D01*
X230922419Y-112676115D02*
X231922419Y-112104687D01*
X231922419Y-112104687D02*
X230922419Y-112104687D01*
X231922419Y-111628496D02*
X230922419Y-111628496D01*
X230922419Y-111628496D02*
X230922419Y-111390401D01*
X230922419Y-111390401D02*
X230970038Y-111247544D01*
X230970038Y-111247544D02*
X231065276Y-111152306D01*
X231065276Y-111152306D02*
X231160514Y-111104687D01*
X231160514Y-111104687D02*
X231350990Y-111057068D01*
X231350990Y-111057068D02*
X231493847Y-111057068D01*
X231493847Y-111057068D02*
X231684323Y-111104687D01*
X231684323Y-111104687D02*
X231779561Y-111152306D01*
X231779561Y-111152306D02*
X231874800Y-111247544D01*
X231874800Y-111247544D02*
X231922419Y-111390401D01*
X231922419Y-111390401D02*
X231922419Y-111628496D01*
X229232531Y-101996115D02*
X228232531Y-101996115D01*
X228232531Y-101996115D02*
X228946816Y-101662782D01*
X228946816Y-101662782D02*
X228232531Y-101329449D01*
X228232531Y-101329449D02*
X229232531Y-101329449D01*
X229232531Y-100853258D02*
X228232531Y-100853258D01*
X228232531Y-100853258D02*
X228232531Y-100472306D01*
X228232531Y-100472306D02*
X228280150Y-100377068D01*
X228280150Y-100377068D02*
X228327769Y-100329449D01*
X228327769Y-100329449D02*
X228423007Y-100281830D01*
X228423007Y-100281830D02*
X228565864Y-100281830D01*
X228565864Y-100281830D02*
X228661102Y-100329449D01*
X228661102Y-100329449D02*
X228708721Y-100377068D01*
X228708721Y-100377068D02*
X228756340Y-100472306D01*
X228756340Y-100472306D02*
X228756340Y-100853258D01*
X228327769Y-99900877D02*
X228280150Y-99853258D01*
X228280150Y-99853258D02*
X228232531Y-99758020D01*
X228232531Y-99758020D02*
X228232531Y-99519925D01*
X228232531Y-99519925D02*
X228280150Y-99424687D01*
X228280150Y-99424687D02*
X228327769Y-99377068D01*
X228327769Y-99377068D02*
X228423007Y-99329449D01*
X228423007Y-99329449D02*
X228518245Y-99329449D01*
X228518245Y-99329449D02*
X228661102Y-99377068D01*
X228661102Y-99377068D02*
X229232531Y-99948496D01*
X229232531Y-99948496D02*
X229232531Y-99329449D01*
X228232531Y-98996115D02*
X228232531Y-98377068D01*
X228232531Y-98377068D02*
X228613483Y-98710401D01*
X228613483Y-98710401D02*
X228613483Y-98567544D01*
X228613483Y-98567544D02*
X228661102Y-98472306D01*
X228661102Y-98472306D02*
X228708721Y-98424687D01*
X228708721Y-98424687D02*
X228803959Y-98377068D01*
X228803959Y-98377068D02*
X229042054Y-98377068D01*
X229042054Y-98377068D02*
X229137292Y-98424687D01*
X229137292Y-98424687D02*
X229184912Y-98472306D01*
X229184912Y-98472306D02*
X229232531Y-98567544D01*
X229232531Y-98567544D02*
X229232531Y-98853258D01*
X229232531Y-98853258D02*
X229184912Y-98948496D01*
X229184912Y-98948496D02*
X229137292Y-98996115D01*
X229232531Y-97424687D02*
X229232531Y-97996115D01*
X229232531Y-97710401D02*
X228232531Y-97710401D01*
X228232531Y-97710401D02*
X228375388Y-97805639D01*
X228375388Y-97805639D02*
X228470626Y-97900877D01*
X228470626Y-97900877D02*
X228518245Y-97996115D01*
X228232531Y-96519925D02*
X228232531Y-96996115D01*
X228232531Y-96996115D02*
X228708721Y-97043734D01*
X228708721Y-97043734D02*
X228661102Y-96996115D01*
X228661102Y-96996115D02*
X228613483Y-96900877D01*
X228613483Y-96900877D02*
X228613483Y-96662782D01*
X228613483Y-96662782D02*
X228661102Y-96567544D01*
X228661102Y-96567544D02*
X228708721Y-96519925D01*
X228708721Y-96519925D02*
X228803959Y-96472306D01*
X228803959Y-96472306D02*
X229042054Y-96472306D01*
X229042054Y-96472306D02*
X229137292Y-96519925D01*
X229137292Y-96519925D02*
X229184912Y-96567544D01*
X229184912Y-96567544D02*
X229232531Y-96662782D01*
X229232531Y-96662782D02*
X229232531Y-96900877D01*
X229232531Y-96900877D02*
X229184912Y-96996115D01*
X229184912Y-96996115D02*
X229137292Y-97043734D01*
X230842475Y-101996115D02*
X229842475Y-101996115D01*
X229842475Y-101996115D02*
X229842475Y-101758020D01*
X229842475Y-101758020D02*
X229890094Y-101615163D01*
X229890094Y-101615163D02*
X229985332Y-101519925D01*
X229985332Y-101519925D02*
X230080570Y-101472306D01*
X230080570Y-101472306D02*
X230271046Y-101424687D01*
X230271046Y-101424687D02*
X230413903Y-101424687D01*
X230413903Y-101424687D02*
X230604379Y-101472306D01*
X230604379Y-101472306D02*
X230699617Y-101519925D01*
X230699617Y-101519925D02*
X230794856Y-101615163D01*
X230794856Y-101615163D02*
X230842475Y-101758020D01*
X230842475Y-101758020D02*
X230842475Y-101996115D01*
X230747236Y-100424687D02*
X230794856Y-100472306D01*
X230794856Y-100472306D02*
X230842475Y-100615163D01*
X230842475Y-100615163D02*
X230842475Y-100710401D01*
X230842475Y-100710401D02*
X230794856Y-100853258D01*
X230794856Y-100853258D02*
X230699617Y-100948496D01*
X230699617Y-100948496D02*
X230604379Y-100996115D01*
X230604379Y-100996115D02*
X230413903Y-101043734D01*
X230413903Y-101043734D02*
X230271046Y-101043734D01*
X230271046Y-101043734D02*
X230080570Y-100996115D01*
X230080570Y-100996115D02*
X229985332Y-100948496D01*
X229985332Y-100948496D02*
X229890094Y-100853258D01*
X229890094Y-100853258D02*
X229842475Y-100710401D01*
X229842475Y-100710401D02*
X229842475Y-100615163D01*
X229842475Y-100615163D02*
X229890094Y-100472306D01*
X229890094Y-100472306D02*
X229937713Y-100424687D01*
X230461522Y-99996115D02*
X230461522Y-99234211D01*
X230842475Y-98758020D02*
X229842475Y-98758020D01*
X229842475Y-98758020D02*
X229842475Y-98519925D01*
X229842475Y-98519925D02*
X229890094Y-98377068D01*
X229890094Y-98377068D02*
X229985332Y-98281830D01*
X229985332Y-98281830D02*
X230080570Y-98234211D01*
X230080570Y-98234211D02*
X230271046Y-98186592D01*
X230271046Y-98186592D02*
X230413903Y-98186592D01*
X230413903Y-98186592D02*
X230604379Y-98234211D01*
X230604379Y-98234211D02*
X230699617Y-98281830D01*
X230699617Y-98281830D02*
X230794856Y-98377068D01*
X230794856Y-98377068D02*
X230842475Y-98519925D01*
X230842475Y-98519925D02*
X230842475Y-98758020D01*
X230747236Y-97186592D02*
X230794856Y-97234211D01*
X230794856Y-97234211D02*
X230842475Y-97377068D01*
X230842475Y-97377068D02*
X230842475Y-97472306D01*
X230842475Y-97472306D02*
X230794856Y-97615163D01*
X230794856Y-97615163D02*
X230699617Y-97710401D01*
X230699617Y-97710401D02*
X230604379Y-97758020D01*
X230604379Y-97758020D02*
X230413903Y-97805639D01*
X230413903Y-97805639D02*
X230271046Y-97805639D01*
X230271046Y-97805639D02*
X230080570Y-97758020D01*
X230080570Y-97758020D02*
X229985332Y-97710401D01*
X229985332Y-97710401D02*
X229890094Y-97615163D01*
X229890094Y-97615163D02*
X229842475Y-97472306D01*
X229842475Y-97472306D02*
X229842475Y-97377068D01*
X229842475Y-97377068D02*
X229890094Y-97234211D01*
X229890094Y-97234211D02*
X229937713Y-97186592D01*
X231928609Y-101662782D02*
X231976228Y-101519925D01*
X231976228Y-101519925D02*
X232023847Y-101472306D01*
X232023847Y-101472306D02*
X232119085Y-101424687D01*
X232119085Y-101424687D02*
X232261942Y-101424687D01*
X232261942Y-101424687D02*
X232357180Y-101472306D01*
X232357180Y-101472306D02*
X232404800Y-101519925D01*
X232404800Y-101519925D02*
X232452419Y-101615163D01*
X232452419Y-101615163D02*
X232452419Y-101996115D01*
X232452419Y-101996115D02*
X231452419Y-101996115D01*
X231452419Y-101996115D02*
X231452419Y-101662782D01*
X231452419Y-101662782D02*
X231500038Y-101567544D01*
X231500038Y-101567544D02*
X231547657Y-101519925D01*
X231547657Y-101519925D02*
X231642895Y-101472306D01*
X231642895Y-101472306D02*
X231738133Y-101472306D01*
X231738133Y-101472306D02*
X231833371Y-101519925D01*
X231833371Y-101519925D02*
X231880990Y-101567544D01*
X231880990Y-101567544D02*
X231928609Y-101662782D01*
X231928609Y-101662782D02*
X231928609Y-101996115D01*
X231785752Y-100567544D02*
X232452419Y-100567544D01*
X231785752Y-100996115D02*
X232309561Y-100996115D01*
X232309561Y-100996115D02*
X232404800Y-100948496D01*
X232404800Y-100948496D02*
X232452419Y-100853258D01*
X232452419Y-100853258D02*
X232452419Y-100710401D01*
X232452419Y-100710401D02*
X232404800Y-100615163D01*
X232404800Y-100615163D02*
X232357180Y-100567544D01*
X232404800Y-99662782D02*
X232452419Y-99758020D01*
X232452419Y-99758020D02*
X232452419Y-99948496D01*
X232452419Y-99948496D02*
X232404800Y-100043734D01*
X232404800Y-100043734D02*
X232357180Y-100091353D01*
X232357180Y-100091353D02*
X232261942Y-100138972D01*
X232261942Y-100138972D02*
X231976228Y-100138972D01*
X231976228Y-100138972D02*
X231880990Y-100091353D01*
X231880990Y-100091353D02*
X231833371Y-100043734D01*
X231833371Y-100043734D02*
X231785752Y-99948496D01*
X231785752Y-99948496D02*
X231785752Y-99758020D01*
X231785752Y-99758020D02*
X231833371Y-99662782D01*
X232452419Y-99234210D02*
X231452419Y-99234210D01*
X232071466Y-99138972D02*
X232452419Y-98853258D01*
X231785752Y-98853258D02*
X232166704Y-99234210D01*
X142911115Y-50572412D02*
X142911115Y-51572412D01*
X142911115Y-51572412D02*
X142577782Y-50858127D01*
X142577782Y-50858127D02*
X142244449Y-51572412D01*
X142244449Y-51572412D02*
X142244449Y-50572412D01*
X141815877Y-50858127D02*
X141339687Y-50858127D01*
X141911115Y-50572412D02*
X141577782Y-51572412D01*
X141577782Y-51572412D02*
X141244449Y-50572412D01*
X141006353Y-51572412D02*
X140339687Y-50572412D01*
X140339687Y-51572412D02*
X141006353Y-50572412D01*
X139911115Y-50572412D02*
X139720639Y-50572412D01*
X139720639Y-50572412D02*
X139625401Y-50620032D01*
X139625401Y-50620032D02*
X139577782Y-50667651D01*
X139577782Y-50667651D02*
X139482544Y-50810508D01*
X139482544Y-50810508D02*
X139434925Y-51000984D01*
X139434925Y-51000984D02*
X139434925Y-51381936D01*
X139434925Y-51381936D02*
X139482544Y-51477174D01*
X139482544Y-51477174D02*
X139530163Y-51524793D01*
X139530163Y-51524793D02*
X139625401Y-51572412D01*
X139625401Y-51572412D02*
X139815877Y-51572412D01*
X139815877Y-51572412D02*
X139911115Y-51524793D01*
X139911115Y-51524793D02*
X139958734Y-51477174D01*
X139958734Y-51477174D02*
X140006353Y-51381936D01*
X140006353Y-51381936D02*
X140006353Y-51143841D01*
X140006353Y-51143841D02*
X139958734Y-51048603D01*
X139958734Y-51048603D02*
X139911115Y-51000984D01*
X139911115Y-51000984D02*
X139815877Y-50953365D01*
X139815877Y-50953365D02*
X139625401Y-50953365D01*
X139625401Y-50953365D02*
X139530163Y-51000984D01*
X139530163Y-51000984D02*
X139482544Y-51048603D01*
X139482544Y-51048603D02*
X139434925Y-51143841D01*
X138863496Y-51143841D02*
X138958734Y-51191460D01*
X138958734Y-51191460D02*
X139006353Y-51239079D01*
X139006353Y-51239079D02*
X139053972Y-51334317D01*
X139053972Y-51334317D02*
X139053972Y-51381936D01*
X139053972Y-51381936D02*
X139006353Y-51477174D01*
X139006353Y-51477174D02*
X138958734Y-51524793D01*
X138958734Y-51524793D02*
X138863496Y-51572412D01*
X138863496Y-51572412D02*
X138673020Y-51572412D01*
X138673020Y-51572412D02*
X138577782Y-51524793D01*
X138577782Y-51524793D02*
X138530163Y-51477174D01*
X138530163Y-51477174D02*
X138482544Y-51381936D01*
X138482544Y-51381936D02*
X138482544Y-51334317D01*
X138482544Y-51334317D02*
X138530163Y-51239079D01*
X138530163Y-51239079D02*
X138577782Y-51191460D01*
X138577782Y-51191460D02*
X138673020Y-51143841D01*
X138673020Y-51143841D02*
X138863496Y-51143841D01*
X138863496Y-51143841D02*
X138958734Y-51096222D01*
X138958734Y-51096222D02*
X139006353Y-51048603D01*
X139006353Y-51048603D02*
X139053972Y-50953365D01*
X139053972Y-50953365D02*
X139053972Y-50762889D01*
X139053972Y-50762889D02*
X139006353Y-50667651D01*
X139006353Y-50667651D02*
X138958734Y-50620032D01*
X138958734Y-50620032D02*
X138863496Y-50572412D01*
X138863496Y-50572412D02*
X138673020Y-50572412D01*
X138673020Y-50572412D02*
X138577782Y-50620032D01*
X138577782Y-50620032D02*
X138530163Y-50667651D01*
X138530163Y-50667651D02*
X138482544Y-50762889D01*
X138482544Y-50762889D02*
X138482544Y-50953365D01*
X138482544Y-50953365D02*
X138530163Y-51048603D01*
X138530163Y-51048603D02*
X138577782Y-51096222D01*
X138577782Y-51096222D02*
X138673020Y-51143841D01*
X138149210Y-51572412D02*
X137530163Y-51572412D01*
X137530163Y-51572412D02*
X137863496Y-51191460D01*
X137863496Y-51191460D02*
X137720639Y-51191460D01*
X137720639Y-51191460D02*
X137625401Y-51143841D01*
X137625401Y-51143841D02*
X137577782Y-51096222D01*
X137577782Y-51096222D02*
X137530163Y-51000984D01*
X137530163Y-51000984D02*
X137530163Y-50762889D01*
X137530163Y-50762889D02*
X137577782Y-50667651D01*
X137577782Y-50667651D02*
X137625401Y-50620032D01*
X137625401Y-50620032D02*
X137720639Y-50572412D01*
X137720639Y-50572412D02*
X138006353Y-50572412D01*
X138006353Y-50572412D02*
X138101591Y-50620032D01*
X138101591Y-50620032D02*
X138149210Y-50667651D01*
X136625401Y-51572412D02*
X137101591Y-51572412D01*
X137101591Y-51572412D02*
X137149210Y-51096222D01*
X137149210Y-51096222D02*
X137101591Y-51143841D01*
X137101591Y-51143841D02*
X137006353Y-51191460D01*
X137006353Y-51191460D02*
X136768258Y-51191460D01*
X136768258Y-51191460D02*
X136673020Y-51143841D01*
X136673020Y-51143841D02*
X136625401Y-51096222D01*
X136625401Y-51096222D02*
X136577782Y-51000984D01*
X136577782Y-51000984D02*
X136577782Y-50762889D01*
X136577782Y-50762889D02*
X136625401Y-50667651D01*
X136625401Y-50667651D02*
X136673020Y-50620032D01*
X136673020Y-50620032D02*
X136768258Y-50572412D01*
X136768258Y-50572412D02*
X137006353Y-50572412D01*
X137006353Y-50572412D02*
X137101591Y-50620032D01*
X137101591Y-50620032D02*
X137149210Y-50667651D01*
X136244448Y-51572412D02*
X135577782Y-51572412D01*
X135577782Y-51572412D02*
X136006353Y-50572412D01*
X135244448Y-50858127D02*
X134768258Y-50858127D01*
X135339686Y-50572412D02*
X135006353Y-51572412D01*
X135006353Y-51572412D02*
X134673020Y-50572412D01*
X142339687Y-49057707D02*
X142387306Y-49010088D01*
X142387306Y-49010088D02*
X142530163Y-48962468D01*
X142530163Y-48962468D02*
X142625401Y-48962468D01*
X142625401Y-48962468D02*
X142768258Y-49010088D01*
X142768258Y-49010088D02*
X142863496Y-49105326D01*
X142863496Y-49105326D02*
X142911115Y-49200564D01*
X142911115Y-49200564D02*
X142958734Y-49391040D01*
X142958734Y-49391040D02*
X142958734Y-49533897D01*
X142958734Y-49533897D02*
X142911115Y-49724373D01*
X142911115Y-49724373D02*
X142863496Y-49819611D01*
X142863496Y-49819611D02*
X142768258Y-49914849D01*
X142768258Y-49914849D02*
X142625401Y-49962468D01*
X142625401Y-49962468D02*
X142530163Y-49962468D01*
X142530163Y-49962468D02*
X142387306Y-49914849D01*
X142387306Y-49914849D02*
X142339687Y-49867230D01*
X141768258Y-48962468D02*
X141863496Y-49010088D01*
X141863496Y-49010088D02*
X141911115Y-49105326D01*
X141911115Y-49105326D02*
X141911115Y-49962468D01*
X140958734Y-48962468D02*
X140958734Y-49486278D01*
X140958734Y-49486278D02*
X141006353Y-49581516D01*
X141006353Y-49581516D02*
X141101591Y-49629135D01*
X141101591Y-49629135D02*
X141292067Y-49629135D01*
X141292067Y-49629135D02*
X141387305Y-49581516D01*
X140958734Y-49010088D02*
X141053972Y-48962468D01*
X141053972Y-48962468D02*
X141292067Y-48962468D01*
X141292067Y-48962468D02*
X141387305Y-49010088D01*
X141387305Y-49010088D02*
X141434924Y-49105326D01*
X141434924Y-49105326D02*
X141434924Y-49200564D01*
X141434924Y-49200564D02*
X141387305Y-49295802D01*
X141387305Y-49295802D02*
X141292067Y-49343421D01*
X141292067Y-49343421D02*
X141053972Y-49343421D01*
X141053972Y-49343421D02*
X140958734Y-49391040D01*
X140530162Y-49010088D02*
X140434924Y-48962468D01*
X140434924Y-48962468D02*
X140244448Y-48962468D01*
X140244448Y-48962468D02*
X140149210Y-49010088D01*
X140149210Y-49010088D02*
X140101591Y-49105326D01*
X140101591Y-49105326D02*
X140101591Y-49152945D01*
X140101591Y-49152945D02*
X140149210Y-49248183D01*
X140149210Y-49248183D02*
X140244448Y-49295802D01*
X140244448Y-49295802D02*
X140387305Y-49295802D01*
X140387305Y-49295802D02*
X140482543Y-49343421D01*
X140482543Y-49343421D02*
X140530162Y-49438659D01*
X140530162Y-49438659D02*
X140530162Y-49486278D01*
X140530162Y-49486278D02*
X140482543Y-49581516D01*
X140482543Y-49581516D02*
X140387305Y-49629135D01*
X140387305Y-49629135D02*
X140244448Y-49629135D01*
X140244448Y-49629135D02*
X140149210Y-49581516D01*
X139720638Y-49010088D02*
X139625400Y-48962468D01*
X139625400Y-48962468D02*
X139434924Y-48962468D01*
X139434924Y-48962468D02*
X139339686Y-49010088D01*
X139339686Y-49010088D02*
X139292067Y-49105326D01*
X139292067Y-49105326D02*
X139292067Y-49152945D01*
X139292067Y-49152945D02*
X139339686Y-49248183D01*
X139339686Y-49248183D02*
X139434924Y-49295802D01*
X139434924Y-49295802D02*
X139577781Y-49295802D01*
X139577781Y-49295802D02*
X139673019Y-49343421D01*
X139673019Y-49343421D02*
X139720638Y-49438659D01*
X139720638Y-49438659D02*
X139720638Y-49486278D01*
X139720638Y-49486278D02*
X139673019Y-49581516D01*
X139673019Y-49581516D02*
X139577781Y-49629135D01*
X139577781Y-49629135D02*
X139434924Y-49629135D01*
X139434924Y-49629135D02*
X139339686Y-49581516D01*
X138863495Y-49343421D02*
X138101591Y-49343421D01*
X137625400Y-48962468D02*
X137625400Y-49962468D01*
X137625400Y-49962468D02*
X137387305Y-49962468D01*
X137387305Y-49962468D02*
X137244448Y-49914849D01*
X137244448Y-49914849D02*
X137149210Y-49819611D01*
X137149210Y-49819611D02*
X137101591Y-49724373D01*
X137101591Y-49724373D02*
X137053972Y-49533897D01*
X137053972Y-49533897D02*
X137053972Y-49391040D01*
X137053972Y-49391040D02*
X137101591Y-49200564D01*
X137101591Y-49200564D02*
X137149210Y-49105326D01*
X137149210Y-49105326D02*
X137244448Y-49010088D01*
X137244448Y-49010088D02*
X137387305Y-48962468D01*
X137387305Y-48962468D02*
X137625400Y-48962468D01*
X142911115Y-47352524D02*
X142911115Y-48352524D01*
X142911115Y-48352524D02*
X142577782Y-47638239D01*
X142577782Y-47638239D02*
X142244449Y-48352524D01*
X142244449Y-48352524D02*
X142244449Y-47352524D01*
X141625401Y-47352524D02*
X141720639Y-47400144D01*
X141720639Y-47400144D02*
X141768258Y-47447763D01*
X141768258Y-47447763D02*
X141815877Y-47543001D01*
X141815877Y-47543001D02*
X141815877Y-47828715D01*
X141815877Y-47828715D02*
X141768258Y-47923953D01*
X141768258Y-47923953D02*
X141720639Y-47971572D01*
X141720639Y-47971572D02*
X141625401Y-48019191D01*
X141625401Y-48019191D02*
X141482544Y-48019191D01*
X141482544Y-48019191D02*
X141387306Y-47971572D01*
X141387306Y-47971572D02*
X141339687Y-47923953D01*
X141339687Y-47923953D02*
X141292068Y-47828715D01*
X141292068Y-47828715D02*
X141292068Y-47543001D01*
X141292068Y-47543001D02*
X141339687Y-47447763D01*
X141339687Y-47447763D02*
X141387306Y-47400144D01*
X141387306Y-47400144D02*
X141482544Y-47352524D01*
X141482544Y-47352524D02*
X141625401Y-47352524D01*
X140863496Y-48019191D02*
X140863496Y-47352524D01*
X140863496Y-47923953D02*
X140815877Y-47971572D01*
X140815877Y-47971572D02*
X140720639Y-48019191D01*
X140720639Y-48019191D02*
X140577782Y-48019191D01*
X140577782Y-48019191D02*
X140482544Y-47971572D01*
X140482544Y-47971572D02*
X140434925Y-47876334D01*
X140434925Y-47876334D02*
X140434925Y-47352524D01*
X139815877Y-47352524D02*
X139911115Y-47400144D01*
X139911115Y-47400144D02*
X139958734Y-47447763D01*
X139958734Y-47447763D02*
X140006353Y-47543001D01*
X140006353Y-47543001D02*
X140006353Y-47828715D01*
X140006353Y-47828715D02*
X139958734Y-47923953D01*
X139958734Y-47923953D02*
X139911115Y-47971572D01*
X139911115Y-47971572D02*
X139815877Y-48019191D01*
X139815877Y-48019191D02*
X139673020Y-48019191D01*
X139673020Y-48019191D02*
X139577782Y-47971572D01*
X139577782Y-47971572D02*
X139530163Y-47923953D01*
X139530163Y-47923953D02*
X139482544Y-47828715D01*
X139482544Y-47828715D02*
X139482544Y-47543001D01*
X139482544Y-47543001D02*
X139530163Y-47447763D01*
X139530163Y-47447763D02*
X139577782Y-47400144D01*
X139577782Y-47400144D02*
X139673020Y-47352524D01*
X139673020Y-47352524D02*
X139815877Y-47352524D01*
X138339686Y-47638239D02*
X137863496Y-47638239D01*
X138434924Y-47352524D02*
X138101591Y-48352524D01*
X138101591Y-48352524D02*
X137768258Y-47352524D01*
X137006353Y-48019191D02*
X137006353Y-47352524D01*
X137434924Y-48019191D02*
X137434924Y-47495382D01*
X137434924Y-47495382D02*
X137387305Y-47400144D01*
X137387305Y-47400144D02*
X137292067Y-47352524D01*
X137292067Y-47352524D02*
X137149210Y-47352524D01*
X137149210Y-47352524D02*
X137053972Y-47400144D01*
X137053972Y-47400144D02*
X137006353Y-47447763D01*
X136101591Y-47352524D02*
X136101591Y-48352524D01*
X136101591Y-47400144D02*
X136196829Y-47352524D01*
X136196829Y-47352524D02*
X136387305Y-47352524D01*
X136387305Y-47352524D02*
X136482543Y-47400144D01*
X136482543Y-47400144D02*
X136530162Y-47447763D01*
X136530162Y-47447763D02*
X136577781Y-47543001D01*
X136577781Y-47543001D02*
X136577781Y-47828715D01*
X136577781Y-47828715D02*
X136530162Y-47923953D01*
X136530162Y-47923953D02*
X136482543Y-47971572D01*
X136482543Y-47971572D02*
X136387305Y-48019191D01*
X136387305Y-48019191D02*
X136196829Y-48019191D01*
X136196829Y-48019191D02*
X136101591Y-47971572D01*
X135625400Y-47352524D02*
X135625400Y-48019191D01*
X135625400Y-48352524D02*
X135673019Y-48304905D01*
X135673019Y-48304905D02*
X135625400Y-48257286D01*
X135625400Y-48257286D02*
X135577781Y-48304905D01*
X135577781Y-48304905D02*
X135625400Y-48352524D01*
X135625400Y-48352524D02*
X135625400Y-48257286D01*
X135006353Y-47352524D02*
X135101591Y-47400144D01*
X135101591Y-47400144D02*
X135149210Y-47447763D01*
X135149210Y-47447763D02*
X135196829Y-47543001D01*
X135196829Y-47543001D02*
X135196829Y-47828715D01*
X135196829Y-47828715D02*
X135149210Y-47923953D01*
X135149210Y-47923953D02*
X135101591Y-47971572D01*
X135101591Y-47971572D02*
X135006353Y-48019191D01*
X135006353Y-48019191D02*
X134863496Y-48019191D01*
X134863496Y-48019191D02*
X134768258Y-47971572D01*
X134768258Y-47971572D02*
X134720639Y-47923953D01*
X134720639Y-47923953D02*
X134673020Y-47828715D01*
X134673020Y-47828715D02*
X134673020Y-47543001D01*
X134673020Y-47543001D02*
X134720639Y-47447763D01*
X134720639Y-47447763D02*
X134768258Y-47400144D01*
X134768258Y-47400144D02*
X134863496Y-47352524D01*
X134863496Y-47352524D02*
X135006353Y-47352524D01*
X142958734Y-46028295D02*
X142482544Y-46028295D01*
X143053972Y-45742580D02*
X142720639Y-46742580D01*
X142720639Y-46742580D02*
X142387306Y-45742580D01*
X142053972Y-45742580D02*
X142053972Y-46409247D01*
X142053972Y-46314009D02*
X142006353Y-46361628D01*
X142006353Y-46361628D02*
X141911115Y-46409247D01*
X141911115Y-46409247D02*
X141768258Y-46409247D01*
X141768258Y-46409247D02*
X141673020Y-46361628D01*
X141673020Y-46361628D02*
X141625401Y-46266390D01*
X141625401Y-46266390D02*
X141625401Y-45742580D01*
X141625401Y-46266390D02*
X141577782Y-46361628D01*
X141577782Y-46361628D02*
X141482544Y-46409247D01*
X141482544Y-46409247D02*
X141339687Y-46409247D01*
X141339687Y-46409247D02*
X141244448Y-46361628D01*
X141244448Y-46361628D02*
X141196829Y-46266390D01*
X141196829Y-46266390D02*
X141196829Y-45742580D01*
X140720639Y-46409247D02*
X140720639Y-45409247D01*
X140720639Y-46361628D02*
X140625401Y-46409247D01*
X140625401Y-46409247D02*
X140434925Y-46409247D01*
X140434925Y-46409247D02*
X140339687Y-46361628D01*
X140339687Y-46361628D02*
X140292068Y-46314009D01*
X140292068Y-46314009D02*
X140244449Y-46218771D01*
X140244449Y-46218771D02*
X140244449Y-45933057D01*
X140244449Y-45933057D02*
X140292068Y-45837819D01*
X140292068Y-45837819D02*
X140339687Y-45790200D01*
X140339687Y-45790200D02*
X140434925Y-45742580D01*
X140434925Y-45742580D02*
X140625401Y-45742580D01*
X140625401Y-45742580D02*
X140720639Y-45790200D01*
X139673020Y-45742580D02*
X139768258Y-45790200D01*
X139768258Y-45790200D02*
X139815877Y-45885438D01*
X139815877Y-45885438D02*
X139815877Y-46742580D01*
X139292067Y-45742580D02*
X139292067Y-46409247D01*
X139292067Y-46742580D02*
X139339686Y-46694961D01*
X139339686Y-46694961D02*
X139292067Y-46647342D01*
X139292067Y-46647342D02*
X139244448Y-46694961D01*
X139244448Y-46694961D02*
X139292067Y-46742580D01*
X139292067Y-46742580D02*
X139292067Y-46647342D01*
X138958734Y-46409247D02*
X138577782Y-46409247D01*
X138815877Y-45742580D02*
X138815877Y-46599723D01*
X138815877Y-46599723D02*
X138768258Y-46694961D01*
X138768258Y-46694961D02*
X138673020Y-46742580D01*
X138673020Y-46742580D02*
X138577782Y-46742580D01*
X138244448Y-45742580D02*
X138244448Y-46409247D01*
X138244448Y-46742580D02*
X138292067Y-46694961D01*
X138292067Y-46694961D02*
X138244448Y-46647342D01*
X138244448Y-46647342D02*
X138196829Y-46694961D01*
X138196829Y-46694961D02*
X138244448Y-46742580D01*
X138244448Y-46742580D02*
X138244448Y-46647342D01*
X137387306Y-45790200D02*
X137482544Y-45742580D01*
X137482544Y-45742580D02*
X137673020Y-45742580D01*
X137673020Y-45742580D02*
X137768258Y-45790200D01*
X137768258Y-45790200D02*
X137815877Y-45885438D01*
X137815877Y-45885438D02*
X137815877Y-46266390D01*
X137815877Y-46266390D02*
X137768258Y-46361628D01*
X137768258Y-46361628D02*
X137673020Y-46409247D01*
X137673020Y-46409247D02*
X137482544Y-46409247D01*
X137482544Y-46409247D02*
X137387306Y-46361628D01*
X137387306Y-46361628D02*
X137339687Y-46266390D01*
X137339687Y-46266390D02*
X137339687Y-46171152D01*
X137339687Y-46171152D02*
X137815877Y-46075914D01*
X136911115Y-45742580D02*
X136911115Y-46409247D01*
X136911115Y-46218771D02*
X136863496Y-46314009D01*
X136863496Y-46314009D02*
X136815877Y-46361628D01*
X136815877Y-46361628D02*
X136720639Y-46409247D01*
X136720639Y-46409247D02*
X136625401Y-46409247D01*
X229615639Y-45427580D02*
X229520401Y-45427580D01*
X229520401Y-45427580D02*
X229425163Y-45379961D01*
X229425163Y-45379961D02*
X229377544Y-45332342D01*
X229377544Y-45332342D02*
X229329925Y-45237104D01*
X229329925Y-45237104D02*
X229282306Y-45046628D01*
X229282306Y-45046628D02*
X229282306Y-44808533D01*
X229282306Y-44808533D02*
X229329925Y-44618057D01*
X229329925Y-44618057D02*
X229377544Y-44522819D01*
X229377544Y-44522819D02*
X229425163Y-44475200D01*
X229425163Y-44475200D02*
X229520401Y-44427580D01*
X229520401Y-44427580D02*
X229615639Y-44427580D01*
X229615639Y-44427580D02*
X229710877Y-44475200D01*
X229710877Y-44475200D02*
X229758496Y-44522819D01*
X229758496Y-44522819D02*
X229806115Y-44618057D01*
X229806115Y-44618057D02*
X229853734Y-44808533D01*
X229853734Y-44808533D02*
X229853734Y-45046628D01*
X229853734Y-45046628D02*
X229806115Y-45237104D01*
X229806115Y-45237104D02*
X229758496Y-45332342D01*
X229758496Y-45332342D02*
X229710877Y-45379961D01*
X229710877Y-45379961D02*
X229615639Y-45427580D01*
X228853734Y-44522819D02*
X228806115Y-44475200D01*
X228806115Y-44475200D02*
X228853734Y-44427580D01*
X228853734Y-44427580D02*
X228901353Y-44475200D01*
X228901353Y-44475200D02*
X228853734Y-44522819D01*
X228853734Y-44522819D02*
X228853734Y-44427580D01*
X228329925Y-44427580D02*
X228139449Y-44427580D01*
X228139449Y-44427580D02*
X228044211Y-44475200D01*
X228044211Y-44475200D02*
X227996592Y-44522819D01*
X227996592Y-44522819D02*
X227901354Y-44665676D01*
X227901354Y-44665676D02*
X227853735Y-44856152D01*
X227853735Y-44856152D02*
X227853735Y-45237104D01*
X227853735Y-45237104D02*
X227901354Y-45332342D01*
X227901354Y-45332342D02*
X227948973Y-45379961D01*
X227948973Y-45379961D02*
X228044211Y-45427580D01*
X228044211Y-45427580D02*
X228234687Y-45427580D01*
X228234687Y-45427580D02*
X228329925Y-45379961D01*
X228329925Y-45379961D02*
X228377544Y-45332342D01*
X228377544Y-45332342D02*
X228425163Y-45237104D01*
X228425163Y-45237104D02*
X228425163Y-44999009D01*
X228425163Y-44999009D02*
X228377544Y-44903771D01*
X228377544Y-44903771D02*
X228329925Y-44856152D01*
X228329925Y-44856152D02*
X228234687Y-44808533D01*
X228234687Y-44808533D02*
X228044211Y-44808533D01*
X228044211Y-44808533D02*
X227948973Y-44856152D01*
X227948973Y-44856152D02*
X227901354Y-44903771D01*
X227901354Y-44903771D02*
X227853735Y-44999009D01*
X226996592Y-45427580D02*
X227187068Y-45427580D01*
X227187068Y-45427580D02*
X227282306Y-45379961D01*
X227282306Y-45379961D02*
X227329925Y-45332342D01*
X227329925Y-45332342D02*
X227425163Y-45189485D01*
X227425163Y-45189485D02*
X227472782Y-44999009D01*
X227472782Y-44999009D02*
X227472782Y-44618057D01*
X227472782Y-44618057D02*
X227425163Y-44522819D01*
X227425163Y-44522819D02*
X227377544Y-44475200D01*
X227377544Y-44475200D02*
X227282306Y-44427580D01*
X227282306Y-44427580D02*
X227091830Y-44427580D01*
X227091830Y-44427580D02*
X226996592Y-44475200D01*
X226996592Y-44475200D02*
X226948973Y-44522819D01*
X226948973Y-44522819D02*
X226901354Y-44618057D01*
X226901354Y-44618057D02*
X226901354Y-44856152D01*
X226901354Y-44856152D02*
X226948973Y-44951390D01*
X226948973Y-44951390D02*
X226996592Y-44999009D01*
X226996592Y-44999009D02*
X227091830Y-45046628D01*
X227091830Y-45046628D02*
X227282306Y-45046628D01*
X227282306Y-45046628D02*
X227377544Y-44999009D01*
X227377544Y-44999009D02*
X227425163Y-44951390D01*
X227425163Y-44951390D02*
X227472782Y-44856152D01*
X226472782Y-44808533D02*
X225710878Y-44808533D01*
X225234687Y-44427580D02*
X225234687Y-45094247D01*
X225234687Y-45427580D02*
X225282306Y-45379961D01*
X225282306Y-45379961D02*
X225234687Y-45332342D01*
X225234687Y-45332342D02*
X225187068Y-45379961D01*
X225187068Y-45379961D02*
X225234687Y-45427580D01*
X225234687Y-45427580D02*
X225234687Y-45332342D01*
X224758497Y-45094247D02*
X224758497Y-44427580D01*
X224758497Y-44999009D02*
X224710878Y-45046628D01*
X224710878Y-45046628D02*
X224615640Y-45094247D01*
X224615640Y-45094247D02*
X224472783Y-45094247D01*
X224472783Y-45094247D02*
X224377545Y-45046628D01*
X224377545Y-45046628D02*
X224329926Y-44951390D01*
X224329926Y-44951390D02*
X224329926Y-44427580D01*
X223425164Y-44475200D02*
X223520402Y-44427580D01*
X223520402Y-44427580D02*
X223710878Y-44427580D01*
X223710878Y-44427580D02*
X223806116Y-44475200D01*
X223806116Y-44475200D02*
X223853735Y-44522819D01*
X223853735Y-44522819D02*
X223901354Y-44618057D01*
X223901354Y-44618057D02*
X223901354Y-44903771D01*
X223901354Y-44903771D02*
X223853735Y-44999009D01*
X223853735Y-44999009D02*
X223806116Y-45046628D01*
X223806116Y-45046628D02*
X223710878Y-45094247D01*
X223710878Y-45094247D02*
X223520402Y-45094247D01*
X223520402Y-45094247D02*
X223425164Y-45046628D01*
X222996592Y-44427580D02*
X222996592Y-45427580D01*
X222568021Y-44427580D02*
X222568021Y-44951390D01*
X222568021Y-44951390D02*
X222615640Y-45046628D01*
X222615640Y-45046628D02*
X222710878Y-45094247D01*
X222710878Y-45094247D02*
X222853735Y-45094247D01*
X222853735Y-45094247D02*
X222948973Y-45046628D01*
X222948973Y-45046628D02*
X222996592Y-44999009D01*
X221329925Y-44427580D02*
X221329925Y-45427580D01*
X220901354Y-45332342D02*
X220853735Y-45379961D01*
X220853735Y-45379961D02*
X220758497Y-45427580D01*
X220758497Y-45427580D02*
X220520402Y-45427580D01*
X220520402Y-45427580D02*
X220425164Y-45379961D01*
X220425164Y-45379961D02*
X220377545Y-45332342D01*
X220377545Y-45332342D02*
X220329926Y-45237104D01*
X220329926Y-45237104D02*
X220329926Y-45141866D01*
X220329926Y-45141866D02*
X220377545Y-44999009D01*
X220377545Y-44999009D02*
X220948973Y-44427580D01*
X220948973Y-44427580D02*
X220329926Y-44427580D01*
X219329926Y-44522819D02*
X219377545Y-44475200D01*
X219377545Y-44475200D02*
X219520402Y-44427580D01*
X219520402Y-44427580D02*
X219615640Y-44427580D01*
X219615640Y-44427580D02*
X219758497Y-44475200D01*
X219758497Y-44475200D02*
X219853735Y-44570438D01*
X219853735Y-44570438D02*
X219901354Y-44665676D01*
X219901354Y-44665676D02*
X219948973Y-44856152D01*
X219948973Y-44856152D02*
X219948973Y-44999009D01*
X219948973Y-44999009D02*
X219901354Y-45189485D01*
X219901354Y-45189485D02*
X219853735Y-45284723D01*
X219853735Y-45284723D02*
X219758497Y-45379961D01*
X219758497Y-45379961D02*
X219615640Y-45427580D01*
X219615640Y-45427580D02*
X219520402Y-45427580D01*
X219520402Y-45427580D02*
X219377545Y-45379961D01*
X219377545Y-45379961D02*
X219329926Y-45332342D01*
X217948973Y-45427580D02*
X217758497Y-45427580D01*
X217758497Y-45427580D02*
X217663259Y-45379961D01*
X217663259Y-45379961D02*
X217568021Y-45284723D01*
X217568021Y-45284723D02*
X217520402Y-45094247D01*
X217520402Y-45094247D02*
X217520402Y-44760914D01*
X217520402Y-44760914D02*
X217568021Y-44570438D01*
X217568021Y-44570438D02*
X217663259Y-44475200D01*
X217663259Y-44475200D02*
X217758497Y-44427580D01*
X217758497Y-44427580D02*
X217948973Y-44427580D01*
X217948973Y-44427580D02*
X218044211Y-44475200D01*
X218044211Y-44475200D02*
X218139449Y-44570438D01*
X218139449Y-44570438D02*
X218187068Y-44760914D01*
X218187068Y-44760914D02*
X218187068Y-45094247D01*
X218187068Y-45094247D02*
X218139449Y-45284723D01*
X218139449Y-45284723D02*
X218044211Y-45379961D01*
X218044211Y-45379961D02*
X217948973Y-45427580D01*
X216615640Y-44427580D02*
X217091830Y-44427580D01*
X217091830Y-44427580D02*
X217091830Y-45427580D01*
X216282306Y-44951390D02*
X215948973Y-44951390D01*
X215806116Y-44427580D02*
X216282306Y-44427580D01*
X216282306Y-44427580D02*
X216282306Y-45427580D01*
X216282306Y-45427580D02*
X215806116Y-45427580D01*
X215377544Y-44427580D02*
X215377544Y-45427580D01*
X215377544Y-45427580D02*
X215139449Y-45427580D01*
X215139449Y-45427580D02*
X214996592Y-45379961D01*
X214996592Y-45379961D02*
X214901354Y-45284723D01*
X214901354Y-45284723D02*
X214853735Y-45189485D01*
X214853735Y-45189485D02*
X214806116Y-44999009D01*
X214806116Y-44999009D02*
X214806116Y-44856152D01*
X214806116Y-44856152D02*
X214853735Y-44665676D01*
X214853735Y-44665676D02*
X214901354Y-44570438D01*
X214901354Y-44570438D02*
X214996592Y-44475200D01*
X214996592Y-44475200D02*
X215139449Y-44427580D01*
X215139449Y-44427580D02*
X215377544Y-44427580D01*
D10*
X215400476Y-58024819D02*
X215400476Y-57024819D01*
X215400476Y-57024819D02*
X215733809Y-57739104D01*
X215733809Y-57739104D02*
X216067142Y-57024819D01*
X216067142Y-57024819D02*
X216067142Y-58024819D01*
X216495714Y-57120057D02*
X216543333Y-57072438D01*
X216543333Y-57072438D02*
X216638571Y-57024819D01*
X216638571Y-57024819D02*
X216876666Y-57024819D01*
X216876666Y-57024819D02*
X216971904Y-57072438D01*
X216971904Y-57072438D02*
X217019523Y-57120057D01*
X217019523Y-57120057D02*
X217067142Y-57215295D01*
X217067142Y-57215295D02*
X217067142Y-57310533D01*
X217067142Y-57310533D02*
X217019523Y-57453390D01*
X217019523Y-57453390D02*
X216448095Y-58024819D01*
X216448095Y-58024819D02*
X217067142Y-58024819D01*
X190276667Y-40527200D02*
X190419524Y-40574819D01*
X190419524Y-40574819D02*
X190657619Y-40574819D01*
X190657619Y-40574819D02*
X190752857Y-40527200D01*
X190752857Y-40527200D02*
X190800476Y-40479580D01*
X190800476Y-40479580D02*
X190848095Y-40384342D01*
X190848095Y-40384342D02*
X190848095Y-40289104D01*
X190848095Y-40289104D02*
X190800476Y-40193866D01*
X190800476Y-40193866D02*
X190752857Y-40146247D01*
X190752857Y-40146247D02*
X190657619Y-40098628D01*
X190657619Y-40098628D02*
X190467143Y-40051009D01*
X190467143Y-40051009D02*
X190371905Y-40003390D01*
X190371905Y-40003390D02*
X190324286Y-39955771D01*
X190324286Y-39955771D02*
X190276667Y-39860533D01*
X190276667Y-39860533D02*
X190276667Y-39765295D01*
X190276667Y-39765295D02*
X190324286Y-39670057D01*
X190324286Y-39670057D02*
X190371905Y-39622438D01*
X190371905Y-39622438D02*
X190467143Y-39574819D01*
X190467143Y-39574819D02*
X190705238Y-39574819D01*
X190705238Y-39574819D02*
X190848095Y-39622438D01*
X191181429Y-39574819D02*
X191419524Y-40574819D01*
X191419524Y-40574819D02*
X191610000Y-39860533D01*
X191610000Y-39860533D02*
X191800476Y-40574819D01*
X191800476Y-40574819D02*
X192038572Y-39574819D01*
X192848095Y-39574819D02*
X192657619Y-39574819D01*
X192657619Y-39574819D02*
X192562381Y-39622438D01*
X192562381Y-39622438D02*
X192514762Y-39670057D01*
X192514762Y-39670057D02*
X192419524Y-39812914D01*
X192419524Y-39812914D02*
X192371905Y-40003390D01*
X192371905Y-40003390D02*
X192371905Y-40384342D01*
X192371905Y-40384342D02*
X192419524Y-40479580D01*
X192419524Y-40479580D02*
X192467143Y-40527200D01*
X192467143Y-40527200D02*
X192562381Y-40574819D01*
X192562381Y-40574819D02*
X192752857Y-40574819D01*
X192752857Y-40574819D02*
X192848095Y-40527200D01*
X192848095Y-40527200D02*
X192895714Y-40479580D01*
X192895714Y-40479580D02*
X192943333Y-40384342D01*
X192943333Y-40384342D02*
X192943333Y-40146247D01*
X192943333Y-40146247D02*
X192895714Y-40051009D01*
X192895714Y-40051009D02*
X192848095Y-40003390D01*
X192848095Y-40003390D02*
X192752857Y-39955771D01*
X192752857Y-39955771D02*
X192562381Y-39955771D01*
X192562381Y-39955771D02*
X192467143Y-40003390D01*
X192467143Y-40003390D02*
X192419524Y-40051009D01*
X192419524Y-40051009D02*
X192371905Y-40146247D01*
X175594819Y-85263333D02*
X176309104Y-85263333D01*
X176309104Y-85263333D02*
X176451961Y-85310952D01*
X176451961Y-85310952D02*
X176547200Y-85406190D01*
X176547200Y-85406190D02*
X176594819Y-85549047D01*
X176594819Y-85549047D02*
X176594819Y-85644285D01*
X175690057Y-84834761D02*
X175642438Y-84787142D01*
X175642438Y-84787142D02*
X175594819Y-84691904D01*
X175594819Y-84691904D02*
X175594819Y-84453809D01*
X175594819Y-84453809D02*
X175642438Y-84358571D01*
X175642438Y-84358571D02*
X175690057Y-84310952D01*
X175690057Y-84310952D02*
X175785295Y-84263333D01*
X175785295Y-84263333D02*
X175880533Y-84263333D01*
X175880533Y-84263333D02*
X176023390Y-84310952D01*
X176023390Y-84310952D02*
X176594819Y-84882380D01*
X176594819Y-84882380D02*
X176594819Y-84263333D01*
X150766667Y-43437200D02*
X150909524Y-43484819D01*
X150909524Y-43484819D02*
X151147619Y-43484819D01*
X151147619Y-43484819D02*
X151242857Y-43437200D01*
X151242857Y-43437200D02*
X151290476Y-43389580D01*
X151290476Y-43389580D02*
X151338095Y-43294342D01*
X151338095Y-43294342D02*
X151338095Y-43199104D01*
X151338095Y-43199104D02*
X151290476Y-43103866D01*
X151290476Y-43103866D02*
X151242857Y-43056247D01*
X151242857Y-43056247D02*
X151147619Y-43008628D01*
X151147619Y-43008628D02*
X150957143Y-42961009D01*
X150957143Y-42961009D02*
X150861905Y-42913390D01*
X150861905Y-42913390D02*
X150814286Y-42865771D01*
X150814286Y-42865771D02*
X150766667Y-42770533D01*
X150766667Y-42770533D02*
X150766667Y-42675295D01*
X150766667Y-42675295D02*
X150814286Y-42580057D01*
X150814286Y-42580057D02*
X150861905Y-42532438D01*
X150861905Y-42532438D02*
X150957143Y-42484819D01*
X150957143Y-42484819D02*
X151195238Y-42484819D01*
X151195238Y-42484819D02*
X151338095Y-42532438D01*
X151671429Y-42484819D02*
X151909524Y-43484819D01*
X151909524Y-43484819D02*
X152100000Y-42770533D01*
X152100000Y-42770533D02*
X152290476Y-43484819D01*
X152290476Y-43484819D02*
X152528572Y-42484819D01*
X153338095Y-42818152D02*
X153338095Y-43484819D01*
X153100000Y-42437200D02*
X152861905Y-43151485D01*
X152861905Y-43151485D02*
X153480952Y-43151485D01*
X215394819Y-106149523D02*
X216109104Y-106149523D01*
X216109104Y-106149523D02*
X216251961Y-106197142D01*
X216251961Y-106197142D02*
X216347200Y-106292380D01*
X216347200Y-106292380D02*
X216394819Y-106435237D01*
X216394819Y-106435237D02*
X216394819Y-106530475D01*
X216394819Y-105149523D02*
X216394819Y-105720951D01*
X216394819Y-105435237D02*
X215394819Y-105435237D01*
X215394819Y-105435237D02*
X215537676Y-105530475D01*
X215537676Y-105530475D02*
X215632914Y-105625713D01*
X215632914Y-105625713D02*
X215680533Y-105720951D01*
X215394819Y-104816189D02*
X215394819Y-104197142D01*
X215394819Y-104197142D02*
X215775771Y-104530475D01*
X215775771Y-104530475D02*
X215775771Y-104387618D01*
X215775771Y-104387618D02*
X215823390Y-104292380D01*
X215823390Y-104292380D02*
X215871009Y-104244761D01*
X215871009Y-104244761D02*
X215966247Y-104197142D01*
X215966247Y-104197142D02*
X216204342Y-104197142D01*
X216204342Y-104197142D02*
X216299580Y-104244761D01*
X216299580Y-104244761D02*
X216347200Y-104292380D01*
X216347200Y-104292380D02*
X216394819Y-104387618D01*
X216394819Y-104387618D02*
X216394819Y-104673332D01*
X216394819Y-104673332D02*
X216347200Y-104768570D01*
X216347200Y-104768570D02*
X216299580Y-104816189D01*
X211059819Y-85168333D02*
X211774104Y-85168333D01*
X211774104Y-85168333D02*
X211916961Y-85215952D01*
X211916961Y-85215952D02*
X212012200Y-85311190D01*
X212012200Y-85311190D02*
X212059819Y-85454047D01*
X212059819Y-85454047D02*
X212059819Y-85549285D01*
X211059819Y-84787380D02*
X211059819Y-84120714D01*
X211059819Y-84120714D02*
X212059819Y-84549285D01*
X219107200Y-119208332D02*
X219154819Y-119065475D01*
X219154819Y-119065475D02*
X219154819Y-118827380D01*
X219154819Y-118827380D02*
X219107200Y-118732142D01*
X219107200Y-118732142D02*
X219059580Y-118684523D01*
X219059580Y-118684523D02*
X218964342Y-118636904D01*
X218964342Y-118636904D02*
X218869104Y-118636904D01*
X218869104Y-118636904D02*
X218773866Y-118684523D01*
X218773866Y-118684523D02*
X218726247Y-118732142D01*
X218726247Y-118732142D02*
X218678628Y-118827380D01*
X218678628Y-118827380D02*
X218631009Y-119017856D01*
X218631009Y-119017856D02*
X218583390Y-119113094D01*
X218583390Y-119113094D02*
X218535771Y-119160713D01*
X218535771Y-119160713D02*
X218440533Y-119208332D01*
X218440533Y-119208332D02*
X218345295Y-119208332D01*
X218345295Y-119208332D02*
X218250057Y-119160713D01*
X218250057Y-119160713D02*
X218202438Y-119113094D01*
X218202438Y-119113094D02*
X218154819Y-119017856D01*
X218154819Y-119017856D02*
X218154819Y-118779761D01*
X218154819Y-118779761D02*
X218202438Y-118636904D01*
X218154819Y-118303570D02*
X219154819Y-118065475D01*
X219154819Y-118065475D02*
X218440533Y-117874999D01*
X218440533Y-117874999D02*
X219154819Y-117684523D01*
X219154819Y-117684523D02*
X218154819Y-117446428D01*
X218154819Y-117160713D02*
X218154819Y-116494047D01*
X218154819Y-116494047D02*
X219154819Y-116922618D01*
X224750476Y-57604819D02*
X224750476Y-56604819D01*
X224750476Y-56604819D02*
X225083809Y-57319104D01*
X225083809Y-57319104D02*
X225417142Y-56604819D01*
X225417142Y-56604819D02*
X225417142Y-57604819D01*
X226417142Y-57604819D02*
X225845714Y-57604819D01*
X226131428Y-57604819D02*
X226131428Y-56604819D01*
X226131428Y-56604819D02*
X226036190Y-56747676D01*
X226036190Y-56747676D02*
X225940952Y-56842914D01*
X225940952Y-56842914D02*
X225845714Y-56890533D01*
X125941666Y-58759819D02*
X125941666Y-59474104D01*
X125941666Y-59474104D02*
X125894047Y-59616961D01*
X125894047Y-59616961D02*
X125798809Y-59712200D01*
X125798809Y-59712200D02*
X125655952Y-59759819D01*
X125655952Y-59759819D02*
X125560714Y-59759819D01*
X126894047Y-58759819D02*
X126417857Y-58759819D01*
X126417857Y-58759819D02*
X126370238Y-59236009D01*
X126370238Y-59236009D02*
X126417857Y-59188390D01*
X126417857Y-59188390D02*
X126513095Y-59140771D01*
X126513095Y-59140771D02*
X126751190Y-59140771D01*
X126751190Y-59140771D02*
X126846428Y-59188390D01*
X126846428Y-59188390D02*
X126894047Y-59236009D01*
X126894047Y-59236009D02*
X126941666Y-59331247D01*
X126941666Y-59331247D02*
X126941666Y-59569342D01*
X126941666Y-59569342D02*
X126894047Y-59664580D01*
X126894047Y-59664580D02*
X126846428Y-59712200D01*
X126846428Y-59712200D02*
X126751190Y-59759819D01*
X126751190Y-59759819D02*
X126513095Y-59759819D01*
X126513095Y-59759819D02*
X126417857Y-59712200D01*
X126417857Y-59712200D02*
X126370238Y-59664580D01*
X181714819Y-52426666D02*
X181238628Y-52759999D01*
X181714819Y-52998094D02*
X180714819Y-52998094D01*
X180714819Y-52998094D02*
X180714819Y-52617142D01*
X180714819Y-52617142D02*
X180762438Y-52521904D01*
X180762438Y-52521904D02*
X180810057Y-52474285D01*
X180810057Y-52474285D02*
X180905295Y-52426666D01*
X180905295Y-52426666D02*
X181048152Y-52426666D01*
X181048152Y-52426666D02*
X181143390Y-52474285D01*
X181143390Y-52474285D02*
X181191009Y-52521904D01*
X181191009Y-52521904D02*
X181238628Y-52617142D01*
X181238628Y-52617142D02*
X181238628Y-52998094D01*
X180714819Y-51569523D02*
X180714819Y-51759999D01*
X180714819Y-51759999D02*
X180762438Y-51855237D01*
X180762438Y-51855237D02*
X180810057Y-51902856D01*
X180810057Y-51902856D02*
X180952914Y-51998094D01*
X180952914Y-51998094D02*
X181143390Y-52045713D01*
X181143390Y-52045713D02*
X181524342Y-52045713D01*
X181524342Y-52045713D02*
X181619580Y-51998094D01*
X181619580Y-51998094D02*
X181667200Y-51950475D01*
X181667200Y-51950475D02*
X181714819Y-51855237D01*
X181714819Y-51855237D02*
X181714819Y-51664761D01*
X181714819Y-51664761D02*
X181667200Y-51569523D01*
X181667200Y-51569523D02*
X181619580Y-51521904D01*
X181619580Y-51521904D02*
X181524342Y-51474285D01*
X181524342Y-51474285D02*
X181286247Y-51474285D01*
X181286247Y-51474285D02*
X181191009Y-51521904D01*
X181191009Y-51521904D02*
X181143390Y-51569523D01*
X181143390Y-51569523D02*
X181095771Y-51664761D01*
X181095771Y-51664761D02*
X181095771Y-51855237D01*
X181095771Y-51855237D02*
X181143390Y-51950475D01*
X181143390Y-51950475D02*
X181191009Y-51998094D01*
X181191009Y-51998094D02*
X181286247Y-52045713D01*
X154856666Y-76144819D02*
X154856666Y-76859104D01*
X154856666Y-76859104D02*
X154809047Y-77001961D01*
X154809047Y-77001961D02*
X154713809Y-77097200D01*
X154713809Y-77097200D02*
X154570952Y-77144819D01*
X154570952Y-77144819D02*
X154475714Y-77144819D01*
X155761428Y-76478152D02*
X155761428Y-77144819D01*
X155523333Y-76097200D02*
X155285238Y-76811485D01*
X155285238Y-76811485D02*
X155904285Y-76811485D01*
X234429819Y-69778333D02*
X235144104Y-69778333D01*
X235144104Y-69778333D02*
X235286961Y-69825952D01*
X235286961Y-69825952D02*
X235382200Y-69921190D01*
X235382200Y-69921190D02*
X235429819Y-70064047D01*
X235429819Y-70064047D02*
X235429819Y-70159285D01*
X234429819Y-68873571D02*
X234429819Y-69064047D01*
X234429819Y-69064047D02*
X234477438Y-69159285D01*
X234477438Y-69159285D02*
X234525057Y-69206904D01*
X234525057Y-69206904D02*
X234667914Y-69302142D01*
X234667914Y-69302142D02*
X234858390Y-69349761D01*
X234858390Y-69349761D02*
X235239342Y-69349761D01*
X235239342Y-69349761D02*
X235334580Y-69302142D01*
X235334580Y-69302142D02*
X235382200Y-69254523D01*
X235382200Y-69254523D02*
X235429819Y-69159285D01*
X235429819Y-69159285D02*
X235429819Y-68968809D01*
X235429819Y-68968809D02*
X235382200Y-68873571D01*
X235382200Y-68873571D02*
X235334580Y-68825952D01*
X235334580Y-68825952D02*
X235239342Y-68778333D01*
X235239342Y-68778333D02*
X235001247Y-68778333D01*
X235001247Y-68778333D02*
X234906009Y-68825952D01*
X234906009Y-68825952D02*
X234858390Y-68873571D01*
X234858390Y-68873571D02*
X234810771Y-68968809D01*
X234810771Y-68968809D02*
X234810771Y-69159285D01*
X234810771Y-69159285D02*
X234858390Y-69254523D01*
X234858390Y-69254523D02*
X234906009Y-69302142D01*
X234906009Y-69302142D02*
X235001247Y-69349761D01*
X189123333Y-115019580D02*
X189075714Y-115067200D01*
X189075714Y-115067200D02*
X188932857Y-115114819D01*
X188932857Y-115114819D02*
X188837619Y-115114819D01*
X188837619Y-115114819D02*
X188694762Y-115067200D01*
X188694762Y-115067200D02*
X188599524Y-114971961D01*
X188599524Y-114971961D02*
X188551905Y-114876723D01*
X188551905Y-114876723D02*
X188504286Y-114686247D01*
X188504286Y-114686247D02*
X188504286Y-114543390D01*
X188504286Y-114543390D02*
X188551905Y-114352914D01*
X188551905Y-114352914D02*
X188599524Y-114257676D01*
X188599524Y-114257676D02*
X188694762Y-114162438D01*
X188694762Y-114162438D02*
X188837619Y-114114819D01*
X188837619Y-114114819D02*
X188932857Y-114114819D01*
X188932857Y-114114819D02*
X189075714Y-114162438D01*
X189075714Y-114162438D02*
X189123333Y-114210057D01*
X190075714Y-115114819D02*
X189504286Y-115114819D01*
X189790000Y-115114819D02*
X189790000Y-114114819D01*
X189790000Y-114114819D02*
X189694762Y-114257676D01*
X189694762Y-114257676D02*
X189599524Y-114352914D01*
X189599524Y-114352914D02*
X189504286Y-114400533D01*
X167259819Y-58586666D02*
X166783628Y-58919999D01*
X167259819Y-59158094D02*
X166259819Y-59158094D01*
X166259819Y-59158094D02*
X166259819Y-58777142D01*
X166259819Y-58777142D02*
X166307438Y-58681904D01*
X166307438Y-58681904D02*
X166355057Y-58634285D01*
X166355057Y-58634285D02*
X166450295Y-58586666D01*
X166450295Y-58586666D02*
X166593152Y-58586666D01*
X166593152Y-58586666D02*
X166688390Y-58634285D01*
X166688390Y-58634285D02*
X166736009Y-58681904D01*
X166736009Y-58681904D02*
X166783628Y-58777142D01*
X166783628Y-58777142D02*
X166783628Y-59158094D01*
X166259819Y-58253332D02*
X166259819Y-57634285D01*
X166259819Y-57634285D02*
X166640771Y-57967618D01*
X166640771Y-57967618D02*
X166640771Y-57824761D01*
X166640771Y-57824761D02*
X166688390Y-57729523D01*
X166688390Y-57729523D02*
X166736009Y-57681904D01*
X166736009Y-57681904D02*
X166831247Y-57634285D01*
X166831247Y-57634285D02*
X167069342Y-57634285D01*
X167069342Y-57634285D02*
X167164580Y-57681904D01*
X167164580Y-57681904D02*
X167212200Y-57729523D01*
X167212200Y-57729523D02*
X167259819Y-57824761D01*
X167259819Y-57824761D02*
X167259819Y-58110475D01*
X167259819Y-58110475D02*
X167212200Y-58205713D01*
X167212200Y-58205713D02*
X167164580Y-58253332D01*
X158059819Y-58691666D02*
X157583628Y-59024999D01*
X158059819Y-59263094D02*
X157059819Y-59263094D01*
X157059819Y-59263094D02*
X157059819Y-58882142D01*
X157059819Y-58882142D02*
X157107438Y-58786904D01*
X157107438Y-58786904D02*
X157155057Y-58739285D01*
X157155057Y-58739285D02*
X157250295Y-58691666D01*
X157250295Y-58691666D02*
X157393152Y-58691666D01*
X157393152Y-58691666D02*
X157488390Y-58739285D01*
X157488390Y-58739285D02*
X157536009Y-58786904D01*
X157536009Y-58786904D02*
X157583628Y-58882142D01*
X157583628Y-58882142D02*
X157583628Y-59263094D01*
X157393152Y-57834523D02*
X158059819Y-57834523D01*
X157012200Y-58072618D02*
X157726485Y-58310713D01*
X157726485Y-58310713D02*
X157726485Y-57691666D01*
X199888333Y-108584819D02*
X199555000Y-108108628D01*
X199316905Y-108584819D02*
X199316905Y-107584819D01*
X199316905Y-107584819D02*
X199697857Y-107584819D01*
X199697857Y-107584819D02*
X199793095Y-107632438D01*
X199793095Y-107632438D02*
X199840714Y-107680057D01*
X199840714Y-107680057D02*
X199888333Y-107775295D01*
X199888333Y-107775295D02*
X199888333Y-107918152D01*
X199888333Y-107918152D02*
X199840714Y-108013390D01*
X199840714Y-108013390D02*
X199793095Y-108061009D01*
X199793095Y-108061009D02*
X199697857Y-108108628D01*
X199697857Y-108108628D02*
X199316905Y-108108628D01*
X200221667Y-107584819D02*
X200888333Y-107584819D01*
X200888333Y-107584819D02*
X200459762Y-108584819D01*
X174986667Y-48387200D02*
X175129524Y-48434819D01*
X175129524Y-48434819D02*
X175367619Y-48434819D01*
X175367619Y-48434819D02*
X175462857Y-48387200D01*
X175462857Y-48387200D02*
X175510476Y-48339580D01*
X175510476Y-48339580D02*
X175558095Y-48244342D01*
X175558095Y-48244342D02*
X175558095Y-48149104D01*
X175558095Y-48149104D02*
X175510476Y-48053866D01*
X175510476Y-48053866D02*
X175462857Y-48006247D01*
X175462857Y-48006247D02*
X175367619Y-47958628D01*
X175367619Y-47958628D02*
X175177143Y-47911009D01*
X175177143Y-47911009D02*
X175081905Y-47863390D01*
X175081905Y-47863390D02*
X175034286Y-47815771D01*
X175034286Y-47815771D02*
X174986667Y-47720533D01*
X174986667Y-47720533D02*
X174986667Y-47625295D01*
X174986667Y-47625295D02*
X175034286Y-47530057D01*
X175034286Y-47530057D02*
X175081905Y-47482438D01*
X175081905Y-47482438D02*
X175177143Y-47434819D01*
X175177143Y-47434819D02*
X175415238Y-47434819D01*
X175415238Y-47434819D02*
X175558095Y-47482438D01*
X175891429Y-47434819D02*
X176129524Y-48434819D01*
X176129524Y-48434819D02*
X176320000Y-47720533D01*
X176320000Y-47720533D02*
X176510476Y-48434819D01*
X176510476Y-48434819D02*
X176748572Y-47434819D01*
X177605714Y-47434819D02*
X177129524Y-47434819D01*
X177129524Y-47434819D02*
X177081905Y-47911009D01*
X177081905Y-47911009D02*
X177129524Y-47863390D01*
X177129524Y-47863390D02*
X177224762Y-47815771D01*
X177224762Y-47815771D02*
X177462857Y-47815771D01*
X177462857Y-47815771D02*
X177558095Y-47863390D01*
X177558095Y-47863390D02*
X177605714Y-47911009D01*
X177605714Y-47911009D02*
X177653333Y-48006247D01*
X177653333Y-48006247D02*
X177653333Y-48244342D01*
X177653333Y-48244342D02*
X177605714Y-48339580D01*
X177605714Y-48339580D02*
X177558095Y-48387200D01*
X177558095Y-48387200D02*
X177462857Y-48434819D01*
X177462857Y-48434819D02*
X177224762Y-48434819D01*
X177224762Y-48434819D02*
X177129524Y-48387200D01*
X177129524Y-48387200D02*
X177081905Y-48339580D01*
X174809819Y-58866666D02*
X174333628Y-59199999D01*
X174809819Y-59438094D02*
X173809819Y-59438094D01*
X173809819Y-59438094D02*
X173809819Y-59057142D01*
X173809819Y-59057142D02*
X173857438Y-58961904D01*
X173857438Y-58961904D02*
X173905057Y-58914285D01*
X173905057Y-58914285D02*
X174000295Y-58866666D01*
X174000295Y-58866666D02*
X174143152Y-58866666D01*
X174143152Y-58866666D02*
X174238390Y-58914285D01*
X174238390Y-58914285D02*
X174286009Y-58961904D01*
X174286009Y-58961904D02*
X174333628Y-59057142D01*
X174333628Y-59057142D02*
X174333628Y-59438094D01*
X173809819Y-57961904D02*
X173809819Y-58438094D01*
X173809819Y-58438094D02*
X174286009Y-58485713D01*
X174286009Y-58485713D02*
X174238390Y-58438094D01*
X174238390Y-58438094D02*
X174190771Y-58342856D01*
X174190771Y-58342856D02*
X174190771Y-58104761D01*
X174190771Y-58104761D02*
X174238390Y-58009523D01*
X174238390Y-58009523D02*
X174286009Y-57961904D01*
X174286009Y-57961904D02*
X174381247Y-57914285D01*
X174381247Y-57914285D02*
X174619342Y-57914285D01*
X174619342Y-57914285D02*
X174714580Y-57961904D01*
X174714580Y-57961904D02*
X174762200Y-58009523D01*
X174762200Y-58009523D02*
X174809819Y-58104761D01*
X174809819Y-58104761D02*
X174809819Y-58342856D01*
X174809819Y-58342856D02*
X174762200Y-58438094D01*
X174762200Y-58438094D02*
X174714580Y-58485713D01*
X147206666Y-65524819D02*
X147206666Y-66239104D01*
X147206666Y-66239104D02*
X147159047Y-66381961D01*
X147159047Y-66381961D02*
X147063809Y-66477200D01*
X147063809Y-66477200D02*
X146920952Y-66524819D01*
X146920952Y-66524819D02*
X146825714Y-66524819D01*
X147587619Y-65524819D02*
X148206666Y-65524819D01*
X148206666Y-65524819D02*
X147873333Y-65905771D01*
X147873333Y-65905771D02*
X148016190Y-65905771D01*
X148016190Y-65905771D02*
X148111428Y-65953390D01*
X148111428Y-65953390D02*
X148159047Y-66001009D01*
X148159047Y-66001009D02*
X148206666Y-66096247D01*
X148206666Y-66096247D02*
X148206666Y-66334342D01*
X148206666Y-66334342D02*
X148159047Y-66429580D01*
X148159047Y-66429580D02*
X148111428Y-66477200D01*
X148111428Y-66477200D02*
X148016190Y-66524819D01*
X148016190Y-66524819D02*
X147730476Y-66524819D01*
X147730476Y-66524819D02*
X147635238Y-66477200D01*
X147635238Y-66477200D02*
X147587619Y-66429580D01*
X223004819Y-108943333D02*
X223719104Y-108943333D01*
X223719104Y-108943333D02*
X223861961Y-108990952D01*
X223861961Y-108990952D02*
X223957200Y-109086190D01*
X223957200Y-109086190D02*
X224004819Y-109229047D01*
X224004819Y-109229047D02*
X224004819Y-109324285D01*
X224004819Y-108419523D02*
X224004819Y-108229047D01*
X224004819Y-108229047D02*
X223957200Y-108133809D01*
X223957200Y-108133809D02*
X223909580Y-108086190D01*
X223909580Y-108086190D02*
X223766723Y-107990952D01*
X223766723Y-107990952D02*
X223576247Y-107943333D01*
X223576247Y-107943333D02*
X223195295Y-107943333D01*
X223195295Y-107943333D02*
X223100057Y-107990952D01*
X223100057Y-107990952D02*
X223052438Y-108038571D01*
X223052438Y-108038571D02*
X223004819Y-108133809D01*
X223004819Y-108133809D02*
X223004819Y-108324285D01*
X223004819Y-108324285D02*
X223052438Y-108419523D01*
X223052438Y-108419523D02*
X223100057Y-108467142D01*
X223100057Y-108467142D02*
X223195295Y-108514761D01*
X223195295Y-108514761D02*
X223433390Y-108514761D01*
X223433390Y-108514761D02*
X223528628Y-108467142D01*
X223528628Y-108467142D02*
X223576247Y-108419523D01*
X223576247Y-108419523D02*
X223623866Y-108324285D01*
X223623866Y-108324285D02*
X223623866Y-108133809D01*
X223623866Y-108133809D02*
X223576247Y-108038571D01*
X223576247Y-108038571D02*
X223528628Y-107990952D01*
X223528628Y-107990952D02*
X223433390Y-107943333D01*
X186053333Y-108609819D02*
X185720000Y-108133628D01*
X185481905Y-108609819D02*
X185481905Y-107609819D01*
X185481905Y-107609819D02*
X185862857Y-107609819D01*
X185862857Y-107609819D02*
X185958095Y-107657438D01*
X185958095Y-107657438D02*
X186005714Y-107705057D01*
X186005714Y-107705057D02*
X186053333Y-107800295D01*
X186053333Y-107800295D02*
X186053333Y-107943152D01*
X186053333Y-107943152D02*
X186005714Y-108038390D01*
X186005714Y-108038390D02*
X185958095Y-108086009D01*
X185958095Y-108086009D02*
X185862857Y-108133628D01*
X185862857Y-108133628D02*
X185481905Y-108133628D01*
X186624762Y-108038390D02*
X186529524Y-107990771D01*
X186529524Y-107990771D02*
X186481905Y-107943152D01*
X186481905Y-107943152D02*
X186434286Y-107847914D01*
X186434286Y-107847914D02*
X186434286Y-107800295D01*
X186434286Y-107800295D02*
X186481905Y-107705057D01*
X186481905Y-107705057D02*
X186529524Y-107657438D01*
X186529524Y-107657438D02*
X186624762Y-107609819D01*
X186624762Y-107609819D02*
X186815238Y-107609819D01*
X186815238Y-107609819D02*
X186910476Y-107657438D01*
X186910476Y-107657438D02*
X186958095Y-107705057D01*
X186958095Y-107705057D02*
X187005714Y-107800295D01*
X187005714Y-107800295D02*
X187005714Y-107847914D01*
X187005714Y-107847914D02*
X186958095Y-107943152D01*
X186958095Y-107943152D02*
X186910476Y-107990771D01*
X186910476Y-107990771D02*
X186815238Y-108038390D01*
X186815238Y-108038390D02*
X186624762Y-108038390D01*
X186624762Y-108038390D02*
X186529524Y-108086009D01*
X186529524Y-108086009D02*
X186481905Y-108133628D01*
X186481905Y-108133628D02*
X186434286Y-108228866D01*
X186434286Y-108228866D02*
X186434286Y-108419342D01*
X186434286Y-108419342D02*
X186481905Y-108514580D01*
X186481905Y-108514580D02*
X186529524Y-108562200D01*
X186529524Y-108562200D02*
X186624762Y-108609819D01*
X186624762Y-108609819D02*
X186815238Y-108609819D01*
X186815238Y-108609819D02*
X186910476Y-108562200D01*
X186910476Y-108562200D02*
X186958095Y-108514580D01*
X186958095Y-108514580D02*
X187005714Y-108419342D01*
X187005714Y-108419342D02*
X187005714Y-108228866D01*
X187005714Y-108228866D02*
X186958095Y-108133628D01*
X186958095Y-108133628D02*
X186910476Y-108086009D01*
X186910476Y-108086009D02*
X186815238Y-108038390D01*
D13*
X193418095Y-78927419D02*
X193418095Y-79736942D01*
X193418095Y-79736942D02*
X193465714Y-79832180D01*
X193465714Y-79832180D02*
X193513333Y-79879800D01*
X193513333Y-79879800D02*
X193608571Y-79927419D01*
X193608571Y-79927419D02*
X193799047Y-79927419D01*
X193799047Y-79927419D02*
X193894285Y-79879800D01*
X193894285Y-79879800D02*
X193941904Y-79832180D01*
X193941904Y-79832180D02*
X193989523Y-79736942D01*
X193989523Y-79736942D02*
X193989523Y-78927419D01*
X194989523Y-79927419D02*
X194418095Y-79927419D01*
X194703809Y-79927419D02*
X194703809Y-78927419D01*
X194703809Y-78927419D02*
X194608571Y-79070276D01*
X194608571Y-79070276D02*
X194513333Y-79165514D01*
X194513333Y-79165514D02*
X194418095Y-79213133D01*
D10*
X121674819Y-113363333D02*
X122389104Y-113363333D01*
X122389104Y-113363333D02*
X122531961Y-113410952D01*
X122531961Y-113410952D02*
X122627200Y-113506190D01*
X122627200Y-113506190D02*
X122674819Y-113649047D01*
X122674819Y-113649047D02*
X122674819Y-113744285D01*
X122674819Y-112363333D02*
X122674819Y-112934761D01*
X122674819Y-112649047D02*
X121674819Y-112649047D01*
X121674819Y-112649047D02*
X121817676Y-112744285D01*
X121817676Y-112744285D02*
X121912914Y-112839523D01*
X121912914Y-112839523D02*
X121960533Y-112934761D01*
X163266667Y-48847200D02*
X163409524Y-48894819D01*
X163409524Y-48894819D02*
X163647619Y-48894819D01*
X163647619Y-48894819D02*
X163742857Y-48847200D01*
X163742857Y-48847200D02*
X163790476Y-48799580D01*
X163790476Y-48799580D02*
X163838095Y-48704342D01*
X163838095Y-48704342D02*
X163838095Y-48609104D01*
X163838095Y-48609104D02*
X163790476Y-48513866D01*
X163790476Y-48513866D02*
X163742857Y-48466247D01*
X163742857Y-48466247D02*
X163647619Y-48418628D01*
X163647619Y-48418628D02*
X163457143Y-48371009D01*
X163457143Y-48371009D02*
X163361905Y-48323390D01*
X163361905Y-48323390D02*
X163314286Y-48275771D01*
X163314286Y-48275771D02*
X163266667Y-48180533D01*
X163266667Y-48180533D02*
X163266667Y-48085295D01*
X163266667Y-48085295D02*
X163314286Y-47990057D01*
X163314286Y-47990057D02*
X163361905Y-47942438D01*
X163361905Y-47942438D02*
X163457143Y-47894819D01*
X163457143Y-47894819D02*
X163695238Y-47894819D01*
X163695238Y-47894819D02*
X163838095Y-47942438D01*
X164171429Y-47894819D02*
X164409524Y-48894819D01*
X164409524Y-48894819D02*
X164600000Y-48180533D01*
X164600000Y-48180533D02*
X164790476Y-48894819D01*
X164790476Y-48894819D02*
X165028572Y-47894819D01*
X165314286Y-47894819D02*
X165933333Y-47894819D01*
X165933333Y-47894819D02*
X165600000Y-48275771D01*
X165600000Y-48275771D02*
X165742857Y-48275771D01*
X165742857Y-48275771D02*
X165838095Y-48323390D01*
X165838095Y-48323390D02*
X165885714Y-48371009D01*
X165885714Y-48371009D02*
X165933333Y-48466247D01*
X165933333Y-48466247D02*
X165933333Y-48704342D01*
X165933333Y-48704342D02*
X165885714Y-48799580D01*
X165885714Y-48799580D02*
X165838095Y-48847200D01*
X165838095Y-48847200D02*
X165742857Y-48894819D01*
X165742857Y-48894819D02*
X165457143Y-48894819D01*
X165457143Y-48894819D02*
X165361905Y-48847200D01*
X165361905Y-48847200D02*
X165314286Y-48799580D01*
X209376666Y-50484819D02*
X209376666Y-51199104D01*
X209376666Y-51199104D02*
X209329047Y-51341961D01*
X209329047Y-51341961D02*
X209233809Y-51437200D01*
X209233809Y-51437200D02*
X209090952Y-51484819D01*
X209090952Y-51484819D02*
X208995714Y-51484819D01*
X209995714Y-50913390D02*
X209900476Y-50865771D01*
X209900476Y-50865771D02*
X209852857Y-50818152D01*
X209852857Y-50818152D02*
X209805238Y-50722914D01*
X209805238Y-50722914D02*
X209805238Y-50675295D01*
X209805238Y-50675295D02*
X209852857Y-50580057D01*
X209852857Y-50580057D02*
X209900476Y-50532438D01*
X209900476Y-50532438D02*
X209995714Y-50484819D01*
X209995714Y-50484819D02*
X210186190Y-50484819D01*
X210186190Y-50484819D02*
X210281428Y-50532438D01*
X210281428Y-50532438D02*
X210329047Y-50580057D01*
X210329047Y-50580057D02*
X210376666Y-50675295D01*
X210376666Y-50675295D02*
X210376666Y-50722914D01*
X210376666Y-50722914D02*
X210329047Y-50818152D01*
X210329047Y-50818152D02*
X210281428Y-50865771D01*
X210281428Y-50865771D02*
X210186190Y-50913390D01*
X210186190Y-50913390D02*
X209995714Y-50913390D01*
X209995714Y-50913390D02*
X209900476Y-50961009D01*
X209900476Y-50961009D02*
X209852857Y-51008628D01*
X209852857Y-51008628D02*
X209805238Y-51103866D01*
X209805238Y-51103866D02*
X209805238Y-51294342D01*
X209805238Y-51294342D02*
X209852857Y-51389580D01*
X209852857Y-51389580D02*
X209900476Y-51437200D01*
X209900476Y-51437200D02*
X209995714Y-51484819D01*
X209995714Y-51484819D02*
X210186190Y-51484819D01*
X210186190Y-51484819D02*
X210281428Y-51437200D01*
X210281428Y-51437200D02*
X210329047Y-51389580D01*
X210329047Y-51389580D02*
X210376666Y-51294342D01*
X210376666Y-51294342D02*
X210376666Y-51103866D01*
X210376666Y-51103866D02*
X210329047Y-51008628D01*
X210329047Y-51008628D02*
X210281428Y-50961009D01*
X210281428Y-50961009D02*
X210186190Y-50913390D01*
X205594819Y-119169523D02*
X206309104Y-119169523D01*
X206309104Y-119169523D02*
X206451961Y-119217142D01*
X206451961Y-119217142D02*
X206547200Y-119312380D01*
X206547200Y-119312380D02*
X206594819Y-119455237D01*
X206594819Y-119455237D02*
X206594819Y-119550475D01*
X206594819Y-118169523D02*
X206594819Y-118740951D01*
X206594819Y-118455237D02*
X205594819Y-118455237D01*
X205594819Y-118455237D02*
X205737676Y-118550475D01*
X205737676Y-118550475D02*
X205832914Y-118645713D01*
X205832914Y-118645713D02*
X205880533Y-118740951D01*
X205690057Y-117788570D02*
X205642438Y-117740951D01*
X205642438Y-117740951D02*
X205594819Y-117645713D01*
X205594819Y-117645713D02*
X205594819Y-117407618D01*
X205594819Y-117407618D02*
X205642438Y-117312380D01*
X205642438Y-117312380D02*
X205690057Y-117264761D01*
X205690057Y-117264761D02*
X205785295Y-117217142D01*
X205785295Y-117217142D02*
X205880533Y-117217142D01*
X205880533Y-117217142D02*
X206023390Y-117264761D01*
X206023390Y-117264761D02*
X206594819Y-117836189D01*
X206594819Y-117836189D02*
X206594819Y-117217142D01*
%TO.C,M2*%
D14*
X213295000Y-56222500D02*
X217175000Y-56222500D01*
X213295000Y-62962500D02*
X213295000Y-56222500D01*
X217775000Y-56222500D02*
X219115000Y-56222500D01*
X219115000Y-56222500D02*
X219115000Y-62962500D01*
X219115000Y-57142500D02*
X213295000Y-57142500D01*
X219115000Y-58142500D02*
X213295000Y-58142500D01*
X219115000Y-61242500D02*
X213295000Y-61242500D01*
X219115000Y-62962500D02*
X213295000Y-62962500D01*
X217475000Y-56222500D02*
X217035000Y-55612500D01*
X217915000Y-55612500D01*
X217475000Y-56222500D01*
G36*
X217475000Y-56222500D02*
G01*
X217035000Y-55612500D01*
X217915000Y-55612500D01*
X217475000Y-56222500D01*
G37*
%TO.C,SW6*%
X190330000Y-44330000D02*
X190330000Y-46930000D01*
X190330000Y-44330000D02*
X192990000Y-44330000D01*
X190330000Y-46930000D02*
X192990000Y-46930000D01*
X191660000Y-41730000D02*
X192990000Y-41730000D01*
X192990000Y-41730000D02*
X192990000Y-43060000D01*
X192990000Y-44330000D02*
X192990000Y-46930000D01*
%TO.C,J2*%
X123780000Y-83600000D02*
X123780000Y-86260000D01*
X172100000Y-83600000D02*
X123780000Y-83600000D01*
X172100000Y-83600000D02*
X172100000Y-86260000D01*
X172100000Y-86260000D02*
X123780000Y-86260000D01*
X174700000Y-84930000D02*
X174700000Y-86260000D01*
X174700000Y-86260000D02*
X173370000Y-86260000D01*
%TO.C,SW4*%
X150840000Y-47010000D02*
X150840000Y-49610000D01*
X150840000Y-47010000D02*
X153500000Y-47010000D01*
X150840000Y-49610000D02*
X153500000Y-49610000D01*
X152170000Y-44410000D02*
X153500000Y-44410000D01*
X153500000Y-44410000D02*
X153500000Y-45740000D01*
X153500000Y-47010000D02*
X153500000Y-49610000D01*
%TO.C,J13*%
X210620000Y-107210000D02*
X211950000Y-107210000D01*
X210620000Y-108540000D02*
X210620000Y-107210000D01*
X213220000Y-107210000D02*
X220900000Y-107210000D01*
X213220000Y-109870000D02*
X213220000Y-107210000D01*
X213220000Y-109870000D02*
X220900000Y-109870000D01*
X220900000Y-109870000D02*
X220900000Y-107210000D01*
%TO.C,J7*%
X213045000Y-83505000D02*
X214375000Y-83505000D01*
X213045000Y-84835000D02*
X213045000Y-83505000D01*
X215645000Y-83505000D02*
X233485000Y-83505000D01*
X215645000Y-86165000D02*
X215645000Y-83505000D01*
X215645000Y-86165000D02*
X233485000Y-86165000D01*
X233485000Y-86165000D02*
X233485000Y-83505000D01*
%TO.C,SW7*%
X219590000Y-116515000D02*
X221600000Y-116515000D01*
X219590000Y-119235000D02*
X219590000Y-116515000D01*
X219850000Y-119235000D02*
X219600000Y-119235000D01*
X219850000Y-119235000D02*
X219850000Y-119775000D01*
X221420000Y-119235000D02*
X223380000Y-119235000D01*
X223200000Y-116515000D02*
X225210000Y-116515000D01*
X225210000Y-116525000D02*
X225210000Y-119225000D01*
X225210000Y-119235000D02*
X224950000Y-119235000D01*
%TO.C,M1*%
X222500000Y-56190000D02*
X228320000Y-56190000D01*
X222500000Y-57910000D02*
X228320000Y-57910000D01*
X222500000Y-61010000D02*
X228320000Y-61010000D01*
X222500000Y-62010000D02*
X228320000Y-62010000D01*
X222500000Y-62930000D02*
X222500000Y-56190000D01*
X223840000Y-62930000D02*
X222500000Y-62930000D01*
X228320000Y-56190000D02*
X228320000Y-62930000D01*
X228320000Y-62930000D02*
X224440000Y-62930000D01*
X224580000Y-63540000D02*
X223700000Y-63540000D01*
X224140000Y-62930000D01*
X224580000Y-63540000D01*
G36*
X224580000Y-63540000D02*
G01*
X223700000Y-63540000D01*
X224140000Y-62930000D01*
X224580000Y-63540000D01*
G37*
%TO.C,J5*%
X124945000Y-55265000D02*
X124945000Y-39965000D01*
X124945000Y-57865000D02*
X124945000Y-56535000D01*
X126275000Y-57865000D02*
X124945000Y-57865000D01*
X127605000Y-39965000D02*
X124945000Y-39965000D01*
X127605000Y-55265000D02*
X124945000Y-55265000D01*
X127605000Y-55265000D02*
X127605000Y-39965000D01*
%TO.C,R6*%
X183630000Y-48220000D02*
X183630000Y-48990000D01*
X183630000Y-56300000D02*
X183630000Y-55530000D01*
X182260000Y-48990000D02*
X185000000Y-48990000D01*
X185000000Y-55530000D01*
X182260000Y-55530000D01*
X182260000Y-48990000D01*
%TO.C,J4*%
X153860000Y-72650000D02*
X153860000Y-67510000D01*
X153860000Y-75250000D02*
X153860000Y-73920000D01*
X155190000Y-75250000D02*
X153860000Y-75250000D01*
X156520000Y-67510000D02*
X153860000Y-67510000D01*
X156520000Y-72650000D02*
X153860000Y-72650000D01*
X156520000Y-72650000D02*
X156520000Y-67510000D01*
%TO.C,J6*%
X213095000Y-68115000D02*
X213095000Y-70775000D01*
X230935000Y-68115000D02*
X213095000Y-68115000D01*
X230935000Y-68115000D02*
X230935000Y-70775000D01*
X230935000Y-70775000D02*
X213095000Y-70775000D01*
X233535000Y-69445000D02*
X233535000Y-70775000D01*
X233535000Y-70775000D02*
X232205000Y-70775000D01*
%TO.C,C1*%
X182420000Y-115830000D02*
X183920000Y-115830000D01*
X183030000Y-118030000D02*
X184170000Y-118030000D01*
X183170000Y-115080000D02*
X183170000Y-116580000D01*
X184170000Y-115660000D02*
X184170000Y-120400000D01*
X184170000Y-115660000D02*
X185670000Y-115660000D01*
X184170000Y-120400000D02*
X185670000Y-120400000D01*
X185670000Y-115660000D02*
X186420000Y-116410000D01*
X185670000Y-120400000D02*
X186420000Y-119650000D01*
X186420000Y-116410000D02*
X187170000Y-115660000D01*
X186420000Y-119650000D02*
X187170000Y-120400000D01*
X187170000Y-115660000D02*
X194410000Y-115660000D01*
X187170000Y-120400000D02*
X194410000Y-120400000D01*
X194410000Y-115660000D02*
X194410000Y-120400000D01*
X195550000Y-118030000D02*
X194410000Y-118030000D01*
%TO.C,R3*%
X169175000Y-54380000D02*
X169175000Y-55150000D01*
X169175000Y-62460000D02*
X169175000Y-61690000D01*
X167805000Y-55150000D02*
X170545000Y-55150000D01*
X170545000Y-61690000D01*
X167805000Y-61690000D01*
X167805000Y-55150000D01*
%TO.C,R4*%
X159975000Y-54485000D02*
X159975000Y-55255000D01*
X159975000Y-62565000D02*
X159975000Y-61795000D01*
X158605000Y-55255000D02*
X161345000Y-55255000D01*
X161345000Y-61795000D01*
X158605000Y-61795000D01*
X158605000Y-55255000D01*
%TO.C,R7*%
X196015000Y-110500000D02*
X196785000Y-110500000D01*
X204095000Y-110500000D02*
X203325000Y-110500000D01*
X196785000Y-109130000D02*
X203325000Y-109130000D01*
X203325000Y-111870000D01*
X196785000Y-111870000D01*
X196785000Y-109130000D01*
%TO.C,SW5*%
X175220000Y-44095000D02*
X175220000Y-46695000D01*
X175220000Y-44095000D02*
X177880000Y-44095000D01*
X175220000Y-46695000D02*
X177880000Y-46695000D01*
X176550000Y-41495000D02*
X177880000Y-41495000D01*
X177880000Y-41495000D02*
X177880000Y-42825000D01*
X177880000Y-44095000D02*
X177880000Y-46695000D01*
%TO.C,R5*%
X176725000Y-54660000D02*
X176725000Y-55430000D01*
X176725000Y-62740000D02*
X176725000Y-61970000D01*
X175355000Y-55430000D02*
X178095000Y-55430000D01*
X178095000Y-61970000D01*
X175355000Y-61970000D01*
X175355000Y-55430000D01*
%TO.C,J3*%
X146210000Y-70110000D02*
X146210000Y-75250000D01*
X146210000Y-70110000D02*
X148870000Y-70110000D01*
X146210000Y-75250000D02*
X148870000Y-75250000D01*
X147540000Y-67510000D02*
X148870000Y-67510000D01*
X148870000Y-67510000D02*
X148870000Y-68840000D01*
X148870000Y-70110000D02*
X148870000Y-75250000D01*
%TO.C,J9*%
X224990000Y-107280000D02*
X226320000Y-107280000D01*
X224990000Y-108610000D02*
X224990000Y-107280000D01*
X227590000Y-107280000D02*
X235270000Y-107280000D01*
X227590000Y-109940000D02*
X227590000Y-107280000D01*
X227590000Y-109940000D02*
X235270000Y-109940000D01*
X235270000Y-109940000D02*
X235270000Y-107280000D01*
%TO.C,R8*%
X182180000Y-110525000D02*
X182950000Y-110525000D01*
X190260000Y-110525000D02*
X189490000Y-110525000D01*
X182950000Y-109155000D02*
X189490000Y-109155000D01*
X189490000Y-111895000D01*
X182950000Y-111895000D01*
X182950000Y-109155000D01*
%TO.C,U1*%
D13*
X181444958Y-59698037D02*
X206914958Y-59698037D01*
X206914958Y-98788037D01*
X181444958Y-98788037D01*
X181444958Y-59698037D01*
%TO.C,J1*%
D14*
X123660000Y-111700000D02*
X124990000Y-111700000D01*
X123660000Y-113030000D02*
X123660000Y-111700000D01*
X126260000Y-111700000D02*
X174580000Y-111700000D01*
X126260000Y-114360000D02*
X126260000Y-111700000D01*
X126260000Y-114360000D02*
X174580000Y-114360000D01*
X174580000Y-114360000D02*
X174580000Y-111700000D01*
%TO.C,SW3*%
X163395000Y-44090000D02*
X163395000Y-46690000D01*
X163395000Y-44090000D02*
X166055000Y-44090000D01*
X163395000Y-46690000D02*
X166055000Y-46690000D01*
X164725000Y-41490000D02*
X166055000Y-41490000D01*
X166055000Y-41490000D02*
X166055000Y-42820000D01*
X166055000Y-44090000D02*
X166055000Y-46690000D01*
%TO.C,J8*%
X208380000Y-46990000D02*
X208380000Y-39310000D01*
X208380000Y-49590000D02*
X208380000Y-48260000D01*
X209710000Y-49590000D02*
X208380000Y-49590000D01*
X211040000Y-39310000D02*
X208380000Y-39310000D01*
X211040000Y-46990000D02*
X208380000Y-46990000D01*
X211040000Y-46990000D02*
X211040000Y-39310000D01*
%TO.C,J12*%
X207140000Y-115450000D02*
X213880000Y-115450000D01*
X207140000Y-121270000D02*
X207140000Y-115450000D01*
X208860000Y-121270000D02*
X208860000Y-115450000D01*
X211960000Y-121270000D02*
X211960000Y-115450000D01*
X212960000Y-121270000D02*
X212960000Y-115450000D01*
X213880000Y-115450000D02*
X213880000Y-119330000D01*
X213880000Y-119930000D02*
X213880000Y-121270000D01*
X213880000Y-121270000D02*
X207140000Y-121270000D01*
X214490000Y-120070000D02*
X213880000Y-119630000D01*
X214490000Y-119190000D01*
X214490000Y-120070000D01*
G36*
X214490000Y-120070000D02*
G01*
X213880000Y-119630000D01*
X214490000Y-119190000D01*
X214490000Y-120070000D01*
G37*
%TD*%
M02*
